<svg width="516" height="117" viewBox="0 0 516 117" fill="none" xmlns="http://www.w3.org/2000/svg">
<circle cx="57.3752" cy="58.4026" r="56.1799" fill="white"/>
<path fill-rule="evenodd" clip-rule="evenodd" d="M61.7078 41.4219H52.5805V54.1466H39.6816L39.6816 63.1505H52.5805V75.8744H61.7078V63.1505H74.6061V54.1466H61.7078V41.4219Z" fill="url(#paint0_linear)"/>
<path fill-rule="evenodd" clip-rule="evenodd" d="M110.939 58.4976C110.939 87.7664 87.2117 111.494 57.9429 111.494C28.6741 111.494 4.94698 87.7664 4.94698 58.4976C4.94698 29.2288 28.6741 5.50166 57.9429 5.50166C87.2117 5.50166 110.939 29.2288 110.939 58.4976ZM115.886 58.4976C115.886 90.4986 89.9439 116.441 57.9429 116.441C25.9419 116.441 0 90.4986 0 58.4976C0 26.4966 25.9419 0.554688 57.9429 0.554688C89.9439 0.554688 115.886 26.4966 115.886 58.4976ZM24.3398 95.7207C23.3255 94.8034 23.3279 93.2295 24.2949 92.2625C25.2597 91.2977 26.8199 91.3025 27.8368 92.2123C45.5774 108.085 72.842 107.501 89.882 90.4609C107.527 72.8164 107.527 44.209 89.882 26.5645C72.8244 9.50684 45.5211 8.93947 27.7818 24.8623C26.7653 25.7748 25.2029 25.781 24.2369 24.8151C23.271 23.8491 23.2675 22.2775 24.2792 21.3595C43.955 3.50756 74.3902 4.07652 93.38 23.0664C112.956 42.6428 112.956 74.3825 93.38 93.959C74.4096 112.929 44.0173 113.517 24.3398 95.7207ZM19.2774 68.8481C17.9579 69.2017 17.1682 70.5623 17.5969 71.8594C24.6061 93.0688 47.0446 105.37 68.8955 99.5147C91.5485 93.4449 104.992 70.1604 98.9219 47.5074C92.8521 24.8544 69.5676 11.4111 46.9146 17.481C46.2758 17.6521 45.9077 18.3129 46.0789 18.9518L46.7448 21.437C46.913 22.065 47.567 22.4276 48.195 22.2594C68.2089 16.8966 88.7808 28.7738 94.1435 48.7878C99.5062 68.8017 87.6291 89.3736 67.6151 94.7363C48.4041 99.8839 28.6791 89.1471 22.3844 70.5769C21.9459 69.2831 20.5969 68.4946 19.2774 68.8481ZM55.1406 24.1898C56.5129 24.0773 57.6402 25.1988 57.6402 26.5757C57.6402 27.9316 56.5455 29.0243 55.1955 29.1513C40.2318 30.5594 28.5227 43.1567 28.5227 58.4887C28.5227 74.7636 41.7161 87.957 57.991 87.957C73.4256 87.957 86.0888 76.0908 87.3552 60.9834C87.4692 59.6228 88.5655 58.5127 89.9309 58.5127C91.2977 58.5127 92.4147 59.625 92.3169 60.9883C91.0364 78.8284 76.1575 92.904 57.991 92.904C38.984 92.904 23.5757 77.4958 23.5757 58.4887C23.5757 40.4415 37.4671 25.6388 55.1406 24.1898Z" fill="url(#paint1_linear)"/>
<path d="M161.183 35.7205H143V74.5157H148.482V41.041H161.183V35.7205Z" fill="#DA3E0C"/>
<path d="M174.095 69.2506V57.3904H186.199V52.2361H174.095V40.9855H187.23V35.7205H168.612V74.5157H187.773V69.2506H174.095Z" fill="#DA3E0C"/>
<path d="M206.387 35.7205H196.345V74.5157H201.827V60.8819H206.387C213.823 60.8819 218.056 56.3928 218.056 48.2458C218.056 40.3205 213.823 35.7205 206.387 35.7205ZM206.332 55.5614H201.827V41.041H206.332C210.457 41.041 212.466 43.4795 212.466 48.2458C212.466 53.2337 210.457 55.5614 206.332 55.5614Z" fill="#DA3E0C"/>
<path d="M236.781 75.2361C244.054 75.2361 248.397 70.3036 248.397 62.212V48.0241C248.397 39.9325 244.054 35 236.781 35C229.508 35 225.166 39.9325 225.166 48.0241V62.212C225.166 70.3036 229.508 75.2361 236.781 75.2361ZM236.781 69.7494C232.819 69.7494 230.81 67.0892 230.81 62.212V48.0241C230.81 43.147 232.819 40.4867 236.781 40.4867C240.689 40.4867 242.752 43.147 242.752 48.0241V62.212C242.752 67.0892 240.689 69.7494 236.781 69.7494Z" fill="#DA3E0C"/>
<path d="M281.795 35.7205L275.39 51.4602C274.522 53.6771 273.219 57.3904 272.622 59.1639H272.405C271.808 57.3904 270.505 53.6771 269.637 51.4602L263.232 35.7205H257.641V74.5157H263.015V59.3855C262.906 54.9518 262.743 50.906 262.581 46.8602L262.798 46.7494C263.883 49.853 265.186 53.4 266.489 56.947L269.8 65.759H275.227L278.538 56.947C279.841 53.4 281.144 49.853 282.229 46.7494L282.446 46.8602C282.229 50.906 282.121 54.9518 282.012 59.3855V74.5157H287.386V35.7205H281.795Z" fill="#DA3E0C"/>
<path d="M303.206 69.2506V57.3904H315.31V52.2361H303.206V40.9855H316.342V35.7205H297.724V74.5157H316.885V69.2506H303.206Z" fill="#DA3E0C"/>
<path d="M347.44 69.2506V35.7205H329.148L328.497 54.453C328.28 60.5494 326.977 66.3687 324.209 69.2506H321.983V81H327.357V74.5157H345.431V81H350.805V69.2506H347.44ZM342.012 69.2506H330.776C332.567 65.9807 333.544 61.4916 333.762 56.0048L334.304 40.9855H342.012V69.2506Z" fill="#DA3E0C"/>
<path d="M358.331 74.5157H363.868L373.041 53.2892C373.963 51.1277 375.049 48.1349 375.755 46.1398L375.917 46.2506C375.646 49.4651 375.429 54.6747 375.429 57.6121V74.5157H380.802V35.7205H375.212L365.985 57.1133C364.953 59.3855 363.976 62.1012 363.271 63.9855L363.108 63.8747C363.488 60.494 363.705 55.4506 363.705 52.6795V35.7205H358.331V74.5157Z" fill="#DA3E0C"/>
<path d="M410.694 81H416.068V69.1952H412.594V35.7205H407.112V69.1952H396.582V35.7205H391.1V74.5157H410.694V81Z" fill="#DA3E0C"/>
<path d="M423.603 74.5157H429.139L438.312 53.2892C439.235 51.1277 440.32 48.1349 441.026 46.1398L441.189 46.2506C440.918 49.4651 440.7 54.6747 440.7 57.6121V74.5157H446.074V35.7205H440.483L431.256 57.1133C430.225 59.3855 429.248 62.1012 428.542 63.9855L428.379 63.8747C428.759 60.494 428.976 55.4506 428.976 52.6795V35.7205H423.603V74.5157Z" fill="#DA3E0C"/>
<path d="M472.6 35.7205V52.2361H461.853V35.7205H456.371V74.5157H461.853V57.5012H472.6V74.5157H478.082V35.7205H472.6Z" fill="#DA3E0C"/>
<path d="M504.301 74.5157H510L500.447 35.7205H494.531L484.978 74.5157H490.731L492.468 66.7012H502.51L504.301 74.5157ZM493.662 61.4916L495.996 51.0723C496.593 48.5229 497.136 44.8096 497.407 42.759H497.57C497.842 44.8096 498.439 48.5229 498.982 51.0723L501.37 61.4916H493.662Z" fill="#DA3E0C"/>
<path d="M148.857 96H151.069L147.045 90.714L151.252 86.1315H148.987L145.257 90.1888H144.761V86.1315H142.973V96H144.761V91.6874H145.59L148.857 96ZM152.631 96H153.171C154.761 96 155.479 94.8821 155.595 92.415L155.71 90.0298H157.835V96H159.522V88.5986H154.125L153.995 91.8753C153.913 93.9521 153.643 94.5641 152.877 94.5641H152.622L152.631 96ZM163.638 93.6389V88.5986H161.957V96H163.754L166.708 90.9549V96H168.394V88.5986H166.602L163.638 93.6389ZM172.546 88.5986H170.864V96H172.546V93.0077H175.413V96H177.09V88.5986H175.413V91.5765H172.546V88.5986ZM181.215 93.6389V88.5986H179.533V96H181.33L184.284 90.9549V96H185.971V88.5986H184.178L181.215 93.6389ZM188.44 96H190.185V93.21H191.038L193.066 96H195.177L192.406 92.2319L195.148 88.5986H193.047L190.821 91.5862H190.185V88.5986H188.44V96ZM198.974 96.1494C200.135 96.1494 200.829 95.6049 201.147 94.9833H201.205V96H202.882V91.0465C202.882 89.0901 201.287 88.5023 199.875 88.5023C198.319 88.5023 197.124 89.1961 196.738 90.5454L198.367 90.7766C198.54 90.2707 199.032 89.837 199.885 89.837C200.694 89.837 201.138 90.2514 201.138 90.979V91.0079C201.138 91.5091 200.612 91.5332 199.307 91.6729C197.871 91.8271 196.497 92.256 196.497 93.9232C196.497 95.3784 197.562 96.1494 198.974 96.1494ZM199.427 94.8676C198.699 94.8676 198.179 94.5351 198.179 93.8943C198.179 93.2245 198.762 92.945 199.543 92.8342C200 92.7715 200.916 92.6559 201.142 92.4728V93.345C201.142 94.1689 200.477 94.8676 199.427 94.8676ZM209.359 96H211.026V90.0298H213.927V96H215.608V88.5986H209.359V96ZM220.21 96.1494C221.372 96.1494 222.066 95.6049 222.384 94.9833H222.441V96H224.118V91.0465C224.118 89.0901 222.523 88.5023 221.111 88.5023C219.555 88.5023 218.36 89.1961 217.975 90.5454L219.603 90.7766C219.777 90.2707 220.268 89.837 221.121 89.837C221.931 89.837 222.374 90.2514 222.374 90.979V91.0079C222.374 91.5091 221.849 91.5332 220.543 91.6729C219.107 91.8271 217.734 92.256 217.734 93.9232C217.734 95.3784 218.799 96.1494 220.21 96.1494ZM220.663 94.8676C219.936 94.8676 219.415 94.5351 219.415 93.8943C219.415 93.2245 219.998 92.945 220.779 92.8342C221.237 92.7715 222.152 92.6559 222.379 92.4728V93.345C222.379 94.1689 221.714 94.8676 220.663 94.8676ZM225.722 90.0298H228.117V96H229.803V90.0298H232.198V88.5986H225.722V90.0298ZM234.265 98.7755H236.01V94.8339H236.082C236.357 95.3736 236.93 96.1301 238.202 96.1301C239.947 96.1301 241.252 94.7472 241.252 92.309C241.252 89.8418 239.908 88.5023 238.197 88.5023C236.892 88.5023 236.347 89.2877 236.082 89.8226H235.981V88.5986H234.265V98.7755ZM235.976 92.2993C235.976 90.8634 236.593 89.9334 237.716 89.9334C238.877 89.9334 239.474 90.9212 239.474 92.2993C239.474 93.6871 238.867 94.699 237.716 94.699C236.603 94.699 235.976 93.7353 235.976 92.2993ZM246.653 96.1446C248.821 96.1446 250.2 94.6171 250.2 92.3282C250.2 90.0346 248.821 88.5023 246.653 88.5023C244.485 88.5023 243.107 90.0346 243.107 92.3282C243.107 94.6171 244.485 96.1446 246.653 96.1446ZM246.663 94.7472C245.463 94.7472 244.875 93.6774 244.875 92.3234C244.875 90.9694 245.463 89.8852 246.663 89.8852C247.843 89.8852 248.431 90.9694 248.431 92.3234C248.431 93.6774 247.843 94.7472 246.663 94.7472ZM254.04 88.5986H252.359V96H254.04V93.0077H256.907V96H258.584V88.5986H256.907V91.5765H254.04V88.5986ZM263.157 96.1494C264.319 96.1494 265.012 95.6049 265.33 94.9833H265.388V96H267.065V91.0465C267.065 89.0901 265.47 88.5023 264.058 88.5023C262.502 88.5023 261.307 89.1961 260.921 90.5454L262.55 90.7766C262.724 90.2707 263.215 89.837 264.068 89.837C264.878 89.837 265.321 90.2514 265.321 90.979V91.0079C265.321 91.5091 264.796 91.5332 263.49 91.6729C262.054 91.8271 260.681 92.256 260.681 93.9232C260.681 95.3784 261.745 96.1494 263.157 96.1494ZM263.61 94.8676C262.883 94.8676 262.362 94.5351 262.362 93.8943C262.362 93.2245 262.945 92.945 263.726 92.8342C264.184 92.7715 265.099 92.6559 265.326 92.4728V93.345C265.326 94.1689 264.661 94.8676 263.61 94.8676ZM269.016 96H271.073L273.189 93.0125H273.574V96H275.318V93.0125H275.704L277.81 96H279.867L277.15 92.1789L279.843 88.5986H277.829L275.723 91.5813H275.318V88.5986H273.574V91.5813H273.16L271.054 88.5986H269.04L271.748 92.1789L269.016 96ZM283.954 96.1494C285.115 96.1494 285.809 95.6049 286.127 94.9833H286.185V96H287.861V91.0465C287.861 89.0901 286.267 88.5023 284.855 88.5023C283.298 88.5023 282.103 89.1961 281.718 90.5454L283.346 90.7766C283.52 90.2707 284.011 89.837 284.864 89.837C285.674 89.837 286.117 90.2514 286.117 90.979V91.0079C286.117 91.5091 285.592 91.5332 284.286 91.6729C282.85 91.8271 281.477 92.256 281.477 93.9232C281.477 95.3784 282.542 96.1494 283.954 96.1494ZM284.407 94.8676C283.679 94.8676 283.159 94.5351 283.159 93.8943C283.159 93.2245 283.742 92.945 284.522 92.8342C284.98 92.7715 285.896 92.6559 286.122 92.4728V93.345C286.122 94.1689 285.457 94.8676 284.407 94.8676ZM296.02 93.6389V88.5986H294.338V96H296.136L299.089 90.9549V96H300.776V88.5986H298.983L296.02 93.6389ZM312.186 88.5986H307.29V96H308.996V90.0298H312.186V88.5986ZM317.234 96.1446C318.959 96.1446 320.145 95.3013 320.453 94.0147L318.825 93.8316C318.588 94.458 318.01 94.7857 317.259 94.7857C316.131 94.7857 315.384 94.0437 315.37 92.7764H320.526V92.2415C320.526 89.6443 318.964 88.5023 317.143 88.5023C315.023 88.5023 313.64 90.0587 313.64 92.3427C313.64 94.6652 315.003 96.1446 317.234 96.1446ZM315.374 91.6006C315.427 90.6562 316.126 89.8611 317.167 89.8611C318.169 89.8611 318.844 90.5935 318.853 91.6006H315.374ZM322.68 98.7755H324.424V94.8339H324.496C324.771 95.3736 325.344 96.1301 326.616 96.1301C328.361 96.1301 329.667 94.7472 329.667 92.309C329.667 89.8418 328.322 88.5023 326.612 88.5023C325.306 88.5023 324.761 89.2877 324.496 89.8226H324.395V88.5986H322.68V98.7755ZM324.39 92.2993C324.39 90.8634 325.007 89.9334 326.13 89.9334C327.291 89.9334 327.889 90.9212 327.889 92.2993C327.889 93.6871 327.281 94.699 326.13 94.699C325.017 94.699 324.39 93.7353 324.39 92.2993ZM333.521 93.6389V88.5986H331.839V96H333.636L336.59 90.9549V96H338.277V88.5986H336.484L333.521 93.6389ZM342.876 96.1494C344.037 96.1494 344.731 95.6049 345.049 94.9833H345.107V96H346.784V91.0465C346.784 89.0901 345.189 88.5023 343.777 88.5023C342.221 88.5023 341.026 89.1961 340.64 90.5454L342.269 90.7766C342.442 90.2707 342.934 89.837 343.787 89.837C344.596 89.837 345.04 90.2514 345.04 90.979V91.0079C345.04 91.5091 344.514 91.5332 343.209 91.6729C341.773 91.8271 340.399 92.256 340.399 93.9232C340.399 95.3784 341.464 96.1494 342.876 96.1494ZM343.329 94.8676C342.601 94.8676 342.081 94.5351 342.081 93.8943C342.081 93.2245 342.664 92.945 343.445 92.8342C343.902 92.7715 344.818 92.6559 345.044 92.4728V93.345C345.044 94.1689 344.38 94.8676 343.329 94.8676ZM348.388 90.0298H350.782V96H352.469V90.0298H354.864V88.5986H348.388V90.0298ZM356.931 98.7755H358.676V94.8339H358.748C359.023 95.3736 359.596 96.1301 360.868 96.1301C362.612 96.1301 363.918 94.7472 363.918 92.309C363.918 89.8418 362.574 88.5023 360.863 88.5023C359.557 88.5023 359.013 89.2877 358.748 89.8226H358.647V88.5986H356.931V98.7755ZM358.642 92.2993C358.642 90.8634 359.259 89.9334 360.381 89.9334C361.543 89.9334 362.14 90.9212 362.14 92.2993C362.14 93.6871 361.533 94.699 360.381 94.699C359.268 94.699 358.642 93.7353 358.642 92.2993ZM367.772 93.6389V88.5986H366.09V96H367.888L370.842 90.9549V96H372.528V88.5986H370.736L367.772 93.6389ZM376.68 93.6389V88.5986H374.998V96H376.795L379.749 90.9549V96H381.435V88.5986H379.643L376.68 93.6389ZM394.339 94.9399L392.508 91.9813L394.339 89.0227H392.768L390.821 91.9138V92.0488L392.768 94.9399H394.339ZM391.4 94.9399L389.569 91.9813L391.4 89.0227H389.829L387.882 91.9138V92.0488L389.829 94.9399H391.4ZM403.161 86.1315H396.815V96H398.602V87.6301H403.161V86.1315ZM407.477 96.1446C409.202 96.1446 410.388 95.3013 410.696 94.0147L409.067 93.8316C408.831 94.458 408.253 94.7857 407.501 94.7857C406.374 94.7857 405.627 94.0437 405.613 92.7764H410.768V92.2415C410.768 89.6443 409.207 88.5023 407.386 88.5023C405.266 88.5023 403.883 90.0587 403.883 92.3427C403.883 94.6652 405.246 96.1446 407.477 96.1446ZM405.617 91.6006C405.67 90.6562 406.369 89.8611 407.41 89.8611C408.412 89.8611 409.087 90.5935 409.096 91.6006H405.617ZM412.923 98.7755H414.667V94.8339H414.739C415.014 95.3736 415.587 96.1301 416.859 96.1301C418.604 96.1301 419.91 94.7472 419.91 92.309C419.91 89.8418 418.565 88.5023 416.855 88.5023C415.549 88.5023 415.004 89.2877 414.739 89.8226H414.638V88.5986H412.923V98.7755ZM414.633 92.2993C414.633 90.8634 415.25 89.9334 416.373 89.9334C417.534 89.9334 418.131 90.9212 418.131 92.2993C418.131 93.6871 417.524 94.699 416.373 94.699C415.26 94.699 414.633 93.7353 414.633 92.2993ZM425.31 96.1446C427.479 96.1446 428.857 94.6171 428.857 92.3282C428.857 90.0346 427.479 88.5023 425.31 88.5023C423.142 88.5023 421.764 90.0346 421.764 92.3282C421.764 94.6171 423.142 96.1446 425.31 96.1446ZM425.32 94.7472C424.12 94.7472 423.532 93.6774 423.532 92.3234C423.532 90.9694 424.12 89.8852 425.32 89.8852C426.5 89.8852 427.088 90.9694 427.088 92.3234C427.088 93.6774 426.5 94.7472 425.32 94.7472ZM435.275 93.9714L433.136 88.5986H431.016V96H432.697V91.0128L434.668 96H435.887L437.926 90.9598V96H439.593V88.5986H437.473L435.275 93.9714ZM445.307 96.1446C447.032 96.1446 448.217 95.3013 448.525 94.0147L446.897 93.8316C446.661 94.458 446.082 94.7857 445.331 94.7857C444.203 94.7857 443.456 94.0437 443.442 92.7764H448.598V92.2415C448.598 89.6443 447.037 88.5023 445.215 88.5023C443.095 88.5023 441.712 90.0587 441.712 92.3427C441.712 94.6652 443.076 96.1446 445.307 96.1446ZM443.447 91.6006C443.5 90.6562 444.198 89.8611 445.239 89.8611C446.241 89.8611 446.916 90.5935 446.926 91.6006H443.447ZM450.097 98.1491H451.812V96H456.655V98.1491H458.341V94.5641H457.194V88.5986H451.846L451.634 91.191C451.494 92.8486 451.311 94.0774 450.684 94.5641H450.097V98.1491ZM452.477 94.5641C452.944 93.875 453.118 92.7571 453.243 91.191L453.359 90.0057H455.527V94.5641H452.477ZM462.004 93.6389V88.5986H460.322V96H462.119L465.073 90.9549V96H466.76V88.5986H464.967L462.004 93.6389ZM475.479 88.5986H473.812V94.5689H470.911V88.5986H469.229V96H475.479V98.3804H477.185V94.699H475.479V88.5986ZM480.918 93.6389V88.5986H479.237V96H481.034L483.988 90.9549V96H485.674V88.5986H483.882L480.918 93.6389ZM489.826 88.5986H488.144V96H489.826V93.0077H492.693V96H494.37V88.5986H492.693V91.5765H489.826V88.5986ZM498.943 96.1494C500.104 96.1494 500.798 95.6049 501.116 94.9833H501.174V96H502.851V91.0465C502.851 89.0901 501.256 88.5023 499.844 88.5023C498.287 88.5023 497.092 89.1961 496.707 90.5454L498.336 90.7766C498.509 90.2707 499 89.837 499.853 89.837C500.663 89.837 501.106 90.2514 501.106 90.979V91.0079C501.106 91.5091 500.581 91.5332 499.275 91.6729C497.839 91.8271 496.466 92.256 496.466 93.9232C496.466 95.3784 497.531 96.1494 498.943 96.1494ZM499.396 94.8676C498.668 94.8676 498.148 94.5351 498.148 93.8943C498.148 93.2245 498.731 92.945 499.511 92.8342C499.969 92.7715 500.885 92.6559 501.111 92.4728V93.345C501.111 94.1689 500.446 94.8676 499.396 94.8676ZM508.116 94.9399H509.687L511.634 92.0488V91.9138L509.687 89.0227H508.116L509.947 91.9813L508.116 94.9399ZM505.148 94.9399H506.719L508.666 92.0488V91.9138L506.719 89.0227H505.148L506.979 91.9813L505.148 94.9399Z" fill="#3C3C51"/>
<defs>
<linearGradient id="paint0_linear" x1="64.2987" y1="83.4544" x2="40.1804" y2="41.1376" gradientUnits="userSpaceOnUse">
<stop stop-color="#CE2F03"/>
<stop offset="1" stop-color="#FF6A29"/>
</linearGradient>
<linearGradient id="paint1_linear" x1="42.8123" y1="-7.09442" x2="55.0725" y2="127.768" gradientUnits="userSpaceOnUse">
<stop stop-color="#ACBF05"/>
<stop offset="1" stop-color="#608D00"/>
</linearGradient>
</defs>
</svg>
