<?xml version="1.0" encoding="utf-8"?>
<!-- Generator: Adobe Illustrator 23.0.3, SVG Export Plug-In . SVG Version: 6.00 Build 0)  -->
<svg version="1.1" id="Layer_1" xmlns="http://www.w3.org/2000/svg" xmlns:xlink="http://www.w3.org/1999/xlink" x="0px" y="0px"
	 viewBox="0 0 88.1 12" style="enable-background:new 0 0 88.1 12;" xml:space="preserve">
<style type="text/css">
	.st0{fill:#F55E21;}
	.st1{fill:#434343;}
</style>
<g>
	<rect x="48.1" class="st0" width="40" height="2"/>
	<rect x="48.1" y="10" class="st0" width="40" height="2"/>
	<path class="st1" d="M4.4,7.9L2.2,2.4H0V10h1.7V4.9l2,5.1H5l2.1-5.2V10h1.7V2.4H6.7L4.4,7.9z M14.7,10.1c1.8,0,3-0.9,3.3-2.2
		l-1.7-0.2c-0.2,0.6-0.8,1-1.6,1c-1.2,0-1.9-0.8-1.9-2.1h5.3V6.1c0-2.7-1.6-3.9-3.5-3.9c-2.2,0-3.6,1.6-3.6,4
		C11,8.6,12.4,10.1,14.7,10.1z M12.8,5.5c0.1-1,0.8-1.8,1.8-1.8s1.7,0.8,1.7,1.8H12.8z M22.1,2.4h-1.7V10h1.7V6.9h3V10h1.7V2.4h-1.7
		v3.1h-3V2.4z M30.7,2.4h-1.8V10h1.8V7h1.4c0.3,1.9,1.6,3.2,3.5,3.2c2.2,0,3.6-1.6,3.6-4c0-2.3-1.4-3.9-3.6-3.9
		c-2,0-3.3,1.3-3.6,3.2h-1.4L30.7,2.4L30.7,2.4z M35.6,8.7c-1.3,0-1.9-1.1-1.9-2.5s0.6-2.5,1.9-2.5c1.3,0,1.9,1.1,1.9,2.5
		S37,8.7,35.6,8.7z"/>
</g>
</svg>
