<?xml version="1.0" encoding="utf-8"?>
<!-- Generator: Adobe Illustrator 23.0.3, SVG Export Plug-In . SVG Version: 6.00 Build 0)  -->
<svg version="1.1" id="Layer_1" xmlns="http://www.w3.org/2000/svg" xmlns:xlink="http://www.w3.org/1999/xlink" x="0px" y="0px"
	 viewBox="0 0 16 22" style="enable-background:new 0 0 16 22;" xml:space="preserve">
<style type="text/css">
	.st0{fill:#434343;}
</style>
<g>
	<path class="st0" d="M8,22l-1.3-1.6C6.1,19.5,5,18.1,4,16.5c-1.2-1.7-2.1-3.3-2.8-4.7C0.4,10.1,0,8.8,0,7.8C0,3.5,3.6,0,8,0
		s8,3.5,8,7.8c0,1-0.4,2.3-1.3,4c-0.7,1.4-1.6,2.9-2.7,4.7c-1,1.6-2.1,3-2.8,3.9L8,22z M8,2C4.7,2,2,4.6,2,7.8C2,8.1,2.1,9,3,10.9
		c0.6,1.3,1.5,2.8,2.6,4.5c0.8,1.3,1.7,2.4,2.3,3.3c0.6-0.9,1.5-2,2.3-3.3c1.1-1.7,2-3.2,2.6-4.5c0.9-1.9,1-2.9,1-3.2
		C14,4.6,11.3,2,8,2z"/>
</g>
</svg>
