<?xml version="1.0" encoding="utf-8"?>
<!-- Generator: Adobe Illustrator 23.0.3, SVG Export Plug-In . SVG Version: 6.00 Build 0)  -->
<svg version="1.1" id="Capa_1" xmlns="http://www.w3.org/2000/svg" xmlns:xlink="http://www.w3.org/1999/xlink" x="0px" y="0px"
	 viewBox="0 0 90 90" style="enable-background:new 0 0 90 90;" xml:space="preserve">
<style type="text/css">
	.st0{fill:#434343;}
</style>
<g>
	<path class="st0" d="M74.8,0H15.2C6.8,0,0,6.8,0,15.2v59.6C0,83.2,6.8,90,15.2,90h59.6C83.2,90,90,83.2,90,74.8V15.2
		C90,6.8,83.2,0,74.8,0z M71.7,50.6c2.5,2.4,5.1,4.7,7.3,7.3c1,1.1,1.9,2.4,2.6,3.7c1,1.9,0.1,4-1.6,4.2H69.1
		c-2.8,0.2-5-0.9-6.9-2.8c-1.5-1.5-2.9-3.2-4.3-4.7c-0.6-0.7-1.2-1.2-1.9-1.7c-1.4-1-2.8-0.7-3.5,0.9c-0.9,1.5-1.1,3.3-1.1,5.1
		c-0.1,2.6-0.9,3.2-3.4,3.4c-5.5,0.3-10.6-0.6-15.4-3.4c-4.3-2.5-7.6-5.8-10.4-9.8c-5.6-7.6-9.9-15.8-13.7-24.3
		c-0.9-1.9-0.2-3,1.9-3c3.5-0.1,7.1-0.1,10.5,0c1.4,0,2.4,0.9,3,2.2c1.9,4.7,4.2,9.1,7.2,13.2c0.8,1.1,1.5,2.2,2.7,3
		c1.2,0.9,2.2,0.6,2.8-0.9c0.4-0.9,0.6-1.8,0.6-2.8c0.3-3.3,0.3-6.5-0.2-9.8c-0.3-2-1.4-3.4-3.4-3.7c-1.1-0.2-0.9-0.6-0.4-1.1
		c0.9-1.1,1.7-1.6,3.4-1.6h12.2c1.9,0.4,2.4,1.2,2.6,3.2v13.5c0,0.8,0.4,3,1.7,3.4c1.1,0.4,1.8-0.5,2.4-1.1c2.9-3.1,5-6.8,6.9-10.5
		c0.9-1.6,1.5-3.4,2.2-5.2c0.5-1.2,1.3-1.9,2.8-1.9h11.7c0.4,0,0.7,0,1.1,0.1c2,0.4,2.5,1.1,1.9,3.2c-1,3.1-2.9,5.6-4.7,8
		c-1.9,2.7-4,5.4-6,8C69.3,47.3,69.5,48.5,71.7,50.6z"/>
</g>
</svg>
