<svg width="180" height="81" viewBox="0 0 180 81" fill="none" xmlns="http://www.w3.org/2000/svg">
<rect y="0.587891" width="180" height="80" fill="#F55E21"/>
<path d="M18 23.5879H55.2L66 42.3987V52.5879H18V44.3582V23.5879Z" stroke="#E9EFE8" stroke-width="3"/>
<path d="M40 28.5879V38.5879" stroke="#E9EFE8" stroke-width="3"/>
<path d="M35 33.5879L45 33.5879" stroke="#E9EFE8" stroke-width="3"/>
<rect x="18" y="43.5879" width="48" height="9" stroke="#E9EFE8" stroke-width="3"/>
<circle cx="26.5" cy="53.0879" r="4.5" fill="#F55E21" stroke="#E9EFE8" stroke-width="3"/>
<circle cx="56.5" cy="53.0879" r="4.5" fill="#F55E21" stroke="#E9EFE8" stroke-width="3"/>
<path d="M51 23.0879C51 22.1596 50.6839 21.2694 50.1213 20.613C49.5587 19.9566 48.7956 19.5879 48 19.5879C47.2044 19.5879 46.4413 19.9566 45.8787 20.613C45.3161 21.2694 45 22.1596 45 23.0879L48 23.0879H51Z" fill="#E9EFE8" stroke="#E9EFE8" stroke-width="3"/>
<path d="M83.9247 37.5879H87.6236C89.4134 37.5879 90.4375 36.7775 90.4375 35.5147C90.4375 34.4458 89.6072 33.7001 88.4091 33.5957C89.4283 33.4068 90.0646 32.8649 90.0646 32.0048C90.0646 30.7172 88.9361 29.9515 87.1314 29.9515H83.9247V37.5879ZM85.6101 36.171V34.2768H87.6236C88.2848 34.2768 88.6875 34.6596 88.6875 35.291C88.6875 35.8379 88.2848 36.171 87.6236 36.171H85.6101ZM85.6101 33.1135V31.3933H87.1314C87.8821 31.3933 88.3395 31.7115 88.3395 32.2335C88.3395 32.7804 87.897 33.1135 87.1662 33.1135H85.6101ZM94.3578 32.4373V29.9515H92.6228V37.5879H96.0929C98.0368 37.5879 99.1554 36.514 99.1604 35.0126C99.1554 33.4714 98.0368 32.4373 96.0929 32.4373H94.3578ZM100.11 37.5879H101.91V29.9515H100.11V37.5879ZM94.3578 33.9139H96.0929C96.8735 33.9139 97.4353 34.3762 97.4353 35.0375C97.4353 35.6689 96.8735 36.1113 96.0929 36.1113H94.3578V33.9139ZM104.043 35.4949C104.087 36.9118 105.385 37.737 107.15 37.737C108.96 37.737 110.267 36.877 110.267 35.47C110.267 34.4409 109.566 33.7349 108.661 33.6802V33.6007C109.536 33.367 110.093 32.8201 110.093 31.9949C110.093 30.7072 108.98 29.8521 107.19 29.8521C105.519 29.8521 104.262 30.7172 104.237 32.0495H106.012C106.031 31.5375 106.558 31.1795 107.274 31.1795C107.99 31.1795 108.423 31.5623 108.423 32.1291C108.423 32.6511 108.025 33.0389 107.279 33.0389H106.111V34.3166H107.279C108.03 34.3166 108.522 34.7392 108.522 35.3556C108.522 36.0517 107.911 36.3897 107.14 36.3897C106.379 36.3897 105.862 36.0616 105.828 35.4949H104.043ZM115.715 37.737C117.952 37.737 119.374 36.161 119.374 33.7995C119.374 31.4331 117.952 29.8521 115.715 29.8521C113.478 29.8521 112.056 31.4331 112.056 33.7995C112.056 36.161 113.478 37.737 115.715 37.737ZM115.725 36.2953C114.487 36.2953 113.881 35.1916 113.881 33.7946C113.881 32.3975 114.487 31.2789 115.725 31.2789C116.943 31.2789 117.55 32.3975 117.55 33.7946C117.55 35.1916 116.943 36.2953 115.725 36.2953ZM121.602 37.5879H125.301C127.09 37.5879 128.114 36.7775 128.114 35.5147C128.114 34.4458 127.284 33.7001 126.086 33.5957C127.105 33.4068 127.742 32.8649 127.742 32.0048C127.742 30.7172 126.613 29.9515 124.808 29.9515H121.602V37.5879ZM123.287 36.171V34.2768H125.301C125.962 34.2768 126.364 34.6596 126.364 35.291C126.364 35.8379 125.962 36.171 125.301 36.171H123.287ZM123.287 33.1135V31.3933H124.808C125.559 31.3933 126.016 31.7115 126.016 32.2335C126.016 32.7804 125.574 33.1135 124.843 33.1135H123.287ZM83.9247 54.5879H87.6236C89.4134 54.5879 90.4375 53.7775 90.4375 52.5147C90.4375 51.4458 89.6072 50.7001 88.4091 50.5957C89.4283 50.4068 90.0646 49.8649 90.0646 49.0048C90.0646 47.7172 88.9361 46.9515 87.1314 46.9515H83.9247V54.5879ZM85.6101 53.171V51.2768H87.6236C88.2848 51.2768 88.6875 51.6596 88.6875 52.291C88.6875 52.8379 88.2848 53.171 87.6236 53.171H85.6101ZM85.6101 50.1135V48.3933H87.1314C87.8821 48.3933 88.3395 48.7115 88.3395 49.2335C88.3395 49.7804 87.897 50.1135 87.1662 50.1135H85.6101ZM92.6228 57.4515H94.4225V53.3848H94.4971C94.7804 53.9416 95.3721 54.7221 96.6846 54.7221C98.4843 54.7221 99.8316 53.2953 99.8316 50.7797C99.8316 48.2342 98.4445 46.8521 96.6796 46.8521C95.3323 46.8521 94.7705 47.6625 94.4971 48.2143H94.3926V46.9515H92.6228V57.4515ZM94.3877 50.7697C94.3877 49.2882 95.024 48.3287 96.1824 48.3287C97.3806 48.3287 97.9971 49.3478 97.9971 50.7697C97.9971 52.2015 97.3706 53.2456 96.1824 53.2456C95.034 53.2456 94.3877 52.2512 94.3877 50.7697ZM104.27 54.742C105.468 54.742 106.184 54.1802 106.512 53.5389H106.572V54.5879H108.302V49.4771C108.302 47.4586 106.657 46.8521 105.2 46.8521C103.594 46.8521 102.361 47.568 101.963 48.96L103.644 49.1987C103.823 48.6767 104.33 48.2292 105.21 48.2292C106.045 48.2292 106.502 48.6568 106.502 49.4075V49.4373C106.502 49.9544 105.961 49.9792 104.613 50.1234C103.132 50.2825 101.715 50.725 101.715 52.4451C101.715 53.9466 102.814 54.742 104.27 54.742ZM104.738 53.4196C103.987 53.4196 103.45 53.0765 103.45 52.4153C103.45 51.7243 104.051 51.4359 104.857 51.3216C105.329 51.2569 106.274 51.1376 106.507 50.9487V51.8485C106.507 52.6987 105.821 53.4196 104.738 53.4196ZM117.19 46.9515H115.46V50.6802C115.023 50.7896 114.59 50.8493 114.118 50.8493C113.054 50.8493 112.532 50.4714 112.532 49.487V46.9416H110.812V49.487C110.812 51.4359 112.08 52.3258 114.118 52.3258C114.565 52.3258 115.033 52.2662 115.46 52.1667V54.5879H117.19V46.9515ZM121.899 54.742C123.097 54.742 123.813 54.1802 124.141 53.5389H124.201V54.5879H125.931V49.4771C125.931 47.4586 124.285 46.8521 122.828 46.8521C121.223 46.8521 119.99 47.568 119.592 48.96L121.272 49.1987C121.451 48.6767 121.958 48.2292 122.838 48.2292C123.674 48.2292 124.131 48.6568 124.131 49.4075V49.4373C124.131 49.9544 123.589 49.9792 122.242 50.1234C120.76 50.2825 119.343 50.725 119.343 52.4451C119.343 53.9466 120.442 54.742 121.899 54.742ZM122.366 53.4196C121.615 53.4196 121.078 53.0765 121.078 52.4153C121.078 51.7243 121.68 51.4359 122.485 51.3216C122.958 51.2569 123.902 51.1376 124.136 50.9487V51.8485C124.136 52.6987 123.45 53.4196 122.366 53.4196Z" fill="#E9EFE8"/>
</svg>
