<?xml version="1.0" encoding="utf-8"?>
<!-- Generator: Adobe Illustrator 23.0.3, SVG Export Plug-In . SVG Version: 6.00 Build 0)  -->
<svg version="1.1" id="Layer_1" xmlns="http://www.w3.org/2000/svg" xmlns:xlink="http://www.w3.org/1999/xlink" x="0px" y="0px"
	 viewBox="0 0 92 109" style="enable-background:new 0 0 92 109;" xml:space="preserve">
<style type="text/css">
	.st0{fill:#F55E21;}
	.st1{fill:#FFFFFF;}
</style>
<path class="st0" d="M60,0H0v49v38v22h92V87V49V22L60,0z M88,105H4V87h84V105z M4,49V4h54.8L88,24.1V49H4z"/>
<path class="st1" d="M30.2,55.8h-6.7V81h3.6v-8.9h3c4.9,0,7.7-2.9,7.7-8.2C37.9,58.8,35.1,55.8,30.2,55.8z M30.1,68.7h-3v-9.4h3
	c2.7,0,4.1,1.6,4.1,4.7C34.2,67.2,32.9,68.7,30.1,68.7z M42.8,81h6.3c4.9,0,7.7-2.9,7.7-7.9v-9.4c0-5-2.9-7.8-7.8-7.8h-6.3V81z
	 M46.5,77.5V59.3h2.7c2.6,0,4.1,1.5,4.1,4.5V73c0,3-1.5,4.5-4.1,4.5H46.5z M74.9,59.2v-3.4H63V81h3.6V70.1h7.6v-3.3h-7.6v-7.5H74.9z
	"/>
</svg>
