<svg width="516" height="116" viewBox="0 0 516 116" fill="none" xmlns="http://www.w3.org/2000/svg">
<path fill-rule="evenodd" clip-rule="evenodd" d="M61.7078 40.8672H52.5805V53.5919H39.6816L39.6816 62.5958H52.5805V75.3197H61.7078V62.5958H74.6061V53.5919H61.7078V40.8672Z" fill="#434343"/>
<path fill-rule="evenodd" clip-rule="evenodd" d="M110.939 57.9429C110.939 87.2118 87.2117 110.939 57.9429 110.939C28.6741 110.939 4.94698 87.2118 4.94698 57.9429C4.94698 28.6741 28.6741 4.94698 57.9429 4.94698C87.2117 4.94698 110.939 28.6741 110.939 57.9429ZM115.886 57.9429C115.886 89.9439 89.9439 115.886 57.9429 115.886C25.9419 115.886 0 89.9439 0 57.9429C0 25.9419 25.9419 0 57.9429 0C89.9439 0 115.886 25.9419 115.886 57.9429ZM24.3398 95.166C23.3255 94.2487 23.3279 92.6748 24.2949 91.7078C25.2597 90.743 26.8199 90.7478 27.8368 91.6576C45.5774 107.53 72.842 106.946 89.882 89.9062C107.527 72.2617 107.527 43.6543 89.882 26.0098C72.8244 8.95215 45.5211 8.38478 27.7818 24.3076C26.7653 25.2201 25.2029 25.2263 24.2369 24.2604C23.271 23.2944 23.2675 21.7228 24.2792 20.8048C43.955 2.95287 74.3902 3.52183 93.38 22.5117C112.956 42.0882 112.956 73.8278 93.38 93.4043C74.4096 112.375 44.0173 112.962 24.3398 95.166ZM19.2774 68.2935C17.9579 68.647 17.1682 70.0076 17.5969 71.3047C24.6061 92.5141 47.0446 104.815 68.8955 98.96C91.5485 92.8902 104.992 69.6057 98.9219 46.9527C92.8521 24.2997 69.5676 10.8564 46.9146 16.9263C46.2758 17.0975 45.9077 17.7582 46.0789 18.3971L46.7448 20.8823C46.913 21.5103 47.567 21.873 48.195 21.7047C68.2089 16.342 88.7808 28.2191 94.1435 48.2331C99.5062 68.247 87.6291 88.8189 67.6151 94.1816C48.4041 99.3292 28.6791 88.5924 22.3844 70.0222C21.9459 68.7284 20.5969 67.9399 19.2774 68.2935ZM55.1406 23.6352C56.5129 23.5227 57.6402 24.6441 57.6402 26.021C57.6402 27.3769 56.5455 28.4696 55.1955 28.5967C40.2318 30.0048 28.5227 42.602 28.5227 57.9341C28.5227 74.2089 41.7161 87.4023 57.991 87.4023C73.4256 87.4023 86.0888 75.5361 87.3552 60.4288C87.4692 59.0682 88.5655 57.958 89.9309 57.958C91.2977 57.958 92.4147 59.0703 92.3169 60.4336C91.0364 78.2737 76.1575 92.3493 57.991 92.3493C38.984 92.3493 23.5757 76.9411 23.5757 57.9341C23.5757 39.8869 37.4671 25.0842 55.1406 23.6352Z" fill="#434343"/>
<path d="M161.183 35.1658H143V73.961H148.482V40.4863H161.183V35.1658Z" fill="#434343"/>
<path d="M174.095 68.6959V56.8357H186.199V51.6815H174.095V40.4309H187.23V35.1658H168.612V73.961H187.773V68.6959H174.095Z" fill="#434343"/>
<path d="M206.387 35.1658H196.345V73.961H201.827V60.3272H206.387C213.823 60.3272 218.056 55.8381 218.056 47.6911C218.056 39.7658 213.823 35.1658 206.387 35.1658ZM206.332 55.0068H201.827V40.4863H206.332C210.457 40.4863 212.466 42.9248 212.466 47.6911C212.466 52.679 210.457 55.0068 206.332 55.0068Z" fill="#434343"/>
<path d="M236.781 74.6815C244.054 74.6815 248.397 69.7489 248.397 61.6574V47.4694C248.397 39.3778 244.054 34.4453 236.781 34.4453C229.508 34.4453 225.166 39.3778 225.166 47.4694V61.6574C225.166 69.7489 229.508 74.6815 236.781 74.6815ZM236.781 69.1947C232.819 69.1947 230.81 66.5345 230.81 61.6574V47.4694C230.81 42.5923 232.819 39.9321 236.781 39.9321C240.689 39.9321 242.752 42.5923 242.752 47.4694V61.6574C242.752 66.5345 240.689 69.1947 236.781 69.1947Z" fill="#434343"/>
<path d="M281.795 35.1658L275.39 50.9056C274.522 53.1224 273.219 56.8357 272.622 58.6092H272.405C271.808 56.8357 270.505 53.1224 269.637 50.9056L263.232 35.1658H257.641V73.961H263.015V58.8309C262.906 54.3971 262.743 50.3513 262.581 46.3056L262.798 46.1947C263.883 49.2983 265.186 52.8453 266.489 56.3923L269.8 65.2043H275.227L278.538 56.3923C279.841 52.8453 281.144 49.2983 282.229 46.1947L282.446 46.3056C282.229 50.3513 282.121 54.3971 282.012 58.8309V73.961H287.386V35.1658H281.795Z" fill="#434343"/>
<path d="M303.206 68.6959V56.8357H315.31V51.6815H303.206V40.4309H316.342V35.1658H297.724V73.961H316.885V68.6959H303.206Z" fill="#434343"/>
<path d="M347.44 68.6959V35.1658H329.148L328.497 53.8983C328.28 59.9947 326.977 65.814 324.209 68.6959H321.983V80.4453H327.357V73.961H345.431V80.4453H350.805V68.6959H347.44ZM342.012 68.6959H330.776C332.567 65.426 333.544 60.9369 333.762 55.4501L334.304 40.4309H342.012V68.6959Z" fill="#434343"/>
<path d="M358.331 73.961H363.868L373.041 52.7345C373.963 50.573 375.049 47.5803 375.755 45.5851L375.917 45.6959C375.646 48.9104 375.429 54.12 375.429 57.0574V73.961H380.802V35.1658H375.212L365.985 56.5586C364.953 58.8309 363.976 61.5465 363.271 63.4309L363.108 63.32C363.488 59.9393 363.705 54.8959 363.705 52.1248V35.1658H358.331V73.961Z" fill="#434343"/>
<path d="M410.694 80.4453H416.068V68.6405H412.594V35.1658H407.112V68.6405H396.582V35.1658H391.1V73.961H410.694V80.4453Z" fill="#434343"/>
<path d="M423.603 73.961H429.139L438.312 52.7345C439.235 50.573 440.32 47.5803 441.026 45.5851L441.189 45.6959C440.918 48.9104 440.7 54.12 440.7 57.0574V73.961H446.074V35.1658H440.483L431.256 56.5586C430.225 58.8309 429.248 61.5465 428.542 63.4309L428.379 63.32C428.759 59.9393 428.976 54.8959 428.976 52.1248V35.1658H423.603V73.961Z" fill="#434343"/>
<path d="M472.6 35.1658V51.6815H461.853V35.1658H456.371V73.961H461.853V56.9465H472.6V73.961H478.082V35.1658H472.6Z" fill="#434343"/>
<path d="M504.301 73.961H510L500.447 35.1658H494.531L484.978 73.961H490.731L492.468 66.1465H502.51L504.301 73.961ZM493.662 60.9369L495.996 50.5176C496.593 47.9682 497.136 44.255 497.407 42.2043H497.57C497.842 44.255 498.439 47.9682 498.982 50.5176L501.37 60.9369H493.662Z" fill="#434343"/>
<path d="M148.857 95.4453H151.069L147.045 90.1593L151.252 85.5768H148.987L145.257 89.6341H144.761V85.5768H142.973V95.4453H144.761V91.1327H145.59L148.857 95.4453ZM152.631 95.4453H153.171C154.761 95.4453 155.479 94.3274 155.595 91.8603L155.71 89.4751H157.835V95.4453H159.522V88.044H154.125L153.995 91.3206C153.913 93.3974 153.643 94.0094 152.877 94.0094H152.622L152.631 95.4453ZM163.638 93.0842V88.044H161.957V95.4453H163.754L166.708 90.4002V95.4453H168.394V88.044H166.602L163.638 93.0842ZM172.546 88.044H170.864V95.4453H172.546V92.453H175.413V95.4453H177.09V88.044H175.413V91.0218H172.546V88.044ZM181.215 93.0842V88.044H179.533V95.4453H181.33L184.284 90.4002V95.4453H185.971V88.044H184.178L181.215 93.0842ZM188.44 95.4453H190.185V92.6553H191.038L193.066 95.4453H195.177L192.406 91.6772L195.148 88.044H193.047L190.821 91.0315H190.185V88.044H188.44V95.4453ZM198.974 95.5947C200.135 95.5947 200.829 95.0502 201.147 94.4286H201.205V95.4453H202.882V90.4918C202.882 88.5354 201.287 87.9476 199.875 87.9476C198.319 87.9476 197.124 88.6415 196.738 89.9907L198.367 90.222C198.54 89.716 199.032 89.2823 199.885 89.2823C200.694 89.2823 201.138 89.6967 201.138 90.4243V90.4532C201.138 90.9544 200.612 90.9785 199.307 91.1182C197.871 91.2724 196.497 91.7013 196.497 93.3685C196.497 94.8237 197.562 95.5947 198.974 95.5947ZM199.427 94.3129C198.699 94.3129 198.179 93.9805 198.179 93.3396C198.179 92.6698 198.762 92.3903 199.543 92.2795C200 92.2169 200.916 92.1012 201.142 91.9181V92.7903C201.142 93.6142 200.477 94.3129 199.427 94.3129ZM209.359 95.4453H211.026V89.4751H213.927V95.4453H215.608V88.044H209.359V95.4453ZM220.21 95.5947C221.372 95.5947 222.066 95.0502 222.384 94.4286H222.441V95.4453H224.118V90.4918C224.118 88.5354 222.523 87.9476 221.111 87.9476C219.555 87.9476 218.36 88.6415 217.975 89.9907L219.603 90.222C219.777 89.716 220.268 89.2823 221.121 89.2823C221.931 89.2823 222.374 89.6967 222.374 90.4243V90.4532C222.374 90.9544 221.849 90.9785 220.543 91.1182C219.107 91.2724 217.734 91.7013 217.734 93.3685C217.734 94.8237 218.799 95.5947 220.21 95.5947ZM220.663 94.3129C219.936 94.3129 219.415 93.9805 219.415 93.3396C219.415 92.6698 219.998 92.3903 220.779 92.2795C221.237 92.2169 222.152 92.1012 222.379 91.9181V92.7903C222.379 93.6142 221.714 94.3129 220.663 94.3129ZM225.722 89.4751H228.117V95.4453H229.803V89.4751H232.198V88.044H225.722V89.4751ZM234.265 98.2208H236.01V94.2792H236.082C236.357 94.8189 236.93 95.5754 238.202 95.5754C239.947 95.5754 241.252 94.1925 241.252 91.7543C241.252 89.2871 239.908 87.9476 238.197 87.9476C236.892 87.9476 236.347 88.733 236.082 89.2679H235.981V88.044H234.265V98.2208ZM235.976 91.7446C235.976 90.3087 236.593 89.3787 237.716 89.3787C238.877 89.3787 239.474 90.3665 239.474 91.7446C239.474 93.1324 238.867 94.1443 237.716 94.1443C236.603 94.1443 235.976 93.1806 235.976 91.7446ZM246.653 95.5899C248.821 95.5899 250.2 94.0624 250.2 91.7735C250.2 89.4799 248.821 87.9476 246.653 87.9476C244.485 87.9476 243.107 89.4799 243.107 91.7735C243.107 94.0624 244.485 95.5899 246.653 95.5899ZM246.663 94.1925C245.463 94.1925 244.875 93.1227 244.875 91.7687C244.875 90.4147 245.463 89.3305 246.663 89.3305C247.843 89.3305 248.431 90.4147 248.431 91.7687C248.431 93.1227 247.843 94.1925 246.663 94.1925ZM254.04 88.044H252.359V95.4453H254.04V92.453H256.907V95.4453H258.584V88.044H256.907V91.0218H254.04V88.044ZM263.157 95.5947C264.319 95.5947 265.012 95.0502 265.33 94.4286H265.388V95.4453H267.065V90.4918C267.065 88.5354 265.47 87.9476 264.058 87.9476C262.502 87.9476 261.307 88.6415 260.921 89.9907L262.55 90.222C262.724 89.716 263.215 89.2823 264.068 89.2823C264.878 89.2823 265.321 89.6967 265.321 90.4243V90.4532C265.321 90.9544 264.796 90.9785 263.49 91.1182C262.054 91.2724 260.681 91.7013 260.681 93.3685C260.681 94.8237 261.745 95.5947 263.157 95.5947ZM263.61 94.3129C262.883 94.3129 262.362 93.9805 262.362 93.3396C262.362 92.6698 262.945 92.3903 263.726 92.2795C264.184 92.2169 265.099 92.1012 265.326 91.9181V92.7903C265.326 93.6142 264.661 94.3129 263.61 94.3129ZM269.016 95.4453H271.073L273.189 92.4578H273.574V95.4453H275.318V92.4578H275.704L277.81 95.4453H279.867L277.15 91.6242L279.843 88.044H277.829L275.723 91.0267H275.318V88.044H273.574V91.0267H273.16L271.054 88.044H269.04L271.748 91.6242L269.016 95.4453ZM283.954 95.5947C285.115 95.5947 285.809 95.0502 286.127 94.4286H286.185V95.4453H287.861V90.4918C287.861 88.5354 286.267 87.9476 284.855 87.9476C283.298 87.9476 282.103 88.6415 281.718 89.9907L283.346 90.222C283.52 89.716 284.011 89.2823 284.864 89.2823C285.674 89.2823 286.117 89.6967 286.117 90.4243V90.4532C286.117 90.9544 285.592 90.9785 284.286 91.1182C282.85 91.2724 281.477 91.7013 281.477 93.3685C281.477 94.8237 282.542 95.5947 283.954 95.5947ZM284.407 94.3129C283.679 94.3129 283.159 93.9805 283.159 93.3396C283.159 92.6698 283.742 92.3903 284.522 92.2795C284.98 92.2169 285.896 92.1012 286.122 91.9181V92.7903C286.122 93.6142 285.457 94.3129 284.407 94.3129ZM296.02 93.0842V88.044H294.338V95.4453H296.136L299.089 90.4002V95.4453H300.776V88.044H298.983L296.02 93.0842ZM312.186 88.044H307.29V95.4453H308.996V89.4751H312.186V88.044ZM317.234 95.5899C318.959 95.5899 320.145 94.7466 320.453 93.4601L318.825 93.2769C318.588 93.9034 318.01 94.231 317.259 94.231C316.131 94.231 315.384 93.489 315.37 92.2217H320.526V91.6868C320.526 89.0896 318.964 87.9476 317.143 87.9476C315.023 87.9476 313.64 89.504 313.64 91.788C313.64 94.1106 315.003 95.5899 317.234 95.5899ZM315.374 91.0459C315.427 90.1015 316.126 89.3064 317.167 89.3064C318.169 89.3064 318.844 90.0388 318.853 91.0459H315.374ZM322.68 98.2208H324.424V94.2792H324.496C324.771 94.8189 325.344 95.5754 326.616 95.5754C328.361 95.5754 329.667 94.1925 329.667 91.7543C329.667 89.2871 328.322 87.9476 326.612 87.9476C325.306 87.9476 324.761 88.733 324.496 89.2679H324.395V88.044H322.68V98.2208ZM324.39 91.7446C324.39 90.3087 325.007 89.3787 326.13 89.3787C327.291 89.3787 327.889 90.3665 327.889 91.7446C327.889 93.1324 327.281 94.1443 326.13 94.1443C325.017 94.1443 324.39 93.1806 324.39 91.7446ZM333.521 93.0842V88.044H331.839V95.4453H333.636L336.59 90.4002V95.4453H338.277V88.044H336.484L333.521 93.0842ZM342.876 95.5947C344.037 95.5947 344.731 95.0502 345.049 94.4286H345.107V95.4453H346.784V90.4918C346.784 88.5354 345.189 87.9476 343.777 87.9476C342.221 87.9476 341.026 88.6415 340.64 89.9907L342.269 90.222C342.442 89.716 342.934 89.2823 343.787 89.2823C344.596 89.2823 345.04 89.6967 345.04 90.4243V90.4532C345.04 90.9544 344.514 90.9785 343.209 91.1182C341.773 91.2724 340.399 91.7013 340.399 93.3685C340.399 94.8237 341.464 95.5947 342.876 95.5947ZM343.329 94.3129C342.601 94.3129 342.081 93.9805 342.081 93.3396C342.081 92.6698 342.664 92.3903 343.445 92.2795C343.902 92.2169 344.818 92.1012 345.044 91.9181V92.7903C345.044 93.6142 344.38 94.3129 343.329 94.3129ZM348.388 89.4751H350.782V95.4453H352.469V89.4751H354.864V88.044H348.388V89.4751ZM356.931 98.2208H358.676V94.2792H358.748C359.023 94.8189 359.596 95.5754 360.868 95.5754C362.612 95.5754 363.918 94.1925 363.918 91.7543C363.918 89.2871 362.574 87.9476 360.863 87.9476C359.557 87.9476 359.013 88.733 358.748 89.2679H358.647V88.044H356.931V98.2208ZM358.642 91.7446C358.642 90.3087 359.259 89.3787 360.381 89.3787C361.543 89.3787 362.14 90.3665 362.14 91.7446C362.14 93.1324 361.533 94.1443 360.381 94.1443C359.268 94.1443 358.642 93.1806 358.642 91.7446ZM367.772 93.0842V88.044H366.09V95.4453H367.888L370.842 90.4002V95.4453H372.528V88.044H370.736L367.772 93.0842ZM376.68 93.0842V88.044H374.998V95.4453H376.795L379.749 90.4002V95.4453H381.435V88.044H379.643L376.68 93.0842ZM394.339 94.3852L392.508 91.4266L394.339 88.468H392.768L390.821 91.3591V91.4941L392.768 94.3852H394.339ZM391.4 94.3852L389.569 91.4266L391.4 88.468H389.829L387.882 91.3591V91.4941L389.829 94.3852H391.4ZM403.161 85.5768H396.815V95.4453H398.602V87.0754H403.161V85.5768ZM407.477 95.5899C409.202 95.5899 410.388 94.7466 410.696 93.4601L409.067 93.2769C408.831 93.9034 408.253 94.231 407.501 94.231C406.374 94.231 405.627 93.489 405.613 92.2217H410.768V91.6868C410.768 89.0896 409.207 87.9476 407.386 87.9476C405.266 87.9476 403.883 89.504 403.883 91.788C403.883 94.1106 405.246 95.5899 407.477 95.5899ZM405.617 91.0459C405.67 90.1015 406.369 89.3064 407.41 89.3064C408.412 89.3064 409.087 90.0388 409.096 91.0459H405.617ZM412.923 98.2208H414.667V94.2792H414.739C415.014 94.8189 415.587 95.5754 416.859 95.5754C418.604 95.5754 419.91 94.1925 419.91 91.7543C419.91 89.2871 418.565 87.9476 416.855 87.9476C415.549 87.9476 415.004 88.733 414.739 89.2679H414.638V88.044H412.923V98.2208ZM414.633 91.7446C414.633 90.3087 415.25 89.3787 416.373 89.3787C417.534 89.3787 418.131 90.3665 418.131 91.7446C418.131 93.1324 417.524 94.1443 416.373 94.1443C415.26 94.1443 414.633 93.1806 414.633 91.7446ZM425.31 95.5899C427.479 95.5899 428.857 94.0624 428.857 91.7735C428.857 89.4799 427.479 87.9476 425.31 87.9476C423.142 87.9476 421.764 89.4799 421.764 91.7735C421.764 94.0624 423.142 95.5899 425.31 95.5899ZM425.32 94.1925C424.12 94.1925 423.532 93.1227 423.532 91.7687C423.532 90.4147 424.12 89.3305 425.32 89.3305C426.5 89.3305 427.088 90.4147 427.088 91.7687C427.088 93.1227 426.5 94.1925 425.32 94.1925ZM435.275 93.4167L433.136 88.044H431.016V95.4453H432.697V90.4581L434.668 95.4453H435.887L437.926 90.4051V95.4453H439.593V88.044H437.473L435.275 93.4167ZM445.307 95.5899C447.032 95.5899 448.217 94.7466 448.525 93.4601L446.897 93.2769C446.661 93.9034 446.082 94.231 445.331 94.231C444.203 94.231 443.456 93.489 443.442 92.2217H448.598V91.6868C448.598 89.0896 447.037 87.9476 445.215 87.9476C443.095 87.9476 441.712 89.504 441.712 91.788C441.712 94.1106 443.076 95.5899 445.307 95.5899ZM443.447 91.0459C443.5 90.1015 444.198 89.3064 445.239 89.3064C446.241 89.3064 446.916 90.0388 446.926 91.0459H443.447ZM450.097 97.5944H451.812V95.4453H456.655V97.5944H458.341V94.0094H457.194V88.044H451.846L451.634 90.6364C451.494 92.294 451.311 93.5227 450.684 94.0094H450.097V97.5944ZM452.477 94.0094C452.944 93.3203 453.118 92.2024 453.243 90.6364L453.359 89.451H455.527V94.0094H452.477ZM462.004 93.0842V88.044H460.322V95.4453H462.119L465.073 90.4002V95.4453H466.76V88.044H464.967L462.004 93.0842ZM475.479 88.044H473.812V94.0142H470.911V88.044H469.229V95.4453H475.479V97.8257H477.185V94.1443H475.479V88.044ZM480.918 93.0842V88.044H479.237V95.4453H481.034L483.988 90.4002V95.4453H485.674V88.044H483.882L480.918 93.0842ZM489.826 88.044H488.144V95.4453H489.826V92.453H492.693V95.4453H494.37V88.044H492.693V91.0218H489.826V88.044ZM498.943 95.5947C500.104 95.5947 500.798 95.0502 501.116 94.4286H501.174V95.4453H502.851V90.4918C502.851 88.5354 501.256 87.9476 499.844 87.9476C498.287 87.9476 497.092 88.6415 496.707 89.9907L498.336 90.222C498.509 89.716 499 89.2823 499.853 89.2823C500.663 89.2823 501.106 89.6967 501.106 90.4243V90.4532C501.106 90.9544 500.581 90.9785 499.275 91.1182C497.839 91.2724 496.466 91.7013 496.466 93.3685C496.466 94.8237 497.531 95.5947 498.943 95.5947ZM499.396 94.3129C498.668 94.3129 498.148 93.9805 498.148 93.3396C498.148 92.6698 498.731 92.3903 499.511 92.2795C499.969 92.2169 500.885 92.1012 501.111 91.9181V92.7903C501.111 93.6142 500.446 94.3129 499.396 94.3129ZM508.116 94.3852H509.687L511.634 91.4941V91.3591L509.687 88.468H508.116L509.947 91.4266L508.116 94.3852ZM505.148 94.3852H506.719L508.666 91.4941V91.3591L506.719 88.468H505.148L506.979 91.4266L505.148 94.3852Z" fill="#3C3C51"/>
</svg>
