<?xml version="1.0" encoding="utf-8"?>
<!-- Generator: Adobe Illustrator 23.0.3, SVG Export Plug-In . SVG Version: 6.00 Build 0)  -->
<svg version="1.1" id="Layer_1" xmlns="http://www.w3.org/2000/svg" xmlns:xlink="http://www.w3.org/1999/xlink" x="0px" y="0px"
	 viewBox="0 0 516 116" style="enable-background:new 0 0 516 116;" xml:space="preserve">
<style type="text/css">
	.st0{fill:#FFFFFF;}
	.st1{fill-rule:evenodd;clip-rule:evenodd;fill:#A4BA04;}
	.st2{fill:#A4BA04;}
</style>
<g>
	<circle class="st0" cx="57.4" cy="57.8" r="56.2"/>
	<path class="st1" d="M61.7,40.9h-9.1v12.7H39.7v9h12.9v12.7h9.1V62.6h12.9v-9H61.7V40.9z"/>
	<path class="st1" d="M110.9,57.9c0,29.3-23.7,53-53,53s-53-23.7-53-53s23.7-53,53-53S110.9,28.7,110.9,57.9z M115.9,57.9
		c0,32-25.9,57.9-57.9,57.9S0,89.9,0,57.9S25.9,0,57.9,0S115.9,25.9,115.9,57.9z M24.3,95.2c-1-0.9-1-2.5,0-3.5c1-1,2.5-1,3.5-0.1
		c17.7,15.9,45,15.3,62-1.8c17.6-17.6,17.6-46.3,0-63.9C72.8,9,45.5,8.4,27.8,24.3c-1,0.9-2.6,0.9-3.5,0c-1-1-1-2.5,0-3.5
		C44,3,74.4,3.5,93.4,22.5c19.6,19.6,19.6,51.3,0,70.9C74.4,112.4,44,113,24.3,95.2z M19.3,68.3c-1.3,0.4-2.1,1.7-1.7,3
		c7,21.2,29.4,33.5,51.3,27.7c22.7-6.1,36.1-29.4,30-52c-6.1-22.7-29.4-36.1-52-30c-0.6,0.2-1,0.8-0.8,1.5l0.7,2.5
		c0.2,0.6,0.8,1,1.5,0.8c20-5.4,40.6,6.5,45.9,26.5c5.4,20-6.5,40.6-26.5,45.9C48.4,99.3,28.7,88.6,22.4,70
		C21.9,68.7,20.6,67.9,19.3,68.3z M55.1,23.6c1.4-0.1,2.5,1,2.5,2.4c0,1.4-1.1,2.4-2.4,2.6c-15,1.4-26.7,14-26.7,29.3
		c0,16.3,13.2,29.5,29.5,29.5c15.4,0,28.1-11.9,29.4-27c0.1-1.4,1.2-2.5,2.6-2.5c1.4,0,2.5,1.1,2.4,2.5C91,78.3,76.2,92.3,58,92.3
		c-19,0-34.4-15.4-34.4-34.4C23.6,39.9,37.5,25.1,55.1,23.6z"/>
	<path class="st2" d="M161.2,35.2H143V74h5.5V40.5h12.7V35.2z"/>
	<path class="st2" d="M174.1,68.7V56.8h12.1v-5.2h-12.1V40.4h13.1v-5.3h-18.6V74h19.2v-5.3H174.1z"/>
	<path class="st2" d="M206.4,35.2h-10V74h5.5V60.3h4.6c7.4,0,11.7-4.5,11.7-12.6C218.1,39.8,213.8,35.2,206.4,35.2z M206.3,55h-4.5
		V40.5h4.5c4.1,0,6.1,2.4,6.1,7.2C212.5,52.7,210.5,55,206.3,55z"/>
	<path class="st2" d="M236.8,74.7c7.3,0,11.6-4.9,11.6-13V47.5c0-8.1-4.3-13-11.6-13c-7.3,0-11.6,4.9-11.6,13v14.2
		C225.2,69.7,229.5,74.7,236.8,74.7z M236.8,69.2c-4,0-6-2.7-6-7.5V47.5c0-4.9,2-7.5,6-7.5c3.9,0,6,2.7,6,7.5v14.2
		C242.8,66.5,240.7,69.2,236.8,69.2z"/>
	<path class="st2" d="M281.8,35.2l-6.4,15.7c-0.9,2.2-2.2,5.9-2.8,7.7h-0.2c-0.6-1.8-1.9-5.5-2.8-7.7l-6.4-15.7h-5.6V74h5.4V58.8
		c-0.1-4.4-0.3-8.5-0.4-12.5l0.2-0.1c1.1,3.1,2.4,6.7,3.7,10.2l3.3,8.8h5.4l3.3-8.8c1.3-3.5,2.6-7.1,3.7-10.2l0.2,0.1
		c-0.2,4-0.3,8.1-0.4,12.5V74h5.4V35.2H281.8z"/>
	<path class="st2" d="M303.2,68.7V56.8h12.1v-5.2h-12.1V40.4h13.1v-5.3h-18.6V74h19.2v-5.3H303.2z"/>
	<path class="st2" d="M347.4,68.7V35.2h-18.3l-0.7,18.7c-0.2,6.1-1.5,11.9-4.3,14.8H322v11.7h5.4V74h18.1v6.5h5.4V68.7H347.4z
		 M342,68.7h-11.2c1.8-3.3,2.8-7.8,3-13.2l0.5-15h7.7V68.7z"/>
	<path class="st2" d="M358.3,74h5.5l9.2-21.2c0.9-2.2,2-5.2,2.7-7.1l0.2,0.1c-0.3,3.2-0.5,8.4-0.5,11.4V74h5.4V35.2h-5.6L366,56.6
		c-1,2.3-2,5-2.7,6.9l-0.2-0.1c0.4-3.4,0.6-8.4,0.6-11.2v-17h-5.4V74z"/>
	<path class="st2" d="M410.7,80.4h5.4V68.6h-3.5V35.2h-5.5v33.5h-10.5V35.2h-5.5V74h19.6V80.4z"/>
	<path class="st2" d="M423.6,74h5.5l9.2-21.2c0.9-2.2,2-5.2,2.7-7.1l0.2,0.1c-0.3,3.2-0.5,8.4-0.5,11.4V74h5.4V35.2h-5.6l-9.2,21.4
		c-1,2.3-2,5-2.7,6.9l-0.2-0.1c0.4-3.4,0.6-8.4,0.6-11.2v-17h-5.4V74z"/>
	<path class="st2" d="M472.6,35.2v16.5h-10.7V35.2h-5.5V74h5.5v-17h10.7v17h5.5V35.2H472.6z"/>
	<path class="st2" d="M504.3,74h5.7l-9.6-38.8h-5.9L485,74h5.8l1.7-7.8h10L504.3,74z M493.7,60.9l2.3-10.4c0.6-2.5,1.1-6.3,1.4-8.3
		h0.2c0.3,2.1,0.9,5.8,1.4,8.3l2.4,10.4H493.7z"/>
	<path class="st2" d="M148.9,95.4h2.2l-4-5.3l4.2-4.6H149l-3.7,4.1h-0.5v-4.1H143v9.9h1.8v-4.3h0.8L148.9,95.4z M152.6,95.4h0.5
		c1.6,0,2.3-1.1,2.4-3.6l0.1-2.4h2.1v6h1.7V88h-5.4l-0.1,3.3c-0.1,2.1-0.4,2.7-1.1,2.7h-0.3L152.6,95.4z M163.6,93.1v-5H162v7.4h1.8
		l3-5v5h1.7V88h-1.8L163.6,93.1z M172.5,88h-1.7v7.4h1.7v-3h2.9v3h1.7V88h-1.7v3h-2.9V88z M181.2,93.1v-5h-1.7v7.4h1.8l3-5v5h1.7V88
		h-1.8L181.2,93.1z M188.4,95.4h1.7v-2.8h0.9l2,2.8h2.1l-2.8-3.8l2.7-3.6H193l-2.2,3h-0.6v-3h-1.7V95.4z M199,95.6
		c1.2,0,1.9-0.5,2.2-1.2h0.1v1h1.7v-5c0-2-1.6-2.5-3-2.5c-1.6,0-2.8,0.7-3.1,2l1.6,0.2c0.2-0.5,0.7-0.9,1.5-0.9
		c0.8,0,1.3,0.4,1.3,1.1v0c0,0.5-0.5,0.5-1.8,0.7c-1.4,0.2-2.8,0.6-2.8,2.3C196.5,94.8,197.6,95.6,199,95.6z M199.4,94.3
		c-0.7,0-1.2-0.3-1.2-1c0-0.7,0.6-0.9,1.4-1.1c0.5-0.1,1.4-0.2,1.6-0.4v0.9C201.1,93.6,200.5,94.3,199.4,94.3z M209.4,95.4h1.7v-6
		h2.9v6h1.7V88h-6.2V95.4z M220.2,95.6c1.2,0,1.9-0.5,2.2-1.2h0.1v1h1.7v-5c0-2-1.6-2.5-3-2.5c-1.6,0-2.8,0.7-3.1,2l1.6,0.2
		c0.2-0.5,0.7-0.9,1.5-0.9c0.8,0,1.3,0.4,1.3,1.1v0c0,0.5-0.5,0.5-1.8,0.7c-1.4,0.2-2.8,0.6-2.8,2.3
		C217.7,94.8,218.8,95.6,220.2,95.6z M220.7,94.3c-0.7,0-1.2-0.3-1.2-1c0-0.7,0.6-0.9,1.4-1.1c0.5-0.1,1.4-0.2,1.6-0.4v0.9
		C222.4,93.6,221.7,94.3,220.7,94.3z M225.7,89.5h2.4v6h1.7v-6h2.4V88h-6.5V89.5z M234.3,98.2h1.7v-3.9h0.1c0.3,0.5,0.8,1.3,2.1,1.3
		c1.7,0,3.1-1.4,3.1-3.8c0-2.5-1.3-3.8-3.1-3.8c-1.3,0-1.9,0.8-2.1,1.3H236V88h-1.7V98.2z M236,91.7c0-1.4,0.6-2.4,1.7-2.4
		c1.2,0,1.8,1,1.8,2.4c0,1.4-0.6,2.4-1.8,2.4C236.6,94.1,236,93.2,236,91.7z M246.7,95.6c2.2,0,3.5-1.5,3.5-3.8
		c0-2.3-1.4-3.8-3.5-3.8s-3.5,1.5-3.5,3.8C243.1,94.1,244.5,95.6,246.7,95.6z M246.7,94.2c-1.2,0-1.8-1.1-1.8-2.4
		c0-1.4,0.6-2.4,1.8-2.4c1.2,0,1.8,1.1,1.8,2.4C248.4,93.1,247.8,94.2,246.7,94.2z M254,88h-1.7v7.4h1.7v-3h2.9v3h1.7V88h-1.7v3H254
		V88z M263.2,95.6c1.2,0,1.9-0.5,2.2-1.2h0.1v1h1.7v-5c0-2-1.6-2.5-3-2.5c-1.6,0-2.8,0.7-3.1,2l1.6,0.2c0.2-0.5,0.7-0.9,1.5-0.9
		c0.8,0,1.3,0.4,1.3,1.1v0c0,0.5-0.5,0.5-1.8,0.7c-1.4,0.2-2.8,0.6-2.8,2.3C260.7,94.8,261.7,95.6,263.2,95.6z M263.6,94.3
		c-0.7,0-1.2-0.3-1.2-1c0-0.7,0.6-0.9,1.4-1.1c0.5-0.1,1.4-0.2,1.6-0.4v0.9C265.3,93.6,264.7,94.3,263.6,94.3z M269,95.4h2.1l2.1-3
		h0.4v3h1.7v-3h0.4l2.1,3h2.1l-2.7-3.8l2.7-3.6h-2l-2.1,3h-0.4v-3h-1.7v3h-0.4l-2.1-3h-2l2.7,3.6L269,95.4z M284,95.6
		c1.2,0,1.9-0.5,2.2-1.2h0.1v1h1.7v-5c0-2-1.6-2.5-3-2.5c-1.6,0-2.8,0.7-3.1,2l1.6,0.2c0.2-0.5,0.7-0.9,1.5-0.9
		c0.8,0,1.3,0.4,1.3,1.1v0c0,0.5-0.5,0.5-1.8,0.7c-1.4,0.2-2.8,0.6-2.8,2.3C281.5,94.8,282.5,95.6,284,95.6z M284.4,94.3
		c-0.7,0-1.2-0.3-1.2-1c0-0.7,0.6-0.9,1.4-1.1c0.5-0.1,1.4-0.2,1.6-0.4v0.9C286.1,93.6,285.5,94.3,284.4,94.3z M296,93.1v-5h-1.7
		v7.4h1.8l3-5v5h1.7V88H299L296,93.1z M312.2,88h-4.9v7.4h1.7v-6h3.2V88z M317.2,95.6c1.7,0,2.9-0.8,3.2-2.1l-1.6-0.2
		c-0.2,0.6-0.8,1-1.6,1c-1.1,0-1.9-0.7-1.9-2h5.2v-0.5c0-2.6-1.6-3.7-3.4-3.7c-2.1,0-3.5,1.6-3.5,3.8
		C313.6,94.1,315,95.6,317.2,95.6z M315.4,91c0.1-0.9,0.8-1.7,1.8-1.7c1,0,1.7,0.7,1.7,1.7H315.4z M322.7,98.2h1.7v-3.9h0.1
		c0.3,0.5,0.8,1.3,2.1,1.3c1.7,0,3.1-1.4,3.1-3.8c0-2.5-1.3-3.8-3.1-3.8c-1.3,0-1.9,0.8-2.1,1.3h-0.1V88h-1.7V98.2z M324.4,91.7
		c0-1.4,0.6-2.4,1.7-2.4c1.2,0,1.8,1,1.8,2.4c0,1.4-0.6,2.4-1.8,2.4C325,94.1,324.4,93.2,324.4,91.7z M333.5,93.1v-5h-1.7v7.4h1.8
		l3-5v5h1.7V88h-1.8L333.5,93.1z M342.9,95.6c1.2,0,1.9-0.5,2.2-1.2h0.1v1h1.7v-5c0-2-1.6-2.5-3-2.5c-1.6,0-2.8,0.7-3.1,2l1.6,0.2
		c0.2-0.5,0.7-0.9,1.5-0.9c0.8,0,1.3,0.4,1.3,1.1v0c0,0.5-0.5,0.5-1.8,0.7c-1.4,0.2-2.8,0.6-2.8,2.3
		C340.4,94.8,341.5,95.6,342.9,95.6z M343.3,94.3c-0.7,0-1.2-0.3-1.2-1c0-0.7,0.6-0.9,1.4-1.1c0.5-0.1,1.4-0.2,1.6-0.4v0.9
		C345,93.6,344.4,94.3,343.3,94.3z M348.4,89.5h2.4v6h1.7v-6h2.4V88h-6.5V89.5z M356.9,98.2h1.7v-3.9h0.1c0.3,0.5,0.8,1.3,2.1,1.3
		c1.7,0,3-1.4,3-3.8c0-2.5-1.3-3.8-3.1-3.8c-1.3,0-1.9,0.8-2.1,1.3h-0.1V88h-1.7V98.2z M358.6,91.7c0-1.4,0.6-2.4,1.7-2.4
		c1.2,0,1.8,1,1.8,2.4c0,1.4-0.6,2.4-1.8,2.4C359.3,94.1,358.6,93.2,358.6,91.7z M367.8,93.1v-5h-1.7v7.4h1.8l3-5v5h1.7V88h-1.8
		L367.8,93.1z M376.7,93.1v-5H375v7.4h1.8l3-5v5h1.7V88h-1.8L376.7,93.1z M394.3,94.4l-1.8-3l1.8-3h-1.6l-1.9,2.9v0.1l1.9,2.9H394.3
		z M391.4,94.4l-1.8-3l1.8-3h-1.6l-1.9,2.9v0.1l1.9,2.9H391.4z M403.2,85.6h-6.3v9.9h1.8v-8.4h4.6V85.6z M407.5,95.6
		c1.7,0,2.9-0.8,3.2-2.1l-1.6-0.2c-0.2,0.6-0.8,1-1.6,1c-1.1,0-1.9-0.7-1.9-2h5.2v-0.5c0-2.6-1.6-3.7-3.4-3.7
		c-2.1,0-3.5,1.6-3.5,3.8C403.9,94.1,405.2,95.6,407.5,95.6z M405.6,91c0.1-0.9,0.8-1.7,1.8-1.7c1,0,1.7,0.7,1.7,1.7H405.6z
		 M412.9,98.2h1.7v-3.9h0.1c0.3,0.5,0.8,1.3,2.1,1.3c1.7,0,3.1-1.4,3.1-3.8c0-2.5-1.3-3.8-3.1-3.8c-1.3,0-1.9,0.8-2.1,1.3h-0.1V88
		h-1.7V98.2z M414.6,91.7c0-1.4,0.6-2.4,1.7-2.4c1.2,0,1.8,1,1.8,2.4c0,1.4-0.6,2.4-1.8,2.4C415.3,94.1,414.6,93.2,414.6,91.7z
		 M425.3,95.6c2.2,0,3.5-1.5,3.5-3.8c0-2.3-1.4-3.8-3.5-3.8c-2.2,0-3.5,1.5-3.5,3.8C421.8,94.1,423.1,95.6,425.3,95.6z M425.3,94.2
		c-1.2,0-1.8-1.1-1.8-2.4c0-1.4,0.6-2.4,1.8-2.4c1.2,0,1.8,1.1,1.8,2.4C427.1,93.1,426.5,94.2,425.3,94.2z M435.3,93.4l-2.1-5.4H431
		v7.4h1.7v-5l2,5h1.2l2-5v5h1.7V88h-2.1L435.3,93.4z M445.3,95.6c1.7,0,2.9-0.8,3.2-2.1l-1.6-0.2c-0.2,0.6-0.8,1-1.6,1
		c-1.1,0-1.9-0.7-1.9-2h5.2v-0.5c0-2.6-1.6-3.7-3.4-3.7c-2.1,0-3.5,1.6-3.5,3.8C441.7,94.1,443.1,95.6,445.3,95.6z M443.4,91
		c0.1-0.9,0.8-1.7,1.8-1.7c1,0,1.7,0.7,1.7,1.7H443.4z M450.1,97.6h1.7v-2.1h4.8v2.1h1.7V94h-1.1v-6h-5.3l-0.2,2.6
		c-0.1,1.7-0.3,2.9-1,3.4h-0.6V97.6z M452.5,94c0.5-0.7,0.6-1.8,0.8-3.4l0.1-1.2h2.2V94H452.5z M462,93.1v-5h-1.7v7.4h1.8l3-5v5h1.7
		V88H465L462,93.1z M475.5,88h-1.7v6h-2.9v-6h-1.7v7.4h6.3v2.4h1.7v-3.7h-1.7V88z M480.9,93.1v-5h-1.7v7.4h1.8l3-5v5h1.7V88h-1.8
		L480.9,93.1z M489.8,88h-1.7v7.4h1.7v-3h2.9v3h1.7V88h-1.7v3h-2.9V88z M498.9,95.6c1.2,0,1.9-0.5,2.2-1.2h0.1v1h1.7v-5
		c0-2-1.6-2.5-3-2.5c-1.6,0-2.8,0.7-3.1,2l1.6,0.2c0.2-0.5,0.7-0.9,1.5-0.9c0.8,0,1.3,0.4,1.3,1.1v0c0,0.5-0.5,0.5-1.8,0.7
		c-1.4,0.2-2.8,0.6-2.8,2.3C496.5,94.8,497.5,95.6,498.9,95.6z M499.4,94.3c-0.7,0-1.2-0.3-1.2-1c0-0.7,0.6-0.9,1.4-1.1
		c0.5-0.1,1.4-0.2,1.6-0.4v0.9C501.1,93.6,500.4,94.3,499.4,94.3z M508.1,94.4h1.6l1.9-2.9v-0.1l-1.9-2.9h-1.6l1.8,3L508.1,94.4z
		 M505.1,94.4h1.6l1.9-2.9v-0.1l-1.9-2.9h-1.6l1.8,3L505.1,94.4z"/>
</g>
</svg>
