<svg width="604" height="136" viewBox="0 0 604 136" fill="none" xmlns="http://www.w3.org/2000/svg">
<circle cx="67.0069" cy="68.0772" r="65.6104" fill="white"/>
<path fill-rule="evenodd" clip-rule="evenodd" d="M72.0653 48.2441H61.4059V63.1048H46.3418L46.3418 73.6202H61.4059V88.48H72.0653V73.6202H87.1288V63.1048H72.0653V48.2441Z" fill="url(#paint0_linear)"/>
<path fill-rule="evenodd" clip-rule="evenodd" d="M129.561 68.185C129.561 102.367 101.851 130.077 67.6694 130.077C33.4874 130.077 5.77739 102.367 5.77739 68.185C5.77739 34.003 33.4874 6.29302 67.6694 6.29302C101.851 6.29302 129.561 34.003 129.561 68.185ZM135.339 68.185C135.339 105.558 105.042 135.854 67.6694 135.854C30.2966 135.854 0 105.558 0 68.185C0 30.8122 30.2966 0.515625 67.6694 0.515625C105.042 0.515625 135.339 30.8122 135.339 68.185ZM28.4255 111.656C27.241 110.585 27.2438 108.747 28.3731 107.618C29.4998 106.491 31.322 106.497 32.5095 107.559C53.2281 126.096 85.0694 125.414 104.97 105.514C125.576 84.9074 125.576 51.4978 104.97 30.8915C85.0489 10.9705 53.1624 10.3079 32.4454 28.9036C31.2581 29.9693 29.4335 29.9765 28.3054 28.8484C27.1773 27.7203 27.1733 25.8848 28.3548 24.8128C51.3334 3.96417 86.8775 4.62864 109.055 26.8062C131.918 49.6688 131.918 86.7364 109.055 109.599C86.9002 131.754 51.4062 132.44 28.4255 111.656ZM22.5134 80.273C20.9723 80.6859 20.0501 82.2749 20.5507 83.7897C28.7365 108.559 54.9416 122.925 80.4605 116.087C106.916 108.999 122.616 81.8056 115.527 55.35C108.439 28.8944 81.2454 13.1944 54.7898 20.2832C54.0438 20.4831 53.6139 21.2548 53.8138 22.0009L54.5915 24.9033C54.788 25.6367 55.5518 26.0602 56.2851 25.8637C79.6587 19.6008 103.684 33.4717 109.947 56.8453C116.21 80.2188 102.339 104.244 78.9652 110.507C56.5294 116.519 33.4932 103.979 26.142 82.2919C25.6298 80.781 24.0544 79.8601 22.5134 80.273ZM64.3966 28.1182C65.9993 27.9869 67.3158 29.2965 67.3158 30.9045C67.3158 32.4881 66.0374 33.7642 64.4608 33.9126C46.9852 35.5571 33.3106 50.2689 33.3106 68.1747C33.3106 87.1815 48.7187 102.59 67.7255 102.59C85.7511 102.59 100.54 88.7314 102.019 71.0881C102.152 69.4991 103.432 68.2026 105.027 68.2026C106.623 68.2026 107.928 69.5016 107.813 71.0938C106.318 91.9286 88.9415 108.367 67.7255 108.367C45.5279 108.367 27.5332 90.3723 27.5332 68.1747C27.5332 47.098 43.7564 29.8105 64.3966 28.1182Z" fill="url(#paint1_linear)"/>
<path d="M178.473 10.6498H162.334V45.1139H167.2V15.3763H178.473V10.6498Z" fill="#DA3E0C"/>
<path d="M189.934 40.4367V29.9005H200.677V25.3217H189.934V15.3271H201.592V10.6498H185.068V45.1139H202.074V40.4367H189.934Z" fill="#DA3E0C"/>
<path d="M218.596 10.6498H209.683V45.1139H214.549V33.0023H218.596C225.196 33.0023 228.954 29.0143 228.954 21.7768C228.954 14.7363 225.196 10.6498 218.596 10.6498ZM218.548 28.2757H214.549V15.3763H218.548C222.209 15.3763 223.992 17.5426 223.992 21.7768C223.992 26.2079 222.209 28.2757 218.548 28.2757Z" fill="#DA3E0C"/>
<path d="M245.574 45.754C252.03 45.754 255.884 41.3721 255.884 34.1839V21.5799C255.884 14.3916 252.03 10.0098 245.574 10.0098C239.118 10.0098 235.264 14.3916 235.264 21.5799V34.1839C235.264 41.3721 239.118 45.754 245.574 45.754ZM245.574 40.8798C242.057 40.8798 240.275 38.5165 240.275 34.1839V21.5799C240.275 17.2472 242.057 14.884 245.574 14.884C249.043 14.884 250.874 17.2472 250.874 21.5799V34.1839C250.874 38.5165 249.043 40.8798 245.574 40.8798Z" fill="#DA3E0C"/>
<path d="M285.528 10.6498L279.843 24.6324C279.073 26.6018 277.916 29.9005 277.386 31.476H277.194C276.664 29.9005 275.508 26.6018 274.737 24.6324L269.052 10.6498H264.09V45.1139H268.859V31.6729C268.763 27.7342 268.618 24.1401 268.474 20.5459L268.666 20.4475C269.63 23.2046 270.786 26.3556 271.942 29.5066L274.881 37.3349H279.699L282.638 29.5066C283.794 26.3556 284.95 23.2046 285.914 20.4475L286.107 20.5459C285.914 24.1401 285.817 27.7342 285.721 31.6729V45.1139H290.491V10.6498H285.528Z" fill="#DA3E0C"/>
<path d="M304.533 40.4367V29.9005H315.277V25.3217H304.533V15.3271H316.192V10.6498H299.667V45.1139H316.674V40.4367H304.533Z" fill="#DA3E0C"/>
<path d="M343.795 40.4367V10.6498H327.559L326.981 27.2911C326.788 32.7068 325.632 37.8765 323.175 40.4367H321.199V50.8744H325.969V45.1139H342.012V50.8744H346.782V40.4367H343.795ZM338.977 40.4367H329.004C330.594 37.5318 331.461 33.5438 331.654 28.6696L332.136 15.3271H338.977V40.4367Z" fill="#DA3E0C"/>
<path d="M353.462 45.1139H358.376L366.518 26.2571C367.337 24.337 368.301 21.6783 368.927 19.9059L369.071 20.0044C368.831 22.86 368.638 27.488 368.638 30.0974V45.1139H373.407V10.6498H368.445L360.255 29.6543C359.34 31.6729 358.472 34.0854 357.846 35.7594L357.702 35.6609C358.039 32.6576 358.232 28.1773 358.232 25.7156V10.6498H353.462V45.1139Z" fill="#DA3E0C"/>
<path d="M399.939 50.8744H404.709V40.3874H401.625V10.6498H396.759V40.3874H387.413V10.6498H382.547V45.1139H399.939V50.8744Z" fill="#DA3E0C"/>
<path d="M411.397 45.1139H416.311L424.453 26.2571C425.272 24.337 426.236 21.6783 426.862 19.9059L427.006 20.0044C426.766 22.86 426.573 27.488 426.573 30.0974V45.1139H431.342V10.6498H426.38L418.19 29.6543C417.275 31.6729 416.407 34.0854 415.781 35.7594L415.637 35.6609C415.974 32.6576 416.167 28.1773 416.167 25.7156V10.6498H411.397V45.1139Z" fill="#DA3E0C"/>
<path d="M454.887 10.6498V25.3217H445.348V10.6498H440.482V45.1139H445.348V29.9989H454.887V45.1139H459.753V10.6498H454.887Z" fill="#DA3E0C"/>
<path d="M483.025 45.1139H488.083L479.604 10.6498H474.353L465.873 45.1139H470.98L472.522 38.1719H481.435L483.025 45.1139ZM473.582 33.5438L475.653 24.2878C476.183 22.023 476.665 18.7243 476.906 16.9026H477.051C477.291 18.7243 477.821 22.023 478.303 24.2878L480.423 33.5438H473.582Z" fill="#DA3E0C"/>
<path d="M170.075 67.9902H172.357L168.205 62.5364L172.545 57.8084H170.209L166.361 61.9945H165.849V57.8084H164.004V67.9902H165.849V63.5407H166.704L170.075 67.9902ZM173.969 67.9902H174.526C176.166 67.9902 176.907 66.8368 177.026 64.2914L177.146 61.8304H179.338V67.9902H181.078V60.3539H175.51L175.376 63.7346C175.291 65.8773 175.013 66.5087 174.222 66.5087H173.959L173.969 67.9902ZM185.325 65.5542V60.3539H183.59V67.9902H185.445L188.492 62.785V67.9902H190.232V60.3539H188.383L185.325 65.5542ZM194.516 60.3539H192.781V67.9902H194.516V64.9029H197.474V67.9902H199.204V60.3539H197.474V63.4263H194.516V60.3539ZM203.46 65.5542V60.3539H201.725V67.9902H203.579L206.627 62.785V67.9902H208.367V60.3539H206.517L203.46 65.5542ZM210.915 67.9902H212.715V65.1117H213.595L215.688 67.9902H217.865L215.007 64.1025L217.835 60.3539H215.668L213.371 63.4363H212.715V60.3539H210.915V67.9902ZM221.783 68.1444C222.981 68.1444 223.697 67.5826 224.025 66.9412H224.085V67.9902H225.815V62.8794C225.815 60.861 224.169 60.2544 222.713 60.2544C221.107 60.2544 219.874 60.9703 219.476 62.3624L221.157 62.601C221.336 62.079 221.843 61.6316 222.723 61.6316C223.558 61.6316 224.015 62.0591 224.015 62.8098V62.8397C224.015 63.3567 223.473 63.3816 222.126 63.5257C220.645 63.6848 219.228 64.1273 219.228 65.8475C219.228 67.3489 220.326 68.1444 221.783 68.1444ZM222.25 66.8219C221.5 66.8219 220.963 66.4789 220.963 65.8176C220.963 65.1266 221.564 64.8382 222.37 64.7239C222.842 64.6593 223.787 64.54 224.02 64.351V65.2509C224.02 66.101 223.334 66.8219 222.25 66.8219ZM232.497 67.9902H234.218V61.8304H237.21V67.9902H238.946V60.3539H232.497V67.9902ZM243.694 68.1444C244.892 68.1444 245.608 67.5826 245.936 66.9412H245.995V67.9902H247.726V62.8794C247.726 60.861 246.08 60.2544 244.623 60.2544C243.018 60.2544 241.785 60.9703 241.387 62.3624L243.067 62.601C243.246 62.079 243.753 61.6316 244.633 61.6316C245.469 61.6316 245.926 62.0591 245.926 62.8098V62.8397C245.926 63.3567 245.384 63.3816 244.037 63.5257C242.555 63.6848 241.138 64.1273 241.138 65.8475C241.138 67.3489 242.237 68.1444 243.694 68.1444ZM244.161 66.8219C243.41 66.8219 242.873 66.4789 242.873 65.8176C242.873 65.1266 243.475 64.8382 244.28 64.7239C244.753 64.6593 245.697 64.54 245.931 64.351V65.2509C245.931 66.101 245.245 66.8219 244.161 66.8219ZM249.38 61.8304H251.851V67.9902H253.591V61.8304H256.062V60.3539H249.38V61.8304ZM258.195 70.8539H259.995V66.7871H260.069C260.353 67.3439 260.944 68.1245 262.257 68.1245C264.057 68.1245 265.404 66.6976 265.404 64.182C265.404 61.6365 264.017 60.2544 262.252 60.2544C260.905 60.2544 260.343 61.0648 260.069 61.6167H259.965V60.3539H258.195V70.8539ZM259.96 64.1721C259.96 62.6905 260.596 61.731 261.755 61.731C262.953 61.731 263.569 62.7502 263.569 64.1721C263.569 65.6039 262.943 66.6479 261.755 66.6479C260.606 66.6479 259.96 65.6536 259.96 64.1721ZM270.976 68.1394C273.213 68.1394 274.635 66.5634 274.635 64.2019C274.635 61.8354 273.213 60.2544 270.976 60.2544C268.739 60.2544 267.317 61.8354 267.317 64.2019C267.317 66.5634 268.739 68.1394 270.976 68.1394ZM270.986 66.6976C269.748 66.6976 269.141 65.5939 269.141 64.1969C269.141 62.7999 269.748 61.6813 270.986 61.6813C272.204 61.6813 272.811 62.7999 272.811 64.1969C272.811 65.5939 272.204 66.6976 270.986 66.6976ZM278.598 60.3539H276.863V67.9902H278.598V64.9029H281.556V67.9902H283.286V60.3539H281.556V63.4263H278.598V60.3539ZM288.004 68.1444C289.202 68.1444 289.918 67.5826 290.246 66.9412H290.306V67.9902H292.036V62.8794C292.036 60.861 290.391 60.2544 288.934 60.2544C287.328 60.2544 286.095 60.9703 285.697 62.3624L287.378 62.601C287.557 62.079 288.064 61.6316 288.944 61.6316C289.779 61.6316 290.236 62.0591 290.236 62.8098V62.8397C290.236 63.3567 289.695 63.3816 288.347 63.5257C286.866 63.6848 285.449 64.1273 285.449 65.8475C285.449 67.3489 286.548 68.1444 288.004 68.1444ZM288.472 66.8219C287.721 66.8219 287.184 66.4789 287.184 65.8176C287.184 65.1266 287.785 64.8382 288.591 64.7239C289.063 64.6593 290.008 64.54 290.241 64.351V65.2509C290.241 66.101 289.555 66.8219 288.472 66.8219ZM294.049 67.9902H296.172L298.354 64.9078H298.752V67.9902H300.551V64.9078H300.949L303.122 67.9902H305.245L302.441 64.0478L305.22 60.3539H303.142L300.969 63.4313H300.551V60.3539H298.752V63.4313H298.324L296.152 60.3539H294.074L296.868 64.0478L294.049 67.9902ZM309.461 68.1444C310.659 68.1444 311.375 67.5826 311.703 66.9412H311.763V67.9902H313.493V62.8794C313.493 60.861 311.847 60.2544 310.391 60.2544C308.785 60.2544 307.552 60.9703 307.154 62.3624L308.834 62.601C309.013 62.079 309.52 61.6316 310.4 61.6316C311.236 61.6316 311.693 62.0591 311.693 62.8098V62.8397C311.693 63.3567 311.151 63.3816 309.804 63.5257C308.322 63.6848 306.905 64.1273 306.905 65.8475C306.905 67.3489 308.004 68.1444 309.461 68.1444ZM309.928 66.8219C309.177 66.8219 308.641 66.4789 308.641 65.8176C308.641 65.1266 309.242 64.8382 310.047 64.7239C310.52 64.6593 311.464 64.54 311.698 64.351V65.2509C311.698 66.101 311.012 66.8219 309.928 66.8219ZM321.91 65.5542V60.3539H320.175V67.9902H322.03L325.077 62.785V67.9902H326.817V60.3539H324.968L321.91 65.5542ZM338.589 60.3539H333.538V67.9902H335.298V61.8304H338.589V60.3539ZM343.798 68.1394C345.578 68.1394 346.801 67.2694 347.119 65.9419L345.439 65.753C345.195 66.3993 344.599 66.7374 343.823 66.7374C342.66 66.7374 341.889 65.9718 341.874 64.6642H347.194V64.1124C347.194 61.4327 345.583 60.2544 343.704 60.2544C341.516 60.2544 340.09 61.8603 340.09 64.2168C340.09 66.6131 341.497 68.1394 343.798 68.1394ZM341.879 63.4512C341.934 62.4767 342.655 61.6564 343.729 61.6564C344.763 61.6564 345.459 62.4121 345.469 63.4512H341.879ZM349.417 70.8539H351.216V66.7871H351.291C351.574 67.3439 352.166 68.1245 353.478 68.1245C355.278 68.1245 356.625 66.6976 356.625 64.182C356.625 61.6365 355.238 60.2544 353.473 60.2544C352.126 60.2544 351.564 61.0648 351.291 61.6167H351.186V60.3539H349.417V70.8539ZM351.181 64.1721C351.181 62.6905 351.818 61.731 352.976 61.731C354.174 61.731 354.791 62.7502 354.791 64.1721C354.791 65.6039 354.164 66.6479 352.976 66.6479C351.828 66.6479 351.181 65.6536 351.181 64.1721ZM360.602 65.5542V60.3539H358.867V67.9902H360.721L363.769 62.785V67.9902H365.509V60.3539H363.659L360.602 65.5542ZM370.254 68.1444C371.452 68.1444 372.168 67.5826 372.496 66.9412H372.556V67.9902H374.286V62.8794C374.286 60.861 372.641 60.2544 371.184 60.2544C369.578 60.2544 368.345 60.9703 367.947 62.3624L369.628 62.601C369.807 62.079 370.314 61.6316 371.194 61.6316C372.029 61.6316 372.486 62.0591 372.486 62.8098V62.8397C372.486 63.3567 371.945 63.3816 370.597 63.5257C369.116 63.6848 367.699 64.1273 367.699 65.8475C367.699 67.3489 368.798 68.1444 370.254 68.1444ZM370.722 66.8219C369.971 66.8219 369.434 66.4789 369.434 65.8176C369.434 65.1266 370.035 64.8382 370.841 64.7239C371.313 64.6593 372.258 64.54 372.491 64.351V65.2509C372.491 66.101 371.805 66.8219 370.722 66.8219ZM375.941 61.8304H378.412V67.9902H380.152V61.8304H382.623V60.3539H375.941V61.8304ZM384.756 70.8539H386.555V66.7871H386.63C386.913 67.3439 387.505 68.1245 388.817 68.1245C390.617 68.1245 391.964 66.6976 391.964 64.182C391.964 61.6365 390.577 60.2544 388.812 60.2544C387.465 60.2544 386.903 61.0648 386.63 61.6167H386.525V60.3539H384.756V70.8539ZM386.52 64.1721C386.52 62.6905 387.157 61.731 388.315 61.731C389.513 61.731 390.13 62.7502 390.13 64.1721C390.13 65.6039 389.503 66.6479 388.315 66.6479C387.167 66.6479 386.52 65.6536 386.52 64.1721ZM395.941 65.5542V60.3539H394.206V67.9902H396.06L399.108 62.785V67.9902H400.848V60.3539H398.998L395.941 65.5542ZM405.131 65.5542V60.3539H403.396V67.9902H405.25L408.298 62.785V67.9902H410.038V60.3539H408.188L405.131 65.5542ZM423.351 66.8965L421.462 63.8439L423.351 60.7914H421.73L419.722 63.7743V63.9135L421.73 66.8965H423.351ZM420.318 66.8965L418.429 63.8439L420.318 60.7914H418.698L416.689 63.7743V63.9135L418.698 66.8965H420.318ZM432.453 57.8084H425.905V67.9902H427.75V59.3546H432.453V57.8084ZM436.907 68.1394C438.686 68.1394 439.909 67.2694 440.228 65.9419L438.547 65.753C438.304 66.3993 437.707 66.7374 436.931 66.7374C435.768 66.7374 434.997 65.9718 434.983 64.6642H440.302V64.1124C440.302 61.4327 438.691 60.2544 436.812 60.2544C434.625 60.2544 433.198 61.8603 433.198 64.2168C433.198 66.6131 434.605 68.1394 436.907 68.1394ZM434.988 63.4512C435.042 62.4767 435.763 61.6564 436.837 61.6564C437.871 61.6564 438.567 62.4121 438.577 63.4512H434.988ZM442.525 70.8539H444.324V66.7871H444.399C444.682 67.3439 445.274 68.1245 446.587 68.1245C448.386 68.1245 449.734 66.6976 449.734 64.182C449.734 61.6365 448.346 60.2544 446.582 60.2544C445.234 60.2544 444.672 61.0648 444.399 61.6167H444.295V60.3539H442.525V70.8539ZM444.29 64.1721C444.29 62.6905 444.926 61.731 446.084 61.731C447.283 61.731 447.899 62.7502 447.899 64.1721C447.899 65.6039 447.273 66.6479 446.084 66.6479C444.936 66.6479 444.29 65.6536 444.29 64.1721ZM455.306 68.1394C457.543 68.1394 458.965 66.5634 458.965 64.2019C458.965 61.8354 457.543 60.2544 455.306 60.2544C453.068 60.2544 451.647 61.8354 451.647 64.2019C451.647 66.5634 453.068 68.1394 455.306 68.1394ZM455.316 66.6976C454.078 66.6976 453.471 65.5939 453.471 64.1969C453.471 62.7999 454.078 61.6813 455.316 61.6813C456.534 61.6813 457.14 62.7999 457.14 64.1969C457.14 65.5939 456.534 66.6976 455.316 66.6976ZM465.587 65.8972L463.38 60.3539H461.192V67.9902H462.927V62.8446L464.961 67.9902H466.219L468.322 62.79V67.9902H470.042V60.3539H467.854L465.587 65.8972ZM475.937 68.1394C477.717 68.1394 478.94 67.2694 479.258 65.9419L477.578 65.753C477.334 66.3993 476.737 66.7374 475.962 66.7374C474.799 66.7374 474.028 65.9718 474.013 64.6642H479.333V64.1124C479.333 61.4327 477.722 60.2544 475.843 60.2544C473.655 60.2544 472.228 61.8603 472.228 64.2168C472.228 66.6131 473.635 68.1394 475.937 68.1394ZM474.018 63.4512C474.073 62.4767 474.794 61.6564 475.867 61.6564C476.902 61.6564 477.598 62.4121 477.608 63.4512H474.018ZM480.879 70.2076H482.649V67.9902H487.645V70.2076H489.385V66.5087H488.202V60.3539H482.684L482.465 63.0286C482.321 64.7388 482.132 66.0066 481.486 66.5087H480.879V70.2076ZM483.335 66.5087C483.817 65.7978 483.996 64.6444 484.125 63.0286L484.245 61.8056H486.482V66.5087H483.335ZM493.164 65.5542V60.3539H491.429V67.9902H493.283L496.331 62.785V67.9902H498.071V60.3539H496.222L493.164 65.5542ZM507.067 60.3539H505.347V66.5137H502.354V60.3539H500.619V67.9902H507.067V70.4462H508.827V66.6479H507.067V60.3539ZM512.679 65.5542V60.3539H510.944V67.9902H512.799L515.846 62.785V67.9902H517.586V60.3539H515.737L512.679 65.5542ZM521.87 60.3539H520.134V67.9902H521.87V64.9029H524.828V67.9902H526.558V60.3539H524.828V63.4263H521.87V60.3539ZM531.276 68.1444C532.474 68.1444 533.19 67.5826 533.518 66.9412H533.578V67.9902H535.308V62.8794C535.308 60.861 533.662 60.2544 532.206 60.2544C530.6 60.2544 529.367 60.9703 528.969 62.3624L530.65 62.601C530.829 62.079 531.336 61.6316 532.216 61.6316C533.051 61.6316 533.508 62.0591 533.508 62.8098V62.8397C533.508 63.3567 532.966 63.3816 531.619 63.5257C530.138 63.6848 528.721 64.1273 528.721 65.8475C528.721 67.3489 529.819 68.1444 531.276 68.1444ZM531.743 66.8219C530.993 66.8219 530.456 66.4789 530.456 65.8176C530.456 65.1266 531.057 64.8382 531.863 64.7239C532.335 64.6593 533.28 64.54 533.513 64.351V65.2509C533.513 66.101 532.827 66.8219 531.743 66.8219ZM540.741 66.8965H542.362L544.37 63.9135V63.7743L542.362 60.7914H540.741L542.63 63.8439L540.741 66.8965ZM537.678 66.8965H539.299L541.308 63.9135V63.7743L539.299 60.7914H537.678L539.568 63.8439L537.678 66.8965Z" fill="#3C3C51"/>
<defs>
<linearGradient id="paint0_linear" x1="75.0911" y1="97.3324" x2="46.9243" y2="47.9121" gradientUnits="userSpaceOnUse">
<stop stop-color="#CE2F03"/>
<stop offset="1" stop-color="#FF6A29"/>
</linearGradient>
<linearGradient id="paint1_linear" x1="49.9989" y1="-8.41748" x2="64.3172" y2="149.083" gradientUnits="userSpaceOnUse">
<stop stop-color="#ACBF05"/>
<stop offset="1" stop-color="#608D00"/>
</linearGradient>
</defs>
</svg>
