<svg viewBox="0 0 214 59" fill="none" xmlns="http://www.w3.org/2000/svg">
<path fill-rule="evenodd" clip-rule="evenodd" d="M31.3082 20.7358H26.6773V27.1919H20.1328L20.1328 31.7603H26.6773V38.216H31.3082V31.7603H37.8524V27.1919H31.3082V20.7358Z" fill="url(#paint0_linear)"/>
<path fill-rule="evenodd" clip-rule="evenodd" d="M56.2869 29.3984C56.2869 44.2485 44.2485 56.2869 29.3984 56.2869C14.5483 56.2869 2.50994 44.2485 2.50994 29.3984C2.50994 14.5483 14.5483 2.50994 29.3984 2.50994C44.2485 2.50994 56.2869 14.5483 56.2869 29.3984ZM58.7968 29.3984C58.7968 45.6347 45.6347 58.7968 29.3984 58.7968C13.1621 58.7968 0 45.6347 0 29.3984C0 13.1621 13.1621 0 29.3984 0C45.6347 0 58.7968 13.1621 58.7968 29.3984ZM12.3492 48.2842C11.8346 47.8188 11.8358 47.0203 12.3265 46.5297C12.816 46.0402 13.6076 46.0426 14.1235 46.5042C23.1245 54.5574 36.9577 54.2612 45.6033 45.6156C54.5556 36.6633 54.5556 22.1488 45.6033 13.1965C36.9488 4.54204 23.096 4.25417 14.0956 12.3329C13.5799 12.7959 12.7871 12.7991 12.2971 12.309C11.807 11.8189 11.8052 11.0215 12.3185 10.5557C22.3014 1.49819 37.7432 1.78687 47.3781 11.4217C57.3106 21.3542 57.3106 37.4579 47.3781 47.3904C37.7531 57.0154 22.333 57.3134 12.3492 48.2842ZM9.78074 34.65C9.11126 34.8293 8.71061 35.5197 8.92809 36.1778C12.4844 46.9388 23.8689 53.1798 34.9554 50.2092C46.4488 47.1296 53.2695 35.3158 50.1899 23.8223C47.1102 12.3289 35.2964 5.50821 23.803 8.58786C23.4789 8.67471 23.2921 9.00998 23.379 9.33411L23.7168 10.595C23.8022 10.9136 24.134 11.0977 24.4526 11.0123C34.6071 8.2914 45.0446 14.3175 47.7655 24.472C50.4864 34.6264 44.4603 45.0639 34.3058 47.7848C24.5587 50.3965 14.5509 44.949 11.3572 35.5271C11.1347 34.8706 10.4502 34.4706 9.78074 34.65ZM27.9766 11.9917C28.6729 11.9347 29.2448 12.5036 29.2448 13.2022C29.2448 13.8902 28.6894 14.4446 28.0045 14.509C20.4123 15.2235 14.4715 21.6149 14.4715 29.3939C14.4715 37.6513 21.1654 44.3452 29.4228 44.3452C37.2539 44.3452 43.6787 38.3246 44.3213 30.6597C44.3791 29.9693 44.9354 29.4061 45.6281 29.4061C46.3216 29.4061 46.8883 29.9704 46.8387 30.6621C46.189 39.7136 38.6399 46.8552 29.4228 46.8552C19.7792 46.8552 11.9616 39.0375 11.9616 29.3939C11.9616 20.2373 19.0096 12.7269 27.9766 11.9917Z" fill="url(#paint1_linear)"/>
<path d="M74.5411 24.4818H67.2715V39.6708H69.4632V26.5649H74.5411V24.4818Z" fill="#DA3E0C"/>
<path d="M79.7031 37.6094V32.9659H84.5423V30.948H79.7031V26.5432H84.9547V24.4818H77.5114V39.6708H85.1717V37.6094H79.7031Z" fill="#DA3E0C"/>
<path d="M92.6136 24.4818H88.599V39.6708H90.7907V34.333H92.6136C95.5865 34.333 97.2792 32.5754 97.2792 29.3857C97.2792 26.2828 95.5865 24.4818 92.6136 24.4818ZM92.5919 32.2499H90.7907V26.5649H92.5919C94.2411 26.5649 95.044 27.5196 95.044 29.3857C95.044 31.3385 94.2411 32.2499 92.5919 32.2499Z" fill="#DA3E0C"/>
<path d="M104.765 39.9529C107.673 39.9529 109.409 38.0217 109.409 34.8537V29.2989C109.409 26.1309 107.673 24.1997 104.765 24.1997C101.857 24.1997 100.121 26.1309 100.121 29.2989V34.8537C100.121 38.0217 101.857 39.9529 104.765 39.9529ZM104.765 37.8047C103.181 37.8047 102.378 36.7632 102.378 34.8537V29.2989C102.378 27.3894 103.181 26.3479 104.765 26.3479C106.328 26.3479 107.152 27.3894 107.152 29.2989V34.8537C107.152 36.7632 106.328 37.8047 104.765 37.8047Z" fill="#DA3E0C"/>
<path d="M122.762 24.4818L120.201 30.6442C119.854 31.5121 119.333 32.9659 119.095 33.6603H119.008C118.769 32.9659 118.248 31.5121 117.901 30.6442L115.34 24.4818H113.105V39.6708H115.254V33.7471C115.21 32.0112 115.145 30.4272 115.08 28.8432L115.167 28.7998C115.601 30.0149 116.122 31.4036 116.642 32.7924L117.966 36.2424H120.136L121.46 32.7924C121.981 31.4036 122.502 30.0149 122.936 28.7998L123.022 28.8432C122.936 30.4272 122.892 32.0112 122.849 33.7471V39.6708H124.997V24.4818H122.762Z" fill="#DA3E0C"/>
<path d="M131.322 37.6094V32.9659H136.161V30.948H131.322V26.5432H136.574V24.4818H129.131V39.6708H136.791V37.6094H131.322Z" fill="#DA3E0C"/>
<path d="M149.007 37.6094V24.4818H141.694L141.433 31.8159C141.347 34.2028 140.826 36.4811 139.719 37.6094H138.829V42.2095H140.978V39.6708H148.204V42.2095H150.352V37.6094H149.007ZM146.837 37.6094H142.345C143.061 36.3292 143.451 34.5716 143.538 32.4235L143.755 26.5432H146.837V37.6094Z" fill="#DA3E0C"/>
<path d="M153.361 39.6708H155.575L159.242 31.3602C159.611 30.514 160.045 29.3423 160.327 28.5611L160.392 28.6045C160.284 29.863 160.197 31.9027 160.197 33.0527V39.6708H162.345V24.4818H160.11L156.421 32.8575C156.009 33.7471 155.618 34.8103 155.336 35.5481L155.271 35.5047C155.423 34.1811 155.51 32.2065 155.51 31.1216V24.4818H153.361V39.6708Z" fill="#DA3E0C"/>
<path d="M174.296 42.2095H176.444V37.5877H175.056V24.4818H172.864V37.5877H168.654V24.4818H166.462V39.6708H174.296V42.2095Z" fill="#DA3E0C"/>
<path d="M179.457 39.6708H181.67L185.338 31.3602C185.707 30.514 186.141 29.3423 186.423 28.5611L186.488 28.6045C186.379 29.863 186.293 31.9027 186.293 33.0527V39.6708H188.441V24.4818H186.206L182.517 32.8575C182.104 33.7471 181.714 34.8103 181.432 35.5481L181.367 35.5047C181.519 34.1811 181.605 32.2065 181.605 31.1216V24.4818H179.457V39.6708Z" fill="#DA3E0C"/>
<path d="M199.046 24.4818V30.948H194.75V24.4818H192.558V39.6708H194.75V33.0093H199.046V39.6708H201.238V24.4818H199.046Z" fill="#DA3E0C"/>
<path d="M211.72 39.6708H213.999L210.179 24.4818H207.814L203.995 39.6708H206.295L206.989 36.6113H211.004L211.72 39.6708ZM207.467 34.5716L208.4 30.4923C208.639 29.4942 208.856 28.0404 208.964 27.2375H209.029C209.138 28.0404 209.376 29.4942 209.594 30.4923L210.548 34.5716H207.467Z" fill="#DA3E0C"/>
<defs>
<linearGradient id="paint0_linear" x1="32.6227" y1="42.0618" x2="20.3859" y2="20.5916" gradientUnits="userSpaceOnUse">
<stop stop-color="#CE2F03"/>
<stop offset="1" stop-color="#FF6A29"/>
</linearGradient>
<linearGradient id="paint1_linear" x1="21.7216" y1="-3.88092" x2="27.9421" y2="64.544" gradientUnits="userSpaceOnUse">
<stop stop-color="#ACBF05"/>
<stop offset="1" stop-color="#608D00"/>
</linearGradient>
</defs>
</svg>
