<?xml version="1.0" encoding="utf-8"?>
<!-- Generator: Adobe Illustrator 23.0.3, SVG Export Plug-In . SVG Version: 6.00 Build 0)  -->
<svg version="1.1" id="Layer_1" xmlns="http://www.w3.org/2000/svg" xmlns:xlink="http://www.w3.org/1999/xlink" x="0px" y="0px"
	 viewBox="0 0 19 22" style="enable-background:new 0 0 19 22;" xml:space="preserve">
<style type="text/css">
	.st0{fill:#434343;}
</style>
<path class="st0" d="M12.2,12.4c2.2-1,3.8-3.3,3.8-5.9C16,2.9,13.1,0,9.5,0S3,2.9,3,6.5c0,2.6,1.6,4.9,3.8,5.9C2.9,13.6,0,17.5,0,22
	h2c0-4.4,3.4-8,7.5-8s7.5,3.6,7.5,8h2C19,17.5,16.1,13.6,12.2,12.4z M5,6.5C5,4,7,2,9.5,2S14,4,14,6.5S12,11,9.5,11S5,9,5,6.5z"/>
</svg>
