<?xml version="1.0" encoding="utf-8"?>
<!-- Generator: Adobe Illustrator 23.0.3, SVG Export Plug-In . SVG Version: 6.00 Build 0)  -->
<svg version="1.1" id="Capa_1" xmlns="http://www.w3.org/2000/svg" xmlns:xlink="http://www.w3.org/1999/xlink" x="0px" y="0px"
	 viewBox="0 0 90 90" style="enable-background:new 0 0 90 90;" xml:space="preserve">
<style type="text/css">
	.st0{fill:#434343;}
</style>
<g>
	<g>
		<path class="st0" d="M45.1,36c5,0,9-4,9-9.1s-4-9-9.1-9.1c-5.1,0-9.1,4.1-9.1,9.2C36,32.1,40,36,45.1,36z"/>
		<path class="st0" d="M74.4,0H15.6C7,0,0,7,0,15.6v58.9C0,83,7,90,15.6,90h58.9C83,90,90,83,90,74.4V15.6C90,7,83,0,74.4,0z
			 M45.1,8.4c10.2,0,18.5,8.4,18.4,18.8c-0.1,10.1-8.4,18.3-18.7,18.3c-10.1,0-18.4-8.4-18.4-18.6C26.5,16.7,34.9,8.3,45.1,8.4z
			 M65.9,52.8c-2.3,2.3-5,4-8,5.2c-2.9,1.1-6,1.6-9.1,2c0.5,0.5,0.7,0.8,1,1.1c4.2,4.2,8.4,8.4,12.6,12.7c1.4,1.4,1.7,3.3,1,4.9
			c-0.9,1.8-2.8,3.1-4.7,3c-1.2-0.1-2.1-0.7-3-1.5c-3.2-3.2-6.4-6.3-9.6-9.6c-0.9-1-1.3-0.8-2.1,0.1c-3.2,3.3-6.4,6.5-9.8,9.8
			c-1.4,1.4-3.3,1.7-4.9,0.9c-1.8-0.9-3-2.7-2.9-4.6c0.1-1.2,0.7-2.2,1.5-3.1c4.2-4.2,8.3-8.3,12.5-12.5c0.3-0.3,0.6-0.6,1-1
			c-5.7-0.7-10.8-2-15.2-5.5c-0.6-0.4-1.1-0.9-1.6-1.3c-1.9-1.8-2.1-3.9-0.6-6.1c1.3-1.8,3.4-2.4,5.7-1.2c0.5,0.2,0.9,0.5,1.2,0.8
			c8.1,5.6,19.3,5.7,27.6,0.3c0.8-0.6,1.7-1.1,2.7-1.3c1.9-0.5,3.7,0.2,4.8,1.9C67.3,49.3,67.3,51.2,65.9,52.8z"/>
	</g>
</g>
</svg>
