<?xml version="1.0" encoding="utf-8"?>
<!-- Generator: Adobe Illustrator 23.0.3, SVG Export Plug-In . SVG Version: 6.00 Build 0)  -->
<svg version="1.1" id="Capa_1" xmlns="http://www.w3.org/2000/svg" xmlns:xlink="http://www.w3.org/1999/xlink" x="0px" y="0px"
	 viewBox="0 0 139.6 97" style="enable-background:new 0 0 139.6 97;" xml:space="preserve">
<style type="text/css">
	.st0{fill:#434343;}
</style>
<g>
	<path class="st0" d="M137,15.5c-1.7-7.5-7.8-13-15.1-13.7C104.6,0,87.1,0,69.7,0s-35,0-52.2,1.9C10.1,2.7,4,8.2,2.3,15.5
		C0,26.2,0,37.7,0,48.5s0,22.5,2.4,33c1.7,7.5,7.8,13,15.1,13.7C34.8,97,52.4,97,69.8,97s35,0,52.2-1.9c7.3-0.9,13.4-6.3,15.1-13.7
		c2.4-10.5,2.4-22,2.4-33C139.5,37.7,139.5,26.2,137,15.5z M51.7,70.2c0-15.4,0-30.7,0-46.1C66.5,31.9,81.2,39.6,96,47.3
		C81.2,54.8,66.5,62.5,51.7,70.2z"/>
</g>
</svg>
