<svg width="521" height="321" fill="none" xmlns="http://www.w3.org/2000/svg"><path fill-rule="evenodd" clip-rule="evenodd" d="M267.73 73.23h-16.415v22.884h-23.198v16.194h23.198v22.883h16.415v-22.883h23.198V96.114H267.73V73.23z" fill="url(#paint0_linear)"/><path fill-rule="evenodd" clip-rule="evenodd" d="M356.262 104.208c0 52.639-42.673 95.311-95.312 95.311-52.639 0-95.311-42.672-95.311-95.311 0-52.639 42.672-95.311 95.311-95.311 52.639 0 95.312 42.672 95.312 95.311zm8.897 0c0 57.553-46.656 104.208-104.209 104.208-57.552 0-104.208-46.655-104.208-104.208C156.742 46.656 203.398 0 260.95 0c57.553 0 104.209 46.656 104.209 104.208zm-164.643 66.945c-1.824-1.65-1.819-4.481-.08-6.22 1.735-1.735 4.541-1.726 6.37-.09 31.905 28.546 80.94 27.496 111.586-3.15 31.733-31.733 31.733-83.182 0-114.915C287.714 16.1 238.61 15.08 206.707 43.716c-1.828 1.642-4.638 1.653-6.376-.084-1.737-1.738-1.743-4.564.077-6.215 35.386-32.106 90.122-31.083 124.275 3.07 35.207 35.207 35.207 92.29 0 127.497-34.118 34.118-88.777 35.174-124.167 3.169zm-9.104-48.33c-2.373.636-3.793 3.083-3.022 5.416 12.605 38.144 52.96 60.267 92.258 49.737 40.741-10.916 64.918-52.793 54.002-93.533-10.917-40.74-52.793-64.918-93.534-54.002-1.775.476-3.297 2.881-2.376 5.646.922 2.765 3.09 3.374 4.679 2.948 35.995-9.645 72.992 11.716 82.637 47.71 9.645 35.995-11.716 72.993-47.71 82.637-34.551 9.258-70.026-10.052-81.346-43.45-.789-2.326-3.215-3.745-5.588-3.109zm64.499-80.316c2.468-.202 4.495 1.815 4.495 4.29 0 2.44-1.969 4.405-4.397 4.633-26.911 2.532-47.97 25.188-47.97 52.762 0 29.27 23.728 52.998 52.998 52.998 27.759 0 50.533-21.341 52.81-48.511.205-2.447 2.177-4.444 4.633-4.444 2.458 0 4.467 2.001 4.291 4.453-2.303 32.085-29.062 57.399-61.734 57.399-34.184 0-61.895-27.711-61.895-61.895 0-32.457 24.983-59.08 56.769-61.685z" fill="url(#paint1_linear)"/><path d="M26.667 257.811H.898v53.84h7.77v-46.456h18v-7.384zm18.298 46.533v-16.46h17.153v-7.153H44.965v-15.613H63.58v-7.307H37.196v53.84h27.153v-7.307H44.965zm45.763-46.533h-14.23v53.84h7.769V292.73h6.461c10.538 0 16.538-6.23 16.538-17.537 0-10.998-6-17.382-16.538-17.382zm-.077 27.535h-6.384v-20.151h6.384c5.846 0 8.692 3.384 8.692 9.998 0 6.923-2.846 10.153-8.692 10.153zm43.151 27.305c10.308 0 16.462-6.845 16.462-18.075v-19.69c0-11.23-6.154-18.075-16.462-18.075-10.307 0-16.461 6.845-16.461 18.075v19.69c0 11.23 6.154 18.075 16.461 18.075zm0-7.615c-5.615 0-8.461-3.692-8.461-10.46v-19.69c0-6.769 2.846-10.461 8.461-10.461 5.539 0 8.462 3.692 8.462 10.461v19.69c0 6.768-2.923 10.46-8.462 10.46zm63.793-47.225l-9.077 21.843c-1.231 3.077-3.077 8.23-3.923 10.692h-.308c-.846-2.462-2.692-7.615-3.923-10.692l-9.076-21.843h-7.923v53.84h7.615v-20.998c-.154-6.153-.385-11.768-.615-17.382l.307-.154c1.539 4.307 3.385 9.23 5.231 14.152l4.692 12.229h7.692l4.693-12.229c1.846-4.922 3.692-9.845 5.23-14.152l.308.154c-.308 5.614-.462 11.229-.615 17.382v20.998h7.615v-53.84h-7.923zm30.344 46.533v-16.46h17.153v-7.153h-17.153v-15.613h18.615v-7.307H220.17v53.84h27.153v-7.307h-19.384zm62.686 0v-46.533h-25.923l-.923 25.997c-.308 8.461-2.154 16.537-6.077 20.536h-3.153v16.306h7.615v-8.999h25.615v8.999h7.615v-16.306h-4.769zm-7.692 0H267.01c2.538-4.538 3.923-10.768 4.231-18.383l.769-20.843h10.923v39.226zm23.127 7.307h7.846l13-29.458c1.307-3 2.846-7.153 3.846-9.922l.231.153c-.385 4.462-.693 11.692-.693 15.768v23.459h7.616v-53.84h-7.923L316.906 287.5c-1.462 3.153-2.846 6.922-3.846 9.537l-.231-.154c.539-4.691.846-11.691.846-15.536v-23.536h-7.615v53.84zm74.207 8.999h7.615v-16.383h-4.923v-46.456h-7.769v46.456h-14.923v-46.456h-7.769v53.84h27.769v8.999zm18.294-8.999h7.846l13-29.458c1.307-3 2.846-7.153 3.846-9.922l.231.153c-.385 4.462-.693 11.692-.693 15.768v23.459h7.616v-53.84h-7.923L409.407 287.5c-1.462 3.153-2.846 6.922-3.846 9.537l-.231-.154c.539-4.691.846-11.691.846-15.536v-23.536h-7.615v53.84zm69.438-53.84v22.92h-15.231v-22.92h-7.769v53.84h7.769v-23.613h15.231v23.613h7.769v-53.84h-7.769zm44.925 53.84h8.077l-13.538-53.84h-8.385l-13.538 53.84h8.154l2.461-10.845h14.231l2.538 10.845zm-15.077-18.075l3.308-14.46c.846-3.538 1.615-8.691 2-11.537h.231c.384 2.846 1.23 7.999 2 11.537l3.384 14.46h-10.923z" fill="#DA3E0C"/><defs><linearGradient id="paint0_linear" x1="272.39" y1="148.823" x2="229.014" y2="72.718" gradientUnits="userSpaceOnUse"><stop stop-color="#CE2F03"/><stop offset="1" stop-color="#FF6A29"/></linearGradient><linearGradient id="paint1_linear" x1="233.739" y1="-14.028" x2="255.788" y2="228.517" gradientUnits="userSpaceOnUse"><stop stop-color="#ACBF05"/><stop offset="1" stop-color="#608D00"/></linearGradient></defs></svg>