<svg width="168" height="32" fill="none" xmlns="http://www.w3.org/2000/svg"><path fill-rule="evenodd" clip-rule="evenodd" d="M16.532 10.95h-2.445v3.408H10.63v2.413h3.456v3.408h2.445v-3.408h3.456v-2.413h-3.456V10.95z" fill="url(#paint0_linear)"/><path fill-rule="evenodd" clip-rule="evenodd" d="M29.722 15.524c0 7.841-6.357 14.198-14.199 14.198-7.84 0-14.198-6.357-14.198-14.199 0-7.84 6.357-14.198 14.199-14.198 7.841 0 14.198 6.357 14.198 14.199zm1.325 0c0 8.573-6.95 15.523-15.524 15.523C6.95 31.047 0 24.097 0 15.523 0 6.95 6.95 0 15.524 0c8.573 0 15.523 6.95 15.523 15.524zM6.521 25.495a.639.639 0 01-.012-.926.692.692 0 01.949-.014c4.753 4.252 12.057 4.096 16.622-.47 4.728-4.726 4.728-12.39 0-17.118-4.57-4.57-11.884-4.722-16.637-.456a.692.692 0 01-.95-.012.639.639 0 01.012-.926C11.776.79 19.93.944 25.017 6.03c5.245 5.245 5.245 13.748 0 18.993-5.082 5.082-13.224 5.24-18.496.472zm-1.356-7.2a.634.634 0 00-.45.807c1.877 5.682 7.889 8.978 13.743 7.41 6.069-1.627 9.67-7.865 8.044-13.934-1.626-6.069-7.864-9.67-13.933-8.044a.32.32 0 00-.224.394l.178.666c.046.168.22.265.389.22 5.362-1.437 10.873 1.745 12.31 7.107 1.437 5.362-1.745 10.873-7.107 12.31-5.147 1.38-10.432-1.497-12.118-6.472a.698.698 0 00-.832-.463zm9.608-11.964c.367-.03.67.27.67.64 0 .363-.294.655-.655.69a7.896 7.896 0 108.615 8.527c.03-.364.325-.661.69-.661.367 0 .666.298.64.663a9.22 9.22 0 11-9.96-9.859z" fill="url(#paint1_linear)"/><path d="M42.54 8.25H36v13.495h1.972V10.1h4.568V8.25zm4.644 11.663v-4.125h4.353v-1.793h-4.353v-3.913h4.724V8.25h-6.696v13.494h6.891v-1.832h-4.92zM58.798 8.25h-3.611v13.495h1.972v-4.743h1.64c2.674 0 4.197-1.561 4.197-4.395 0-2.756-1.523-4.356-4.198-4.356zm-.02 6.902h-1.62v-5.05h1.62c1.485 0 2.207.847 2.207 2.505 0 1.735-.722 2.545-2.206 2.545zm10.952 6.843c2.617 0 4.178-1.716 4.178-4.53V12.53c0-2.814-1.561-4.53-4.177-4.53-2.616 0-4.178 1.716-4.178 4.53v4.935c0 2.814 1.562 4.53 4.178 4.53zm0-1.908c-1.425 0-2.147-.926-2.147-2.622V12.53c0-1.696.722-2.622 2.148-2.622 1.405 0 2.147.926 2.147 2.622v4.935c0 1.696-.742 2.622-2.147 2.622zM85.92 8.25l-2.303 5.475c-.312.771-.78 2.063-.996 2.68h-.078a72.018 72.018 0 00-.995-2.68l-2.304-5.474h-2.01v13.494h1.932v-5.263c-.039-1.542-.097-2.95-.156-4.357l.078-.038c.39 1.08.859 2.313 1.328 3.547l1.19 3.065h1.953l1.19-3.065c.469-1.234.938-2.468 1.328-3.547l.078.038A144.534 144.534 0 0086 16.482v5.263h1.933V8.25H85.92zm7.702 11.663v-4.125h4.353v-1.793h-4.353v-3.913h4.724V8.25H91.65v13.494h6.892v-1.832h-4.92zm15.909 0V8.251h-6.579l-.234 6.515c-.078 2.12-.546 4.145-1.542 5.147h-.801V24h1.933v-2.255h6.501V24h1.933v-4.087h-1.211zm-1.952 0h-4.041c.644-1.137.996-2.698 1.074-4.607l.195-5.224h2.772v9.831zm5.87 1.832h1.991l3.299-7.384c.332-.751.723-1.792.977-2.486l.058.038a56.312 56.312 0 00-.176 3.952v5.88h1.933V8.25h-2.011l-3.318 7.44c-.371.79-.723 1.736-.977 2.39l-.058-.038c.136-1.175.215-2.93.215-3.894V8.251h-1.933v13.494zM132.282 24h1.933v-4.106h-1.249V8.251h-1.972v11.643h-3.788V8.251h-1.971v13.494h7.047V24zm4.643-2.255h1.992l3.299-7.384c.332-.751.722-1.792.976-2.486l.059.038a55.712 55.712 0 00-.176 3.952v5.88h1.933V8.25h-2.011l-3.319 7.44c-.371.79-.722 1.736-.976 2.39l-.059-.038c.137-1.175.215-2.93.215-3.894V8.251h-1.933v13.494zM154.548 8.25v5.745h-3.865V8.251h-1.972v13.494h1.972v-5.919h3.865v5.919h1.972V8.25h-1.972zm11.402 13.495H168L164.564 8.25h-2.128L159 21.745h2.07l.624-2.719h3.612l.644 2.719zm-3.826-4.53l.839-3.625c.215-.886.41-2.178.508-2.891h.058c.098.713.313 2.005.508 2.891l.859 3.625h-2.772z" fill="#DA3E0C"/><defs><linearGradient id="paint0_linear" x1="17.226" y1="22.21" x2="10.764" y2="10.873" gradientUnits="userSpaceOnUse"><stop stop-color="#CE2F03"/><stop offset="1" stop-color="#FF6A29"/></linearGradient><linearGradient id="paint1_linear" x1="11.47" y1="-2.049" x2="14.755" y2="34.082" gradientUnits="userSpaceOnUse"><stop stop-color="#ACBF05"/><stop offset="1" stop-color="#608D00"/></linearGradient></defs></svg>