<svg version="1.1" id="Layer_1" xmlns="http://www.w3.org/2000/svg" x="0" y="0" viewBox="0 0 516 116" xml:space="preserve"><style>.st1{fill-rule:evenodd;clip-rule:evenodd;fill:#a4ba04}</style><circle cx="57.4" cy="57.8" r="56.2" fill="#fff"/><path class="st1" d="M61.7 40.9h-9.1v12.7H39.7v9h12.9v12.7h9.1V62.6h12.9v-9H61.7V40.9z"/><path class="st1" d="M110.9 57.9c0 29.3-23.7 53-53 53s-53-23.7-53-53 23.7-53 53-53 53 23.8 53 53zm5 0c0 32-25.9 57.9-57.9 57.9S0 89.9 0 57.9 25.9 0 57.9 0s58 25.9 58 57.9zM24.3 95.2c-1-.9-1-2.5 0-3.5s2.5-1 3.5-.1c17.7 15.9 45 15.3 62-1.8 17.6-17.6 17.6-46.3 0-63.9-17-16.9-44.3-17.5-62-1.6-1 .9-2.6.9-3.5 0-1-1-1-2.5 0-3.5C44 3 74.4 3.5 93.4 22.5c19.6 19.6 19.6 51.3 0 70.9-19 19-49.4 19.6-69.1 1.8zm-5-26.9c-1.3.4-2.1 1.7-1.7 3 7 21.2 29.4 33.5 51.3 27.7 22.7-6.1 36.1-29.4 30-52-6.1-22.7-29.4-36.1-52-30-.6.2-1 .8-.8 1.5l.7 2.5c.2.6.8 1 1.5.8 20-5.4 40.6 6.5 45.9 26.5 5.4 20-6.5 40.6-26.5 45.9-19.3 5.1-39-5.6-45.3-24.2-.5-1.3-1.8-2.1-3.1-1.7zm35.8-44.7c1.4-.1 2.5 1 2.5 2.4s-1.1 2.4-2.4 2.6c-15 1.4-26.7 14-26.7 29.3 0 16.3 13.2 29.5 29.5 29.5 15.4 0 28.1-11.9 29.4-27 .1-1.4 1.2-2.5 2.6-2.5 1.4 0 2.5 1.1 2.4 2.5C91 78.3 76.2 92.3 58 92.3c-19 0-34.4-15.4-34.4-34.4 0-18 13.9-32.8 31.5-34.3z"/><path d="M161.2 35.2H143V74h5.5V40.5h12.7v-5.3zm12.9 33.5V56.8h12.1v-5.2h-12.1V40.4h13.1v-5.3h-18.6V74h19.2v-5.3h-13.7zm32.3-33.5h-10V74h5.5V60.3h4.6c7.4 0 11.7-4.5 11.7-12.6-.1-7.9-4.4-12.5-11.8-12.5zm-.1 19.8h-4.5V40.5h4.5c4.1 0 6.1 2.4 6.1 7.2.1 5-1.9 7.3-6.1 7.3zm30.5 19.7c7.3 0 11.6-4.9 11.6-13V47.5c0-8.1-4.3-13-11.6-13s-11.6 4.9-11.6 13v14.2c0 8 4.3 13 11.6 13zm0-5.5c-4 0-6-2.7-6-7.5V47.5c0-4.9 2-7.5 6-7.5 3.9 0 6 2.7 6 7.5v14.2c0 4.8-2.1 7.5-6 7.5zm45-34l-6.4 15.7c-.9 2.2-2.2 5.9-2.8 7.7h-.2c-.6-1.8-1.9-5.5-2.8-7.7l-6.4-15.7h-5.6V74h5.4V58.8c-.1-4.4-.3-8.5-.4-12.5l.2-.1c1.1 3.1 2.4 6.7 3.7 10.2l3.3 8.8h5.4l3.3-8.8c1.3-3.5 2.6-7.1 3.7-10.2l.2.1c-.2 4-.3 8.1-.4 12.5V74h5.4V35.2h-5.6zm21.4 33.5V56.8h12.1v-5.2h-12.1V40.4h13.1v-5.3h-18.6V74h19.2v-5.3h-13.7zm44.2 0V35.2h-18.3l-.7 18.7c-.2 6.1-1.5 11.9-4.3 14.8H322v11.7h5.4V74h18.1v6.5h5.4V68.7h-3.5zm-5.4 0h-11.2c1.8-3.3 2.8-7.8 3-13.2l.5-15h7.7v28.2zm16.3 5.3h5.5l9.2-21.2c.9-2.2 2-5.2 2.7-7.1l.2.1c-.3 3.2-.5 8.4-.5 11.4V74h5.4V35.2h-5.6L366 56.6c-1 2.3-2 5-2.7 6.9l-.2-.1c.4-3.4.6-8.4.6-11.2v-17h-5.4V74zm52.4 6.4h5.4V68.6h-3.5V35.2h-5.5v33.5h-10.5V35.2h-5.5V74h19.6v6.4zm12.9-6.4h5.5l9.2-21.2c.9-2.2 2-5.2 2.7-7.1l.2.1c-.3 3.2-.5 8.4-.5 11.4V74h5.4V35.2h-5.6l-9.2 21.4c-1 2.3-2 5-2.7 6.9l-.2-.1c.4-3.4.6-8.4.6-11.2v-17h-5.4V74zm49-38.8v16.5h-10.7V35.2h-5.5V74h5.5V57h10.7v17h5.5V35.2h-5.5zM504.3 74h5.7l-9.6-38.8h-5.9L485 74h5.8l1.7-7.8h10l1.8 7.8zm-10.6-13.1l2.3-10.4c.6-2.5 1.1-6.3 1.4-8.3h.2c.3 2.1.9 5.8 1.4 8.3l2.4 10.4h-7.7zM148.9 95.4h2.2l-4-5.3 4.2-4.6H149l-3.7 4.1h-.5v-4.1H143v9.9h1.8v-4.3h.8l3.3 4.3zm3.7 0h.5c1.6 0 2.3-1.1 2.4-3.6l.1-2.4h2.1v6h1.7V88H154l-.1 3.3c-.1 2.1-.4 2.7-1.1 2.7h-.3l.1 1.4zm11-2.3v-5H162v7.4h1.8l3-5v5h1.7V88h-1.8l-3.1 5.1zm8.9-5.1h-1.7v7.4h1.7v-3h2.9v3h1.7V88h-1.7v3h-2.9v-3zm8.7 5.1v-5h-1.7v7.4h1.8l3-5v5h1.7V88h-1.8l-3 5.1zm7.2 2.3h1.7v-2.8h.9l2 2.8h2.1l-2.8-3.8L195 88h-2l-2.2 3h-.6v-3h-1.7v7.4zm10.6.2c1.2 0 1.9-.5 2.2-1.2h.1v1h1.7v-5c0-2-1.6-2.5-3-2.5-1.6 0-2.8.7-3.1 2l1.6.2c.2-.5.7-.9 1.5-.9s1.3.4 1.3 1.1c0 .5-.5.5-1.8.7-1.4.2-2.8.6-2.8 2.3-.2 1.5.9 2.3 2.3 2.3zm.4-1.3c-.7 0-1.2-.3-1.2-1s.6-.9 1.4-1.1c.5-.1 1.4-.2 1.6-.4v.9c-.1.9-.7 1.6-1.8 1.6zm10 1.1h1.7v-6h2.9v6h1.7V88h-6.2v7.4zm10.8.2c1.2 0 1.9-.5 2.2-1.2h.1v1h1.7v-5c0-2-1.6-2.5-3-2.5-1.6 0-2.8.7-3.1 2l1.6.2c.2-.5.7-.9 1.5-.9s1.3.4 1.3 1.1c0 .5-.5.5-1.8.7-1.4.2-2.8.6-2.8 2.3-.2 1.5.9 2.3 2.3 2.3zm.5-1.3c-.7 0-1.2-.3-1.2-1s.6-.9 1.4-1.1c.5-.1 1.4-.2 1.6-.4v.9c-.1.9-.8 1.6-1.8 1.6zm5-4.8h2.4v6h1.7v-6h2.4V88h-6.5v1.5zm8.6 8.7h1.7v-3.9h.1c.3.5.8 1.3 2.1 1.3 1.7 0 3.1-1.4 3.1-3.8 0-2.5-1.3-3.8-3.1-3.8-1.3 0-1.9.8-2.1 1.3h-.1V88h-1.7v10.2zm1.7-6.5c0-1.4.6-2.4 1.7-2.4 1.2 0 1.8 1 1.8 2.4s-.6 2.4-1.8 2.4c-1.1 0-1.7-.9-1.7-2.4zm10.7 3.9c2.2 0 3.5-1.5 3.5-3.8s-1.4-3.8-3.5-3.8-3.5 1.5-3.5 3.8c-.1 2.3 1.3 3.8 3.5 3.8zm0-1.4c-1.2 0-1.8-1.1-1.8-2.4 0-1.4.6-2.4 1.8-2.4 1.2 0 1.8 1.1 1.8 2.4-.1 1.3-.7 2.4-1.8 2.4zM254 88h-1.7v7.4h1.7v-3h2.9v3h1.7V88h-1.7v3H254v-3zm9.2 7.6c1.2 0 1.9-.5 2.2-1.2h.1v1h1.7v-5c0-2-1.6-2.5-3-2.5-1.6 0-2.8.7-3.1 2l1.6.2c.2-.5.7-.9 1.5-.9s1.3.4 1.3 1.1c0 .5-.5.5-1.8.7-1.4.2-2.8.6-2.8 2.3-.2 1.5.8 2.3 2.3 2.3zm.4-1.3c-.7 0-1.2-.3-1.2-1s.6-.9 1.4-1.1c.5-.1 1.4-.2 1.6-.4v.9c-.1.9-.7 1.6-1.8 1.6zm5.4 1.1h2.1l2.1-3h.4v3h1.7v-3h.4l2.1 3h2.1l-2.7-3.8 2.7-3.6h-2l-2.1 3h-.4v-3h-1.7v3h-.4l-2.1-3h-2l2.7 3.6-2.9 3.8zm15 .2c1.2 0 1.9-.5 2.2-1.2h.1v1h1.7v-5c0-2-1.6-2.5-3-2.5-1.6 0-2.8.7-3.1 2l1.6.2c.2-.5.7-.9 1.5-.9s1.3.4 1.3 1.1c0 .5-.5.5-1.8.7-1.4.2-2.8.6-2.8 2.3-.2 1.5.8 2.3 2.3 2.3zm.4-1.3c-.7 0-1.2-.3-1.2-1s.6-.9 1.4-1.1c.5-.1 1.4-.2 1.6-.4v.9c-.1.9-.7 1.6-1.8 1.6zm11.6-1.2v-5h-1.7v7.4h1.8l3-5v5h1.7V88H299l-3 5.1zm16.2-5.1h-4.9v7.4h1.7v-6h3.2V88zm5 7.6c1.7 0 2.9-.8 3.2-2.1l-1.6-.2c-.2.6-.8 1-1.6 1-1.1 0-1.9-.7-1.9-2h5.2v-.5c0-2.6-1.6-3.7-3.4-3.7-2.1 0-3.5 1.6-3.5 3.8 0 2.2 1.4 3.7 3.6 3.7zm-1.8-4.6c.1-.9.8-1.7 1.8-1.7s1.7.7 1.7 1.7h-3.5zm7.3 7.2h1.7v-3.9h.1c.3.5.8 1.3 2.1 1.3 1.7 0 3.1-1.4 3.1-3.8 0-2.5-1.3-3.8-3.1-3.8-1.3 0-1.9.8-2.1 1.3h-.1V88h-1.7v10.2zm1.7-6.5c0-1.4.6-2.4 1.7-2.4 1.2 0 1.8 1 1.8 2.4s-.6 2.4-1.8 2.4c-1.1 0-1.7-.9-1.7-2.4zm9.1 1.4v-5h-1.7v7.4h1.8l3-5v5h1.7V88h-1.8l-3 5.1zm9.4 2.5c1.2 0 1.9-.5 2.2-1.2h.1v1h1.7v-5c0-2-1.6-2.5-3-2.5-1.6 0-2.8.7-3.1 2l1.6.2c.2-.5.7-.9 1.5-.9s1.3.4 1.3 1.1c0 .5-.5.5-1.8.7-1.4.2-2.8.6-2.8 2.3-.2 1.5.9 2.3 2.3 2.3zm.4-1.3c-.7 0-1.2-.3-1.2-1s.6-.9 1.4-1.1c.5-.1 1.4-.2 1.6-.4v.9c-.1.9-.7 1.6-1.8 1.6zm5.1-4.8h2.4v6h1.7v-6h2.4V88h-6.5v1.5zm8.5 8.7h1.7v-3.9h.1c.3.5.8 1.3 2.1 1.3 1.7 0 3-1.4 3-3.8 0-2.5-1.3-3.8-3.1-3.8-1.3 0-1.9.8-2.1 1.3h-.1V88h-1.7v10.2zm1.7-6.5c0-1.4.6-2.4 1.7-2.4 1.2 0 1.8 1 1.8 2.4s-.6 2.4-1.8 2.4c-1 0-1.7-.9-1.7-2.4zm9.2 1.4v-5h-1.7v7.4h1.8l3-5v5h1.7V88h-1.8l-3 5.1zm8.9 0v-5H375v7.4h1.8l3-5v5h1.7V88h-1.8l-3 5.1zm17.6 1.3l-1.8-3 1.8-3h-1.6l-1.9 2.9v.1l1.9 2.9h1.6zm-2.9 0l-1.8-3 1.8-3h-1.6l-1.9 2.9v.1l1.9 2.9h1.6zm11.8-8.8h-6.3v9.9h1.8v-8.4h4.6v-1.5zm4.3 10c1.7 0 2.9-.8 3.2-2.1l-1.6-.2c-.2.6-.8 1-1.6 1-1.1 0-1.9-.7-1.9-2h5.2v-.5c0-2.6-1.6-3.7-3.4-3.7-2.1 0-3.5 1.6-3.5 3.8 0 2.2 1.3 3.7 3.6 3.7zm-1.9-4.6c.1-.9.8-1.7 1.8-1.7s1.7.7 1.7 1.7h-3.5zm7.3 7.2h1.7v-3.9h.1c.3.5.8 1.3 2.1 1.3 1.7 0 3.1-1.4 3.1-3.8 0-2.5-1.3-3.8-3.1-3.8-1.3 0-1.9.8-2.1 1.3h-.1V88h-1.7v10.2zm1.7-6.5c0-1.4.6-2.4 1.7-2.4 1.2 0 1.8 1 1.8 2.4s-.6 2.4-1.8 2.4c-1 0-1.7-.9-1.7-2.4zm10.7 3.9c2.2 0 3.5-1.5 3.5-3.8s-1.4-3.8-3.5-3.8c-2.2 0-3.5 1.5-3.5 3.8s1.3 3.8 3.5 3.8zm0-1.4c-1.2 0-1.8-1.1-1.8-2.4 0-1.4.6-2.4 1.8-2.4 1.2 0 1.8 1.1 1.8 2.4 0 1.3-.6 2.4-1.8 2.4zm10-.8l-2.1-5.4H431v7.4h1.7v-5l2 5h1.2l2-5v5h1.7V88h-2.1l-2.2 5.4zm10 2.2c1.7 0 2.9-.8 3.2-2.1l-1.6-.2c-.2.6-.8 1-1.6 1-1.1 0-1.9-.7-1.9-2h5.2v-.5c0-2.6-1.6-3.7-3.4-3.7-2.1 0-3.5 1.6-3.5 3.8 0 2.2 1.4 3.7 3.6 3.7zm-1.9-4.6c.1-.9.8-1.7 1.8-1.7s1.7.7 1.7 1.7h-3.5zm6.7 6.6h1.7v-2.1h4.8v2.1h1.7V94h-1.1v-6h-5.3l-.2 2.6c-.1 1.7-.3 2.9-1 3.4h-.6v3.6zm2.4-3.6c.5-.7.6-1.8.8-3.4l.1-1.2h2.2V94h-3.1zm9.5-.9v-5h-1.7v7.4h1.8l3-5v5h1.7V88H465l-3 5.1zm13.5-5.1h-1.7v6h-2.9v-6h-1.7v7.4h6.3v2.4h1.7v-3.7h-1.7V88zm5.4 5.1v-5h-1.7v7.4h1.8l3-5v5h1.7V88h-1.8l-3 5.1zm8.9-5.1h-1.7v7.4h1.7v-3h2.9v3h1.7V88h-1.7v3h-2.9v-3zm9.1 7.6c1.2 0 1.9-.5 2.2-1.2h.1v1h1.7v-5c0-2-1.6-2.5-3-2.5-1.6 0-2.8.7-3.1 2l1.6.2c.2-.5.7-.9 1.5-.9s1.3.4 1.3 1.1c0 .5-.5.5-1.8.7-1.4.2-2.8.6-2.8 2.3-.1 1.5.9 2.3 2.3 2.3zm.5-1.3c-.7 0-1.2-.3-1.2-1s.6-.9 1.4-1.1c.5-.1 1.4-.2 1.6-.4v.9c-.1.9-.8 1.6-1.8 1.6zm8.7.1h1.6l1.9-2.9v-.1l-1.9-2.9h-1.6l1.8 3-1.8 2.9zm-3 0h1.6l1.9-2.9v-.1l-1.9-2.9h-1.6l1.8 3-1.8 2.9z" fill="#a4ba04"/></svg>