<svg width="516" height="116" fill="none" xmlns="http://www.w3.org/2000/svg"><circle cx="57.375" cy="57.848" r="56.18" fill="#fff"/><path fill-rule="evenodd" clip-rule="evenodd" d="M61.708 40.867H52.58v12.725h-12.9v9.004h12.9V75.32h9.127V62.596h12.898v-9.004H61.708V40.867z" fill="url(#paint0_linear)"/><path fill-rule="evenodd" clip-rule="evenodd" d="M110.939 57.943c0 29.269-23.727 52.996-52.996 52.996-29.269 0-52.996-23.727-52.996-52.996 0-29.269 23.727-52.996 52.996-52.996 29.269 0 52.996 23.727 52.996 52.996zm4.947 0c0 32-25.942 57.943-57.943 57.943S0 89.944 0 57.943 25.942 0 57.943 0c32 0 57.943 25.942 57.943 57.943zM24.34 95.166c-1.014-.917-1.012-2.491-.045-3.458.965-.965 2.525-.96 3.542-.05 17.74 15.872 45.005 15.288 62.045-1.752 17.645-17.644 17.645-46.252 0-63.896-17.058-17.058-44.36-17.625-62.1-1.702-1.017.912-2.58.918-3.545-.048-.966-.966-.97-2.537.042-3.455C43.955 2.953 74.39 3.522 93.38 22.512c19.576 19.576 19.576 51.316 0 70.892-18.97 18.971-49.363 19.558-69.04 1.762zm-5.063-26.873c-1.32.354-2.109 1.715-1.68 3.012 7.01 21.21 29.448 33.51 51.298 27.655 22.654-6.07 36.097-29.354 30.027-52.007S69.568 10.856 46.915 16.926a1.195 1.195 0 00-.836 1.471l.666 2.485a1.18 1.18 0 001.45.823c20.014-5.363 40.586 6.514 45.949 26.528 5.362 20.014-6.515 40.586-26.529 45.949-19.21 5.147-38.936-5.59-45.23-24.16-.44-1.294-1.788-2.082-3.108-1.729zm35.864-44.658c1.372-.112 2.5 1.01 2.5 2.386 0 1.356-1.096 2.449-2.445 2.576-14.964 1.408-26.673 14.005-26.673 29.337 0 16.275 13.193 29.468 29.468 29.468 15.435 0 28.098-11.866 29.364-26.973.114-1.36 1.21-2.471 2.576-2.471 1.367 0 2.484 1.112 2.386 2.476-1.28 17.84-16.16 31.915-34.326 31.915-19.007 0-34.415-15.408-34.415-34.415 0-18.047 13.891-32.85 31.565-34.299z" fill="url(#paint1_linear)"/><path d="M161.183 35.166H143V73.96h5.482V40.486h12.701v-5.32zm12.912 33.53v-11.86h12.104v-5.154h-12.104V40.43h13.135v-5.265h-18.618V73.96h19.161v-5.265h-13.678zm32.292-33.53h-10.042V73.96h5.482V60.327h4.56c7.436 0 11.669-4.489 11.669-12.636 0-7.925-4.233-12.525-11.669-12.525zm-.055 19.84h-4.505v-14.52h4.505c4.125 0 6.134 2.439 6.134 7.205 0 4.988-2.009 7.316-6.134 7.316zm30.449 19.675c7.273 0 11.616-4.932 11.616-13.024V47.47c0-8.091-4.343-13.024-11.616-13.024s-11.615 4.933-11.615 13.024v14.188c0 8.092 4.342 13.025 11.615 13.025zm0-5.486c-3.962 0-5.971-2.66-5.971-7.538V47.47c0-4.877 2.009-7.537 5.971-7.537 3.908 0 5.971 2.66 5.971 7.537v14.188c0 4.877-2.063 7.538-5.971 7.538zm45.014-34.029l-6.405 15.74c-.868 2.216-2.171 5.93-2.768 7.703h-.217c-.597-1.773-1.9-5.487-2.768-7.703l-6.405-15.74h-5.591V73.96h5.374V58.83c-.109-4.434-.272-8.48-.434-12.525l.217-.111c1.085 3.103 2.388 6.65 3.691 10.197l3.311 8.812h5.427l3.311-8.812c1.303-3.547 2.606-7.094 3.691-10.197l.217.11c-.217 4.046-.325 8.092-.434 12.526v15.13h5.374V35.166h-5.591zm21.411 33.53v-11.86h12.104v-5.154h-12.104V40.43h13.136v-5.265h-18.618V73.96h19.161v-5.265h-13.679zm44.234 0v-33.53h-18.292l-.651 18.732c-.217 6.097-1.52 11.916-4.288 14.798h-2.226v11.75h5.374V73.96h18.074v6.484h5.374v-11.75h-3.365zm-5.428 0h-11.236c1.791-3.27 2.768-7.76 2.986-13.246l.542-15.02h7.708v28.266zm16.319 5.265h5.537l9.173-21.227c.922-2.161 2.008-5.154 2.714-7.149l.162.11c-.271 3.215-.488 8.425-.488 11.362v16.904h5.373V35.166h-5.59l-9.227 21.393c-1.032 2.272-2.009 4.988-2.714 6.872l-.163-.111c.38-3.38.597-8.424.597-11.195v-16.96h-5.374v38.796zm52.363 6.484h5.374V68.641h-3.474V35.166h-5.482V68.64h-10.53V35.166H391.1V73.96h19.594v6.484zm12.909-6.484h5.536l9.173-21.227c.923-2.161 2.008-5.154 2.714-7.149l.163.11c-.271 3.215-.489 8.425-.489 11.362v16.904h5.374V35.166h-5.591l-9.227 21.393c-1.031 2.272-2.008 4.988-2.714 6.872l-.163-.111c.38-3.38.597-8.424.597-11.195v-16.96h-5.373v38.796zM472.6 35.166v16.516h-10.747V35.166h-5.482V73.96h5.482V56.947H472.6V73.96h5.482V35.166H472.6zm31.701 38.795H510l-9.553-38.795h-5.916l-9.553 38.795h5.753l1.737-7.814h10.042l1.791 7.814zm-10.639-13.024l2.334-10.42c.597-2.549 1.14-6.262 1.411-8.313h.163c.272 2.051.869 5.764 1.412 8.314l2.388 10.419h-7.708z" fill="#DA3E0C"/><path d="M148.857 95.445h2.212l-4.024-5.286 4.207-4.582h-2.265l-3.73 4.057h-.496v-4.057h-1.788v9.868h1.788v-4.312h.829l3.267 4.312zm3.774 0h.54c1.59 0 2.308-1.118 2.424-3.585l.115-2.385h2.125v5.97h1.687v-7.401h-5.397l-.13 3.277c-.082 2.076-.352 2.688-1.118 2.688h-.255l.009 1.436zm11.007-2.36v-5.041h-1.681v7.401h1.797l2.954-5.045v5.045h1.686v-7.401h-1.792l-2.964 5.04zm8.908-5.041h-1.682v7.401h1.682v-2.992h2.867v2.992h1.677v-7.401h-1.677v2.978h-2.867v-2.978zm8.669 5.04v-5.04h-1.682v7.401h1.797l2.954-5.045v5.045h1.687v-7.401h-1.793l-2.963 5.04zm7.225 2.361h1.745v-2.79h.853l2.028 2.79h2.111l-2.771-3.768 2.742-3.633h-2.101l-2.226 2.987h-.636v-2.987h-1.745v7.401zm10.534.15c1.161 0 1.855-.545 2.173-1.166h.058v1.016h1.677v-4.953c0-1.957-1.595-2.544-3.007-2.544-1.556 0-2.751.694-3.137 2.043l1.629.231c.173-.506.665-.94 1.518-.94.809 0 1.253.415 1.253 1.142v.03c0 .5-.526.525-1.831.664-1.436.154-2.81.583-2.81 2.25 0 1.456 1.065 2.227 2.477 2.227zm.453-1.282c-.728 0-1.248-.332-1.248-.973 0-.67.583-.95 1.364-1.06.457-.063 1.373-.179 1.599-.362v.872c0 .824-.665 1.523-1.715 1.523zm9.932 1.132h1.667v-5.97h2.901v5.97h1.681v-7.401h-6.249v7.401zm10.851.15c1.162 0 1.856-.545 2.174-1.166h.057v1.016h1.677v-4.953c0-1.957-1.595-2.544-3.007-2.544-1.556 0-2.751.694-3.136 2.043l1.628.231c.174-.506.665-.94 1.518-.94.81 0 1.253.415 1.253 1.142v.03c0 .5-.525.525-1.831.664-1.436.154-2.809.583-2.809 2.25 0 1.456 1.065 2.227 2.476 2.227zm.453-1.282c-.727 0-1.248-.332-1.248-.973 0-.67.583-.95 1.364-1.06.458-.063 1.373-.179 1.6-.362v.872c0 .824-.665 1.523-1.716 1.523zm5.059-4.838h2.395v5.97h1.686v-5.97h2.395v-1.431h-6.476v1.431zm8.543 8.746h1.745v-3.942h.072c.275.54.848 1.296 2.12 1.296 1.745 0 3.05-1.383 3.05-3.82 0-2.468-1.344-3.807-3.055-3.807-1.305 0-1.85.785-2.115 1.32h-.101v-1.224h-1.716v10.177zm1.711-6.476c0-1.436.617-2.366 1.74-2.366 1.161 0 1.758.987 1.758 2.366 0 1.387-.607 2.4-1.758 2.4-1.113 0-1.74-.964-1.74-2.4zm10.677 3.845c2.168 0 3.547-1.528 3.547-3.817 0-2.293-1.379-3.825-3.547-3.825s-3.546 1.532-3.546 3.826c0 2.288 1.378 3.816 3.546 3.816zm.01-1.398c-1.2 0-1.788-1.07-1.788-2.423 0-1.354.588-2.439 1.788-2.439 1.18 0 1.768 1.085 1.768 2.439s-.588 2.423-1.768 2.423zm7.377-6.148h-1.681v7.401h1.681v-2.992h2.867v2.992h1.677v-7.401h-1.677v2.978h-2.867v-2.978zm9.117 7.55c1.162 0 1.855-.544 2.173-1.165h.058v1.016h1.677v-4.953c0-1.957-1.595-2.544-3.007-2.544-1.556 0-2.751.694-3.137 2.043l1.629.231c.174-.506.665-.94 1.518-.94.81 0 1.253.415 1.253 1.142v.03c0 .5-.525.525-1.831.664-1.436.154-2.809.583-2.809 2.25 0 1.456 1.064 2.227 2.476 2.227zm.453-1.281c-.727 0-1.248-.332-1.248-.973 0-.67.583-.95 1.364-1.06.458-.063 1.373-.179 1.6-.362v.872c0 .824-.665 1.523-1.716 1.523zm5.406 1.132h2.057l2.116-2.987h.385v2.987h1.744v-2.987h.386l2.106 2.987h2.057l-2.717-3.82 2.693-3.581h-2.014l-2.106 2.983h-.405v-2.983h-1.744v2.983h-.414l-2.106-2.983h-2.014l2.708 3.58-2.732 3.821zm14.938.15c1.161 0 1.855-.545 2.173-1.166h.058v1.016h1.676v-4.953c0-1.957-1.594-2.544-3.006-2.544-1.557 0-2.752.694-3.137 2.043l1.628.231c.174-.506.665-.94 1.518-.94.81 0 1.253.415 1.253 1.142v.03c0 .5-.525.525-1.831.664-1.436.154-2.809.583-2.809 2.25 0 1.456 1.065 2.227 2.477 2.227zm.453-1.282c-.728 0-1.248-.332-1.248-.973 0-.67.583-.95 1.363-1.06.458-.063 1.374-.179 1.6-.362v.872c0 .824-.665 1.523-1.715 1.523zm11.613-1.229v-5.04h-1.682v7.401h1.798l2.953-5.045v5.045h1.687v-7.401h-1.793l-2.963 5.04zm16.166-5.04h-4.896v7.401h1.706v-5.97h3.19v-1.431zm5.048 7.546c1.725 0 2.911-.843 3.219-2.13l-1.628-.183c-.237.626-.815.954-1.566.954-1.128 0-1.875-.742-1.889-2.01h5.156v-.534c0-2.597-1.562-3.74-3.383-3.74-2.12 0-3.503 1.557-3.503 3.841 0 2.323 1.363 3.802 3.594 3.802zm-1.86-4.544c.053-.945.752-1.74 1.793-1.74 1.002 0 1.677.733 1.686 1.74h-3.479zm7.306 7.175h1.744v-3.942h.072c.275.54.848 1.296 2.12 1.296 1.745 0 3.051-1.383 3.051-3.82 0-2.468-1.345-3.807-3.055-3.807-1.306 0-1.851.785-2.116 1.32h-.101v-1.224h-1.715v10.177zm1.71-6.476c0-1.436.617-2.366 1.74-2.366 1.161 0 1.759.987 1.759 2.366 0 1.387-.608 2.4-1.759 2.4-1.113 0-1.74-.964-1.74-2.4zm9.131 1.34v-5.041h-1.682v7.401h1.797l2.954-5.045v5.045h1.687v-7.401h-1.793l-2.963 5.04zm9.355 2.51c1.161 0 1.855-.545 2.173-1.166h.058v1.016h1.677v-4.953c0-1.957-1.595-2.544-3.007-2.544-1.556 0-2.751.694-3.137 2.043l1.629.231c.173-.506.665-.94 1.518-.94.809 0 1.253.415 1.253 1.142v.03c0 .5-.526.525-1.831.664-1.436.154-2.81.583-2.81 2.25 0 1.456 1.065 2.227 2.477 2.227zm.453-1.282c-.728 0-1.248-.332-1.248-.973 0-.67.583-.95 1.364-1.06.457-.063 1.373-.179 1.599-.362v.872c0 .824-.664 1.523-1.715 1.523zm5.059-4.838h2.394v5.97h1.687v-5.97h2.395v-1.431h-6.476v1.431zm8.543 8.746h1.745v-3.942h.072c.275.54.848 1.296 2.12 1.296 1.744 0 3.05-1.383 3.05-3.82 0-2.468-1.344-3.807-3.055-3.807-1.306 0-1.85.785-2.115 1.32h-.101v-1.224h-1.716v10.177zm1.711-6.476c0-1.436.617-2.366 1.739-2.366 1.162 0 1.759.987 1.759 2.366 0 1.387-.607 2.4-1.759 2.4-1.113 0-1.739-.964-1.739-2.4zm9.13 1.34v-5.041h-1.682v7.401h1.798l2.954-5.045v5.045h1.686v-7.401h-1.792l-2.964 5.04zm8.908 0v-5.041h-1.682v7.401h1.797l2.954-5.045v5.045h1.686v-7.401h-1.792l-2.963 5.04zm17.659 1.3l-1.831-2.958 1.831-2.959h-1.571l-1.947 2.891v.135l1.947 2.891h1.571zm-2.939 0l-1.831-2.958 1.831-2.959h-1.571l-1.947 2.891v.135l1.947 2.891h1.571zm11.761-8.808h-6.346v9.868h1.787v-8.37h4.559v-1.498zm4.316 10.013c1.725 0 2.911-.843 3.219-2.13l-1.629-.183c-.236.626-.814.954-1.566.954-1.127 0-1.874-.742-1.888-2.01h5.155v-.534c0-2.597-1.561-3.74-3.382-3.74-2.12 0-3.503 1.557-3.503 3.841 0 2.323 1.363 3.802 3.594 3.802zm-1.86-4.544c.053-.945.752-1.74 1.793-1.74 1.002 0 1.677.733 1.686 1.74h-3.479zm7.306 7.175h1.744v-3.942h.072c.275.54.848 1.296 2.12 1.296 1.745 0 3.051-1.383 3.051-3.82 0-2.468-1.345-3.807-3.055-3.807-1.306 0-1.851.785-2.116 1.32h-.101v-1.224h-1.715v10.177zm1.71-6.476c0-1.436.617-2.366 1.74-2.366 1.161 0 1.758.987 1.758 2.366 0 1.387-.607 2.4-1.758 2.4-1.113 0-1.74-.964-1.74-2.4zm10.677 3.845c2.169 0 3.547-1.528 3.547-3.817 0-2.293-1.378-3.825-3.547-3.825-2.168 0-3.546 1.532-3.546 3.826 0 2.288 1.378 3.816 3.546 3.816zm.01-1.398c-1.2 0-1.788-1.07-1.788-2.423 0-1.354.588-2.439 1.788-2.439 1.18 0 1.768 1.085 1.768 2.439s-.588 2.423-1.768 2.423zm9.955-.775l-2.139-5.373h-2.12v7.401h1.681v-4.987l1.971 4.987h1.219l2.039-5.04v5.04h1.667v-7.401h-2.12l-2.198 5.373zm10.032 2.173c1.725 0 2.91-.843 3.218-2.13l-1.628-.183c-.236.626-.815.954-1.566.954-1.128 0-1.875-.742-1.889-2.01h5.156v-.534c0-2.597-1.561-3.74-3.383-3.74-2.12 0-3.503 1.557-3.503 3.841 0 2.323 1.364 3.802 3.595 3.802zm-1.86-4.544c.053-.945.751-1.74 1.792-1.74 1.002 0 1.677.733 1.687 1.74h-3.479zm6.65 6.548h1.715v-2.149h4.843v2.15h1.686v-3.586h-1.147v-5.965h-5.348l-.212 2.592c-.14 1.658-.323 2.887-.95 3.373h-.587v3.585zm2.38-3.585c.467-.689.641-1.807.766-3.373l.116-1.185h2.168v4.558h-3.05zm9.527-.925v-5.04h-1.682v7.401h1.797l2.954-5.045v5.045h1.687v-7.401h-1.793l-2.963 5.04zm13.475-5.04h-1.667v5.97h-2.901v-5.97h-1.682v7.401h6.25v2.38h1.706v-3.68h-1.706v-6.101zm5.439 5.04v-5.04h-1.681v7.401h1.797l2.954-5.045v5.045h1.686v-7.401h-1.792l-2.964 5.04zm8.908-5.04h-1.682v7.401h1.682v-2.992h2.867v2.992h1.677v-7.401h-1.677v2.978h-2.867v-2.978zm9.117 7.55c1.161 0 1.855-.544 2.173-1.165h.058v1.016h1.677v-4.953c0-1.957-1.595-2.544-3.007-2.544-1.557 0-2.752.694-3.137 2.043l1.629.231c.173-.506.664-.94 1.517-.94.81 0 1.253.415 1.253 1.142v.03c0 .5-.525.525-1.831.664-1.436.154-2.809.583-2.809 2.25 0 1.456 1.065 2.227 2.477 2.227zm.453-1.281c-.728 0-1.248-.332-1.248-.973 0-.67.583-.95 1.363-1.06.458-.063 1.374-.179 1.6-.362v.872c0 .824-.665 1.523-1.715 1.523zm8.72.072h1.571l1.947-2.89v-.136l-1.947-2.891h-1.571l1.831 2.959-1.831 2.958zm-2.968 0h1.571l1.947-2.89v-.136l-1.947-2.891h-1.571l1.831 2.959-1.831 2.958z" fill="#3C3C51"/><defs><linearGradient id="paint0_linear" x1="64.299" y1="82.9" x2="40.18" y2="40.583" gradientUnits="userSpaceOnUse"><stop stop-color="#CE2F03"/><stop offset="1" stop-color="#FF6A29"/></linearGradient><linearGradient id="paint1_linear" x1="42.812" y1="-7.649" x2="55.072" y2="127.213" gradientUnits="userSpaceOnUse"><stop stop-color="#ACBF05"/><stop offset="1" stop-color="#608D00"/></linearGradient></defs></svg>