<svg width="89" height="22" viewBox="0 0 89 22" fill="none" xmlns="http://www.w3.org/2000/svg">
<rect x="49" width="40" height="2" fill="#DA3E0D"/>
<rect x="49" y="10" width="40" height="2" fill="#DA3E0D"/>
<rect x="49" y="20" width="40" height="2" fill="#DA3E0D"/>
<path d="M5.3196 12.907L3.11222 7.36364H0.924716V15H2.6598V9.8544L4.69318 15H5.95099L8.05398 9.79972V15H9.77415V7.36364H7.58665L5.3196 12.907ZM15.6695 15.1491C17.4493 15.1491 18.6723 14.2791 18.9905 12.9517L17.3101 12.7628C17.0665 13.4091 16.4699 13.7472 15.6943 13.7472C14.531 13.7472 13.7604 12.9815 13.7455 11.674H19.0651V11.1222C19.0651 8.44247 17.4543 7.2642 15.575 7.2642C13.3875 7.2642 11.9607 8.87003 11.9607 11.2266C11.9607 13.6229 13.3676 15.1491 15.6695 15.1491ZM13.7504 10.4609C13.8051 9.48651 14.526 8.66619 15.5999 8.66619C16.6339 8.66619 17.33 9.42188 17.3399 10.4609H13.7504ZM23.0227 7.36364H21.2876V15H23.0227V11.9126H25.9808V15H27.7109V7.36364H25.9808V10.4361H23.0227V7.36364ZM31.579 7.36364H29.7744V15H31.579V11.9723H33.0208C33.2992 13.8814 34.6167 15.1491 36.5705 15.1491C38.7729 15.1491 40.17 13.5334 40.1749 11.1967C40.17 8.86009 38.7729 7.2642 36.5705 7.2642C34.5918 7.2642 33.2644 8.54688 33.0109 10.4908H31.579V7.36364ZM36.5705 13.6577C35.258 13.6577 34.6962 12.5838 34.6962 11.1967C34.6962 9.80966 35.258 8.74077 36.5705 8.74077C37.8781 8.74077 38.4349 9.8196 38.4349 11.1967C38.4349 12.5788 37.8781 13.6577 36.5705 13.6577Z" fill="#434343"/>
</svg>
