<svg width="218" height="218" viewBox="0 0 218 218" fill="none" xmlns="http://www.w3.org/2000/svg">
<circle cx="109" cy="109" r="107" fill="white" stroke="#ACBF05" stroke-width="4"/>
<path d="M49.5063 167.746L84.1748 107.698L116.2 126.188L81.5317 186.235L74.7639 160.978L49.5063 167.746Z" fill="#E9EFE8" stroke="#F55E21" stroke-width="6"/>
<path d="M169.029 167.746L134.36 107.698L102.335 126.188L137.003 186.235L143.771 160.978L169.029 167.746Z" fill="#E9EFE8" stroke="#F55E21" stroke-width="6"/>
<path d="M164.851 90.1673C164.851 121.691 139.554 147.196 108.411 147.196C77.2677 147.196 51.9707 121.691 51.9707 90.1673C51.9707 58.6432 77.2677 33.1384 108.411 33.1384C139.554 33.1384 164.851 58.6432 164.851 90.1673Z" fill="white" stroke="#608D00" stroke-width="6"/>
<path d="M104.326 47.2772C106.852 44.5628 111.15 44.5628 113.675 47.2772C115.549 49.2912 118.502 49.8787 121.004 48.735C124.376 47.1937 128.347 48.8386 129.642 52.3127C130.602 54.8906 133.106 56.5634 135.855 56.4643C139.56 56.3306 142.599 59.3701 142.466 63.0751C142.367 65.8243 144.04 68.3279 146.617 69.2883C150.091 70.5827 151.736 74.5539 150.195 77.9258C149.051 80.4277 149.639 83.3809 151.653 85.2547C154.367 87.7801 154.367 92.0785 151.653 94.6039C149.639 96.4777 149.051 99.4309 150.195 101.933C151.736 105.305 150.091 109.276 146.617 110.57C144.04 111.531 142.367 114.034 142.466 116.784C142.599 120.489 139.56 123.528 135.855 123.394C133.106 123.295 130.602 124.968 129.642 127.546C128.347 131.02 124.376 132.665 121.004 131.124C118.502 129.98 115.549 130.567 113.675 132.581C111.15 135.296 106.852 135.296 104.326 132.581C102.452 130.567 99.4992 129.98 96.9972 131.124C93.6254 132.665 89.6542 131.02 88.3598 127.546C87.3993 124.968 84.8957 123.295 82.1466 123.394C78.4416 123.528 75.4021 120.489 75.5357 116.784C75.6349 114.034 73.9621 111.531 71.3842 110.57C67.9101 109.276 66.2651 105.305 67.8065 101.933C68.9501 99.4309 68.3627 96.4777 66.3486 94.6039C63.6343 92.0785 63.6343 87.7801 66.3486 85.2547C68.3627 83.3809 68.9501 80.4277 67.8065 77.9258C66.2651 74.5539 67.9101 70.5827 71.3842 69.2883C73.9621 68.3279 75.6349 65.8243 75.5357 63.0751C75.4021 59.3701 78.4416 56.3306 82.1466 56.4643C84.8957 56.5634 87.3993 54.8906 88.3598 52.3127C89.6542 48.8386 93.6254 47.1937 96.9972 48.735C99.4992 49.8787 102.452 49.2912 104.326 47.2772Z" fill="#E9EFE8" stroke="#ACBF05" stroke-width="3"/>
<path d="M100.761 80.2051L111.354 68.9806V116.062" stroke="#F55E21" stroke-width="6" stroke-linejoin="bevel"/>
</svg>
