<svg width="107" height="52" viewBox="0 0 107 52" fill="none" xmlns="http://www.w3.org/2000/svg">
<rect x="15.3169" y="3" width="28.3293" height="45.5732" fill="#ACBF05" stroke="#608D00" stroke-width="5" stroke-linejoin="round"/>
<rect x="15.3169" y="36.2563" width="28.3293" height="12.3171" fill="#434343" stroke="#608D00" stroke-width="5" stroke-linejoin="round"/>
<path d="M20.9233 11.1624C32.331 9.00971 38.6917 8.01753 49.2526 11.1624C53.5636 14.0855 56.0931 21.0125 53.5636 28.2502H25.2343C19.0235 24.325 17.2218 17.4509 20.9233 11.1624Z" fill="#FF6230" stroke="#DA3E0D" stroke-width="5" stroke-linejoin="round"/>
<path d="M22.7075 11.1624C34.1152 9.00971 40.4758 8.01753 51.0368 11.1624C55.3478 14.0855 57.8773 21.0125 55.3478 28.2502H27.0185C29.8626 21.035 28.2502 14.0855 22.7075 11.1624Z" fill="#FF6230" stroke="#DA3E0D" stroke-width="5" stroke-linejoin="round"/>
<rect x="64.5854" y="16.5488" width="28.3293" height="32.0244" fill="#E9EFE8" stroke="#608D00" stroke-width="5" stroke-linejoin="round"/>
<rect x="31.3291" y="25.1709" width="33.2561" height="11.0854" fill="#ACBF05" stroke="#608D00" stroke-width="5" stroke-linejoin="round"/>
<rect x="15.3169" y="25.1709" width="16.0122" height="11.0854" fill="white" stroke="#608D00" stroke-width="5" stroke-linejoin="round"/>
<path d="M3 48.5732H104" stroke="#434343" stroke-width="5" stroke-linecap="round" stroke-linejoin="round"/>
</svg>
