<svg width="33" height="23" viewBox="0 0 33 23" fill="none" xmlns="http://www.w3.org/2000/svg">
<path d="M17.1257 10V21M17.1257 21L20.1257 18.1613M17.1257 21L14.1257 18.1613" stroke="#679100" stroke-width="2"/>
<path fill-rule="evenodd" clip-rule="evenodd" d="M6.84526 15.5008L6.75296 15.4973C4.11135 15.3951 2 13.2198 2 10.5522C2 7.819 4.21568 5.60332 6.94886 5.60332C7.49984 5.60332 8.02591 5.6926 8.51578 5.85594L9.97659 6.34303L10.8209 5.05528C12.0302 3.21102 14.1099 2 16.4714 2C19.5917 2 22.2222 4.11885 22.993 6.99958L23.5473 9.07086L25.5751 8.37403C25.9458 8.2466 26.3457 8.17657 26.766 8.17657C28.7885 8.17657 30.4281 9.81612 30.4281 11.8386C30.4281 13.7404 28.9768 15.3056 27.1227 15.4836L26.9436 15.5008H22.5206V17.5008H25.3139H27.3139V17.4745C30.1839 17.1989 32.4281 14.7809 32.4281 11.8386C32.4281 8.71155 29.8931 6.17657 26.766 6.17657C26.3944 6.17657 26.0311 6.21238 25.6794 6.28074C25.4213 6.33092 25.1694 6.39863 24.9251 6.48259C24.8202 6.09068 24.6888 5.70961 24.5329 5.34143C23.2038 2.20233 20.0948 0 16.4714 0C13.4076 0 10.7116 1.57457 9.14841 3.95863C8.45715 3.72815 7.71758 3.60332 6.94886 3.60332C3.11111 3.60332 0 6.71443 0 10.5522C0 14.2984 2.96457 17.3523 6.67571 17.4958V17.5008H6.89428L6.94886 17.501L7.00343 17.5008H8.67571H11.9055V15.5008H7.00343H6.99577L6.9881 15.5009L6.94886 15.501L6.90961 15.5009L6.90195 15.5008H6.89428H6.84526Z" fill="#F55E21"/>
</svg>
