<?xml version="1.0" encoding="utf-8"?>
<!-- Generator: Adobe Illustrator 23.0.3, SVG Export Plug-In . SVG Version: 6.00 Build 0)  -->
<svg version="1.1" id="Layer_1" xmlns="http://www.w3.org/2000/svg" xmlns:xlink="http://www.w3.org/1999/xlink" x="0px" y="0px"
	 viewBox="0 0 21.5 21.5" style="enable-background:new 0 0 21.5 21.5;" xml:space="preserve">
<style type="text/css">
	.st0{fill:#434343;}
</style>
<path class="st0" d="M21.5,20.1l-5.3-5.3c1.3-1.6,2-3.6,2-5.7c0-2.4-0.9-4.7-2.7-6.4C12-0.9,6.2-0.9,2.7,2.7C0.9,4.4,0,6.7,0,9.1
	s0.9,4.7,2.7,6.4c1.7,1.7,4,2.7,6.4,2.7c2.1,0,4.1-0.7,5.7-2l5.3,5.3L21.5,20.1z M9.1,16.2c-1.9,0-3.7-0.7-5-2.1
	C2.7,12.8,2,11,2,9.1s0.7-3.7,2.1-5C5.5,2.7,7.3,2,9.1,2c1.8,0,3.6,0.7,5,2.1c1.3,1.3,2.1,3.1,2.1,5s-0.7,3.7-2.1,5
	C12.8,15.5,11,16.2,9.1,16.2z"/>
</svg>
