<svg width="23" height="22" fill="none" xmlns="http://www.w3.org/2000/svg"><path fill-rule="evenodd" clip-rule="evenodd" d="M1.82 3.673C.934 5.115.934 7.08.934 11.008v.574c0 3.928 0 5.893.884 7.335A6 6 0 003.8 20.898c1.443.884 3.407.884 7.335.884h1.073c3.929 0 5.893 0 7.335-.884a6 6 0 001.981-1.98c.884-1.443.884-3.407.884-7.336v-.574c0-3.928 0-5.893-.884-7.335a6 6 0 00-1.98-1.981C18.1.808 16.136.808 12.207.808h-1.073c-3.928 0-5.892 0-7.335.884a6 6 0 00-1.98 1.98zm9.825 12.948a5.495 5.495 0 100-10.99 5.495 5.495 0 000 10.99zm7.096-11.777a.867.867 0 11-1.734 0 .867.867 0 011.734 0zm-7.096 9.976a3.694 3.694 0 100-7.388 3.694 3.694 0 000 7.388z" fill="#F55E21"/></svg>