<svg version="1.1" id="Capa_1" xmlns="http://www.w3.org/2000/svg" x="0" y="0" viewBox="0 0 90 90" xml:space="preserve"><style>.st0{fill:#f55e21}</style><path class="st0" d="M45.1 36c5 0 9-4 9-9.1s-4-9-9.1-9.1c-5.1 0-9.1 4.1-9.1 9.2.1 5.1 4.1 9 9.2 9z"/><path class="st0" d="M74.4 0H15.6C7 0 0 7 0 15.6v58.9C0 83 7 90 15.6 90h58.9C83 90 90 83 90 74.4V15.6C90 7 83 0 74.4 0zM45.1 8.4c10.2 0 18.5 8.4 18.4 18.8-.1 10.1-8.4 18.3-18.7 18.3-10.1 0-18.4-8.4-18.4-18.6.1-10.2 8.5-18.6 18.7-18.5zm20.8 44.4c-2.3 2.3-5 4-8 5.2-2.9 1.1-6 1.6-9.1 2 .5.5.7.8 1 1.1 4.2 4.2 8.4 8.4 12.6 12.7 1.4 1.4 1.7 3.3 1 4.9-.9 1.8-2.8 3.1-4.7 3-1.2-.1-2.1-.7-3-1.5-3.2-3.2-6.4-6.3-9.6-9.6-.9-1-1.3-.8-2.1.1-3.2 3.3-6.4 6.5-9.8 9.8-1.4 1.4-3.3 1.7-4.9.9-1.8-.9-3-2.7-2.9-4.6.1-1.2.7-2.2 1.5-3.1l12.5-12.5 1-1c-5.7-.7-10.8-2-15.2-5.5-.6-.4-1.1-.9-1.6-1.3-1.9-1.8-2.1-3.9-.6-6.1 1.3-1.8 3.4-2.4 5.7-1.2.5.2.9.5 1.2.8 8.1 5.6 19.3 5.7 27.6.3.8-.6 1.7-1.1 2.7-1.3 1.9-.5 3.7.2 4.8 1.9 1.3 1.5 1.3 3.4-.1 5z"/></svg>