<svg version="1.1" id="Capa_1" xmlns="http://www.w3.org/2000/svg" x="0" y="0" viewBox="0 0 90 90" xml:space="preserve"><path d="M74.8 0H15.2C6.8 0 0 6.8 0 15.2v59.6C0 83.2 6.8 90 15.2 90h59.6C83.2 90 90 83.2 90 74.8V15.2C90 6.8 83.2 0 74.8 0zm-3.1 50.6c2.5 2.4 5.1 4.7 7.3 7.3 1 1.1 1.9 2.4 2.6 3.7 1 1.9.1 4-1.6 4.2H69.1c-2.8.2-5-.9-6.9-2.8-1.5-1.5-2.9-3.2-4.3-4.7-.6-.7-1.2-1.2-1.9-1.7-1.4-1-2.8-.7-3.5.9-.9 1.5-1.1 3.3-1.1 5.1-.1 2.6-.9 3.2-3.4 3.4-5.5.3-10.6-.6-15.4-3.4-4.3-2.5-7.6-5.8-10.4-9.8-5.6-7.6-9.9-15.8-13.7-24.3-.9-1.9-.2-3 1.9-3 3.5-.1 7.1-.1 10.5 0 1.4 0 2.4.9 3 2.2 1.9 4.7 4.2 9.1 7.2 13.2.8 1.1 1.5 2.2 2.7 3 1.2.9 2.2.6 2.8-.9.4-.9.6-1.8.6-2.8.3-3.3.3-6.5-.2-9.8-.3-2-1.4-3.4-3.4-3.7-1.1-.2-.9-.6-.4-1.1.9-1.1 1.7-1.6 3.4-1.6h12.2c1.9.4 2.4 1.2 2.6 3.2v13.5c0 .8.4 3 1.7 3.4 1.1.4 1.8-.5 2.4-1.1 2.9-3.1 5-6.8 6.9-10.5.9-1.6 1.5-3.4 2.2-5.2.5-1.2 1.3-1.9 2.8-1.9h11.7c.4 0 .7 0 1.1.1 2 .4 2.5 1.1 1.9 3.2-1 3.1-2.9 5.6-4.7 8-1.9 2.7-4 5.4-6 8-2.1 2.6-1.9 3.8.3 5.9z" fill="#f55e21"/></svg>