<svg width="52" height="42" fill="none" xmlns="http://www.w3.org/2000/svg"><path fill-rule="evenodd" clip-rule="evenodd" d="M.5 4.5h39.568L51.5 24.41V36.5H.5v-32zm3 3v26h45v-8.29L38.332 7.5H3.5z" fill="#E9EFE8"/><path fill-rule="evenodd" clip-rule="evenodd" d="M22.5 21V11h3v10h-3z" fill="#E9EFE8"/><path fill-rule="evenodd" clip-rule="evenodd" d="M29 17.5H19v-3h10v3zm-28.5 7h51v12H.5v-12zm3 3v6h45v-6h-45z" fill="#E9EFE8"/><path d="M15 35.5a4.5 4.5 0 11-9 0 4.5 4.5 0 019 0z" fill="#DA3E0D"/><path fill-rule="evenodd" clip-rule="evenodd" d="M10.5 32.5a3 3 0 100 6 3 3 0 000-6zm-6 3a6 6 0 1112 0 6 6 0 01-12 0z" fill="#E9EFE8"/><path d="M45 35.5a4.5 4.5 0 11-9 0 4.5 4.5 0 019 0z" fill="#DA3E0D"/><path fill-rule="evenodd" clip-rule="evenodd" d="M40.5 32.5a3 3 0 100 6 3 3 0 000-6zm-6 3a6 6 0 1112 0 6 6 0 01-12 0z" fill="#E9EFE8"/><path d="M35 5.5c0-.928-.316-1.818-.879-2.475C33.56 2.37 32.796 2 32 2s-1.559.369-2.121 1.025C29.316 3.682 29 4.572 29 5.5h6z" fill="#E9EFE8"/><path fill-rule="evenodd" clip-rule="evenodd" d="M28.74 2.049C29.56 1.093 30.725.5 32 .5c1.275 0 2.44.593 3.26 1.549.814.95 1.24 2.193 1.24 3.451V7h-9V5.5c0-1.258.426-2.502 1.24-3.451zM31.019 4h1.962c-.305-.355-.665-.5-.981-.5-.316 0-.676.145-.981.5z" fill="#E9EFE8"/></svg>