<svg width="38" height="39" fill="none" xmlns="http://www.w3.org/2000/svg"><path fill-rule="evenodd" clip-rule="evenodd" d="M3.619 3.048C1.952 4.72.443 6.366.266 6.708c-.5.966-.264 4.412.45 6.572 1.646 4.973 4.899 9.874 9.91 14.93 6.233 6.29 12.636 10.062 18.153 10.694 2.366.271 2.505.194 6.037-3.356C36.983 33.368 38 32.2 38 31.886c0-.377-.82-.953-4.455-3.13-2.45-1.468-4.618-2.67-4.818-2.67-.2 0-1.143.758-2.097 1.683-.953.925-1.975 1.744-2.271 1.82-1.152.292-3.836-1.034-6.613-3.266-4.785-3.849-9.21-10.082-8.678-12.226.073-.296.787-1.239 1.586-2.094.949-1.016 1.45-1.725 1.446-2.043C12.092 9.35 7.3.22 6.924.1 6.774.05 5.286 1.376 3.62 3.047zm13.5-1.665v1.383l1.095.141c8.79 1.133 15.354 7.83 16.547 16.883l.132 1.006h2.747l-.14-1.563c-.488-5.459-3.842-11.246-8.673-14.967-2.79-2.149-6.844-3.78-10.233-4.119L17.118 0v1.383zm.074 5.34c-.054.143-.07.764-.035 1.38l.064 1.118 1.462.349c2.785.664 5.517 2.359 7.08 4.392 1.094 1.422 2.166 3.732 2.483 5.352l.27 1.376h2.696l-.063-.741c-.39-4.572-3.739-9.496-7.97-11.719-2.314-1.215-5.768-2.085-5.987-1.507zm.01 6.535c-.061.161-.082.7-.046 1.197.06.835.126.925.854 1.179 1.771.619 3.39 2.253 4.146 4.186.34.868.343.87 1.462.87 1.066 0 1.12-.027 1.087-.53-.077-1.204-.96-2.998-2.08-4.225-1.3-1.421-2.401-2.14-4.032-2.63-1.364-.41-1.255-.406-1.391-.047z" fill="#E9EFE8"/></svg>