<svg width="101" height="113" fill="none" xmlns="http://www.w3.org/2000/svg"><path d="M3 93.535l17.274 16.501 8.858-7.136h34.389a23 23 0 0016.71-7.195l15.966-16.88a5.384 5.384 0 00-7.771-7.455l-7.58 7.79a34.228 34.228 0 01-24.533 10.36h-7.692l-3.543-3.567 15.504-4.51a4.98 4.98 0 00-1.39-9.761H33.027a20 20 0 00-14.19 5.906L3 93.535z" stroke="#434343" stroke-width="5" stroke-linejoin="round"/><path d="M88.843 21.563c.457 13.447-21.916 32.652-33.16 39.414-10.862-6.955-33.728-22.025-33.73-39.414C21.951 7.583 41.39-6.26 55.683 11.13c15.438-17.39 32.702-3.015 33.16 10.432z" stroke="#A4BA04" stroke-width="5"/><path d="M73.235 27.534c.237 6.465-11.322 15.698-17.132 18.949-5.612-3.344-17.426-10.59-17.427-18.95-.001-6.72 10.042-13.375 17.427-5.015C64.08 14.158 73 21.07 73.235 27.534z" stroke="#F55E21" stroke-width="5"/></svg>