<svg width="98" height="110" fill="none" xmlns="http://www.w3.org/2000/svg"><path fill-rule="evenodd" clip-rule="evenodd" d="M26.374 36.375H17v-6h9.374v-9.374h6v9.374h9.375v6h-9.375v9.374h-6v-9.374z" fill="#F55E21"/><path d="M36 62c0 2.761-3.134 5-7 5s-7-2.239-7-5 3.134-5 7-5 7 2.239 7 5z" fill="#434343"/><path fill-rule="evenodd" clip-rule="evenodd" d="M33.368 64.722C34.45 63.95 35 62.974 35 62s-.551-1.95-1.632-2.722C32.29 58.508 30.748 58 29 58c-1.749 0-3.29.508-4.369 1.278C23.551 60.05 23 61.026 23 62s.551 1.95 1.631 2.722C25.712 65.492 27.252 66 29 66c1.749 0 3.29-.508 4.368-1.278zM29 67c3.866 0 7-2.239 7-5s-3.134-5-7-5-7 2.239-7 5 3.134 5 7 5z" fill="#434343"/><path d="M88 62a5 5 0 11-10 0 5 5 0 0110 0z" fill="#A4BA04"/><path fill-rule="evenodd" clip-rule="evenodd" d="M49.621 4.379L59 13.758V32.5C59 48.793 45.792 62 29.5 62S0 48.793 0 32.5V13.81l8.815-9.366 4.37 4.112L6 16.19V32.5C6 45.48 16.521 56 29.5 56S53 45.48 53 32.5V16.243l-7.621-7.621 4.242-4.243z" fill="#434343"/><path d="M20 7A7 7 0 116 7a7 7 0 0114 0zm31 0a7 7 0 11-14 0 7 7 0 0114 0z" fill="#A4BA04"/><path fill-rule="evenodd" clip-rule="evenodd" d="M26.5 69.5V64h6v5.5c0 13.255 10.745 24 24 24h5c10.493 0 19-8.507 19-19h6c0 13.807-11.193 25-25 25h-5c-16.569 0-30-13.431-30-30z" fill="#434343"/><path fill-rule="evenodd" clip-rule="evenodd" d="M83 71a9 9 0 100-18 9 9 0 000 18zm0 6c8.284 0 15-6.716 15-15 0-8.284-6.716-15-15-15-8.284 0-15 6.716-15 15 0 8.284 6.716 15 15 15z" fill="#F55E21"/><path fill-rule="evenodd" clip-rule="evenodd" d="M4.29 56.535a3 3 0 014.175.755c1.736 2.503 3.104 4.011 4.68 5.106 1.575 1.094 3.569 1.92 6.778 2.701a3 3 0 012.29 2.84l.22 8.766c.38 15.185 12.8 27.297 27.99 27.297H52a3 3 0 110 6h-1.577c-18.445 0-33.526-14.707-33.989-33.147l-.164-6.527c-2.538-.758-4.654-1.687-6.548-3.002-2.424-1.684-4.273-3.855-6.186-6.613a3 3 0 01.754-4.175z" fill="#434343"/></svg>