<svg width="123" height="93" fill="none" xmlns="http://www.w3.org/2000/svg"><path fill-rule="evenodd" clip-rule="evenodd" d="M98.838 11.729a41.124 41.124 0 00-54.19 8.237 2.518 2.518 0 11-3.882-3.208 46.16 46.16 0 11-9.223 18.312 2.518 2.518 0 114.889 1.21 41.124 41.124 0 1062.406-24.552z" fill="#434343"/><path fill-rule="evenodd" clip-rule="evenodd" d="M0 89.707c0-1.444 1.125-2.613 2.512-2.613h74.522c1.387 0 2.512 1.17 2.512 2.613s-1.125 2.612-2.512 2.612H2.512C1.125 92.32 0 91.15 0 89.707zm0-11.612c0-1.443 1.128-2.613 2.52-2.613h41.99c1.392 0 2.52 1.17 2.52 2.613s-1.128 2.613-2.52 2.613H2.52c-1.391 0-2.52-1.17-2.52-2.613zM0 66.48c0-1.443 1.119-2.613 2.5-2.613h33.322c1.38 0 2.5 1.17 2.5 2.613s-1.12 2.613-2.5 2.613H2.5c-1.38 0-2.5-1.17-2.5-2.613z" fill="#434343"/><path fill-rule="evenodd" clip-rule="evenodd" d="M76.35 74.537c15.674 0 28.379-12.705 28.379-28.378 0-15.672-12.705-28.378-28.378-28.378S47.973 30.487 47.973 46.16c0 15.673 12.705 28.378 28.378 28.378zm0 5.008c18.44 0 33.387-14.947 33.387-33.386 0-18.438-14.948-33.386-33.386-33.386-18.439 0-33.386 14.948-33.386 33.386 0 18.439 14.947 33.386 33.386 33.386z" fill="#F55E21"/><path fill-rule="evenodd" clip-rule="evenodd" d="M73.738 27.486c0-1.391 1.142-2.52 2.55-2.52 4.205 0 8.314 1.232 11.81 3.54a21.054 21.054 0 017.828 9.422 20.757 20.757 0 011.21 12.13 20.918 20.918 0 01-5.817 10.75 2.573 2.573 0 01-3.608 0L74.485 47.744a2.504 2.504 0 01-.747-1.782V27.486zm5.102 2.72v14.713l10.532 10.403a15.858 15.858 0 002.76-6.247 15.776 15.776 0 00-.919-9.219 16 16 0 00-5.95-7.161 16.27 16.27 0 00-6.424-2.49z" fill="#A4BA04"/></svg>