<svg width="218" height="218" fill="none" xmlns="http://www.w3.org/2000/svg"><circle cx="109" cy="109" r="107" fill="#fff" stroke="#ACBF05" stroke-width="4"/><path d="M49.506 167.746l34.669-60.048 32.025 18.49-34.668 60.047-6.768-25.257-25.258 6.768z" fill="#E9EFE8" stroke="#F55E21" stroke-width="6"/><path d="M169.029 167.746l-34.669-60.048-32.025 18.49 34.668 60.047 6.768-25.257 25.258 6.768z" fill="#E9EFE8" stroke="#F55E21" stroke-width="6"/><path d="M164.851 90.167c0 31.524-25.297 57.029-56.44 57.029-31.143 0-56.44-25.505-56.44-57.029 0-31.524 25.297-57.029 56.44-57.029 31.143 0 56.44 25.505 56.44 57.03z" fill="#fff" stroke="#608D00" stroke-width="6"/><path d="M104.326 47.277a6.385 6.385 0 019.349 0 6.385 6.385 0 007.329 1.458 6.386 6.386 0 018.638 3.578 6.384 6.384 0 006.213 4.151 6.385 6.385 0 016.611 6.611 6.386 6.386 0 004.151 6.213 6.385 6.385 0 013.578 8.638 6.384 6.384 0 001.458 7.329 6.385 6.385 0 010 9.349 6.385 6.385 0 00-1.458 7.329 6.385 6.385 0 01-3.578 8.637 6.386 6.386 0 00-4.151 6.214 6.384 6.384 0 01-6.611 6.61 6.385 6.385 0 00-6.213 4.152 6.386 6.386 0 01-8.638 3.578 6.384 6.384 0 00-7.329 1.457 6.384 6.384 0 01-9.349 0 6.384 6.384 0 00-7.329-1.457 6.385 6.385 0 01-8.637-3.578 6.385 6.385 0 00-6.213-4.152 6.384 6.384 0 01-6.611-6.61 6.385 6.385 0 00-4.152-6.214 6.384 6.384 0 01-3.578-8.637 6.385 6.385 0 00-1.457-7.33 6.385 6.385 0 010-9.348 6.385 6.385 0 001.457-7.33 6.385 6.385 0 013.578-8.637 6.385 6.385 0 004.152-6.213 6.385 6.385 0 016.61-6.61 6.385 6.385 0 006.214-4.152 6.385 6.385 0 018.637-3.578 6.385 6.385 0 007.329-1.458z" fill="#E9EFE8" stroke="#ACBF05" stroke-width="3"/><path d="M100.761 80.205l10.593-11.224v47.081" stroke="#F55E21" stroke-width="6" stroke-linejoin="bevel"/></svg>