<svg width="107" height="52" fill="none" xmlns="http://www.w3.org/2000/svg"><path fill="#ACBF05" stroke="#608D00" stroke-width="5" stroke-linejoin="round" d="M15.317 3h28.329v45.573H15.317z"/><path fill="#434343" stroke="#608D00" stroke-width="5" stroke-linejoin="round" d="M15.317 36.256h28.329v12.317H15.317z"/><path d="M20.923 11.162c11.408-2.152 17.769-3.144 28.33 0 4.31 2.923 6.84 9.85 4.31 17.088H25.235c-6.21-3.925-8.012-10.8-4.31-17.088z" fill="#FF6230" stroke="#DA3E0D" stroke-width="5" stroke-linejoin="round"/><path d="M22.707 11.162c11.408-2.152 17.769-3.144 28.33 0 4.31 2.923 6.84 9.85 4.31 17.088H27.019c2.845-7.215 1.232-14.165-4.31-17.088z" fill="#FF6230" stroke="#DA3E0D" stroke-width="5" stroke-linejoin="round"/><path fill="#E9EFE8" stroke="#608D00" stroke-width="5" stroke-linejoin="round" d="M64.585 16.549h28.329v32.024H64.585z"/><path fill="#ACBF05" stroke="#608D00" stroke-width="5" stroke-linejoin="round" d="M31.329 25.171h33.256v11.085H31.329z"/><path fill="#fff" stroke="#608D00" stroke-width="5" stroke-linejoin="round" d="M15.317 25.171h16.012v11.085H15.317z"/><path d="M3 48.573h101" stroke="#434343" stroke-width="5" stroke-linecap="round" stroke-linejoin="round"/></svg>