<svg width="33" height="23" fill="none" xmlns="http://www.w3.org/2000/svg"><path d="M17.126 10v11m0 0l3-2.839m-3 2.839l-3-2.839" stroke="#679100" stroke-width="2"/><path fill-rule="evenodd" clip-rule="evenodd" d="M6.845 15.5l-.092-.003a4.95 4.95 0 111.763-9.641l1.46.487.845-1.288A6.754 6.754 0 0122.993 7l.554 2.072 2.028-.697a3.662 3.662 0 111.548 7.11l-.18.017h-4.422v2h4.793v-.027a5.663 5.663 0 10-2.389-10.991A8.753 8.753 0 009.148 3.959a6.949 6.949 0 10-2.473 13.537v.005h5.231v-2H6.845z" fill="#F55E21"/></svg>