<svg version="1.1" id="Layer_1" xmlns="http://www.w3.org/2000/svg" x="0" y="0" viewBox="0 0 92 109" xml:space="preserve"><path d="M60 0H0v109h92V22L60 0zm28 105H4V87h84v18zM4 49V4h54.8L88 24.1V49H4z" fill="#f55e21"/><path d="M30.2 55.8h-6.7V81h3.6v-8.9h3c4.9 0 7.7-2.9 7.7-8.2.1-5.1-2.7-8.1-7.6-8.1zm-.1 12.9h-3v-9.4h3c2.7 0 4.1 1.6 4.1 4.7 0 3.2-1.3 4.7-4.1 4.7zM42.8 81h6.3c4.9 0 7.7-2.9 7.7-7.9v-9.4c0-5-2.9-7.8-7.8-7.8h-6.3V81zm3.7-3.5V59.3h2.7c2.6 0 4.1 1.5 4.1 4.5V73c0 3-1.5 4.5-4.1 4.5h-2.7zm28.4-18.3v-3.4H63V81h3.6V70.1h7.6v-3.3h-7.6v-7.5h8.3z" fill="#fff"/></svg>