<svg width="103" height="70" fill="none" xmlns="http://www.w3.org/2000/svg"><circle cx="29.721" cy="29.721" r="26.721" fill="#F55E21" stroke="#DA3E0D" stroke-width="5"/><path fill-rule="evenodd" clip-rule="evenodd" d="M38.122 59.47a8.703 8.703 0 115.813-15.64c.3-8.064 6.934-14.51 15.074-14.51 5.838 0 10.9 3.316 13.409 8.167a11.555 11.555 0 015.156-1.206c6.409 0 11.603 5.195 11.603 11.604 0 6.017-4.579 10.964-10.443 11.546v.057H38.122v-.019z" fill="#fff"/><path d="M38.122 59.47h2.5a2.5 2.5 0 00-2.335-2.495l-.165 2.494zm5.813-15.64l-1.505 1.998a2.5 2.5 0 004.003-1.904l-2.498-.093zm28.483-6.343l-2.221 1.148a2.5 2.5 0 003.333 1.091l-1.112-2.239zm6.316 21.944l-.246-2.488a2.5 2.5 0 00-2.254 2.488h2.5zm0 .057v2.5a2.5 2.5 0 002.5-2.5h-2.5zm-40.612 0h-2.5a2.5 2.5 0 002.5 2.5v-2.5zm.165-2.513a6.203 6.203 0 01-5.787-6.19h-5c0 5.938 4.617 10.794 10.458 11.179l.329-4.99zm-5.787-6.19a6.203 6.203 0 016.203-6.202v-5c-6.187 0-11.203 5.016-11.203 11.203h5zm6.203-6.202c1.402 0 2.69.463 3.727 1.245l3.01-3.994a11.165 11.165 0 00-6.737-2.25v5zm7.73-.659c.251-6.727 5.786-12.105 12.576-12.105v-5c-9.489 0-17.221 7.515-17.572 16.919l4.996.186zM59.009 31.82c4.866 0 9.092 2.762 11.188 6.816l4.441-2.296c-2.92-5.649-8.82-9.52-15.63-9.52v5zm14.52 7.907a9.057 9.057 0 014.045-.945v-5c-2.247 0-4.378.528-6.269 1.468l2.225 4.477zm4.045-.945a9.103 9.103 0 019.103 9.104h5c0-7.79-6.314-14.104-14.103-14.104v5zm9.103 9.104a9.105 9.105 0 01-8.19 9.058l.495 4.976c7.129-.708 12.695-6.72 12.695-14.034h-5zM76.234 59.43v.057h5v-.057h-5zm2.5-2.443H38.122v5h40.612v-5zm-38.112 2.5v-.019h-5v.02h5z" fill="#E9EFE8"/><path fill-rule="evenodd" clip-rule="evenodd" d="M91.34 59.488H62.035v-.014a6.465 6.465 0 114.318-11.617c.223-5.991 5.151-10.78 11.197-10.78 4.337 0 8.098 2.464 9.961 6.068a8.62 8.62 0 114.693 16.301v.042h-.862z" fill="#fff"/><path d="M62.034 59.488h-2.5a2.5 2.5 0 002.5 2.5v-2.5zm0-.014h2.5a2.5 2.5 0 00-2.336-2.494l-.164 2.494zm4.318-11.617l-1.505 1.997a2.5 2.5 0 004.003-1.904l-2.498-.093zm21.158-4.712l-2.22 1.148a2.5 2.5 0 003.333 1.09l-1.113-2.238zm4.693 16.3l-.247-2.487a2.5 2.5 0 00-2.253 2.488h2.5zm0 .043v2.5a2.5 2.5 0 002.5-2.5h-2.5zm-.862-2.5H77.549v5h13.792v-5zm-13.792 0H62.465v5h15.084v-5zm-15.084 0h-.431v5h.43v-5zm2.069 2.5v-.014h-5v.014h5zm-2.336-2.508a3.965 3.965 0 01-3.698-3.956h-5a8.965 8.965 0 008.37 8.945l.328-4.99zM58.5 53.024a3.965 3.965 0 013.965-3.965v-5a8.965 8.965 0 00-8.965 8.965h5zm3.965-3.965c.897 0 1.719.295 2.382.795l3.01-3.993a8.936 8.936 0 00-5.392-1.802v5zm6.385-1.108a8.706 8.706 0 018.7-8.374v-5c-7.396 0-13.423 5.857-13.697 13.187l4.997.186zm8.7-8.374a8.707 8.707 0 017.74 4.716l4.441-2.296c-2.275-4.402-6.874-7.42-12.182-7.42v5zm11.073 5.807a6.084 6.084 0 012.718-.635v-5c-1.77 0-3.451.416-4.943 1.157l2.225 4.478zm2.718-.635a6.12 6.12 0 016.12 6.12h4.999c0-6.142-4.978-11.12-11.12-11.12v5zm6.12 6.12a6.12 6.12 0 01-5.505 6.089l.494 4.976c5.622-.559 10.01-5.298 10.01-11.065h-5zm-7.758 8.577v.042h5v-.042h-5zm2.5-2.458h-.862v5h.862v-5z" fill="#E9EFE8"/><path d="M49 67.32h32.324" stroke="#434343" stroke-width="5" stroke-linecap="round"/><path d="M75.14 13.32c3.062 2.372 4.073 4.045 4.309 7.79 2.705-2.553 4.733-3.16 8.588-2.344" stroke="#A4BA04" stroke-width="5" stroke-linecap="round" stroke-linejoin="round"/></svg>