<svg width="102" height="69" fill="none" xmlns="http://www.w3.org/2000/svg"><path fill-rule="evenodd" clip-rule="evenodd" d="M87.945 52.38A31.001 31.001 0 0179 53.69c-17.12 0-31-13.88-31-31A30.873 30.873 0 0155.055 3C42.295 6.839 33 18.679 33 32.69c0 17.12 13.88 31 31 31 9.644 0 18.26-4.404 23.945-11.31z" fill="#A4BA04"/><path d="M87.945 52.38l1.93 1.589a2.5 2.5 0 00-2.65-3.983l.72 2.394zM55.055 3l1.93 1.589a2.5 2.5 0 00-2.65-3.983L55.055 3zm32.17 46.986A28.504 28.504 0 0179 51.19v5c3.356 0 6.602-.494 9.665-1.416l-1.44-4.788zM79 51.19c-15.74 0-28.5-12.76-28.5-28.5h-5c0 18.501 14.998 33.5 33.5 33.5v-5zm-28.5-28.5a28.373 28.373 0 016.485-18.101l-3.86-3.178A33.373 33.373 0 0045.5 22.69h5zm-15 10c0-12.877 8.542-23.766 20.275-27.296L54.335.606C40.548 4.754 30.5 17.546 30.5 32.69h5zM64 61.19c-15.74 0-28.5-12.76-28.5-28.5h-5c0 18.502 14.998 33.5 33.5 33.5v-5zm22.015-10.399C80.784 57.145 72.865 61.19 64 61.19v5c10.423 0 19.735-4.763 25.875-12.221l-3.86-3.178z" fill="#679100"/><path fill-rule="evenodd" clip-rule="evenodd" d="M44 66H10v-.016a7.5 7.5 0 115.01-13.478C15.268 45.556 20.985 40 28 40a13 13 0 0111.556 7.04A9.958 9.958 0 0144 46c5.523 0 10 4.477 10 10 0 5.185-3.947 9.449-9 9.95V66h-1z" fill="#fff"/><path d="M10 66H7.5a2.5 2.5 0 002.5 2.5V66zm0-.016h2.5a2.5 2.5 0 00-2.336-2.495L10 65.984zm5.01-13.478l-1.505 1.997a2.5 2.5 0 004.002-1.903l-2.498-.094zm24.546-5.467l-2.22 1.148a2.5 2.5 0 003.332 1.091l-1.112-2.239zM45 65.951l-.247-2.488A2.5 2.5 0 0042.5 65.95H45zM45 66v2.5a2.5 2.5 0 002.5-2.5H45zm-1-2.5H28v5h16v-5zm-16 0H10.5v5H28v-5zm-17.5 0H10v5h.5v-5zm2 2.5v-.016h-5V66h5zm-2.336-2.511A5 5 0 015.5 58.5h-5c0 5.3 4.121 9.635 9.336 9.978l.328-4.989zM5.5 58.5a5 5 0 015-5v-5c-5.523 0-10 4.477-10 10h5zm5-5c1.131 0 2.168.373 3.005 1.003l3.009-3.993A9.966 9.966 0 0010.5 48.5v5zm7.008-.9c.209-5.613 4.827-10.1 10.492-10.1v-5c-8.364 0-15.18 6.624-15.49 14.913l4.998.187zM28 42.5a10.5 10.5 0 019.335 5.687l4.442-2.296C39.203 40.912 34.002 37.5 28 37.5v5zm12.668 6.778A7.465 7.465 0 0144 48.5v-5c-1.99 0-3.88.467-5.556 1.3l2.224 4.478zM44 48.5a7.5 7.5 0 017.5 7.5h5c0-6.904-5.596-12.5-12.5-12.5v5zm7.5 7.5a7.501 7.501 0 01-6.747 7.463l.494 4.975C51.567 67.811 56.5 62.483 56.5 56h-5zm-9 9.95V66h5v-.05h-5zM45 63.5h-1v5h1v-5z" fill="#434343"/><path d="M74 15v13m21 1v11M70 21h8m13 13h8" stroke="#F55E21" stroke-width="5" stroke-linecap="round" stroke-linejoin="round"/></svg>