<svg width="16" height="22" viewBox="0 0 16 22" fill="none" xmlns="http://www.w3.org/2000/svg">
<path d="M15 7.78462C15 8.61432 14.5933 9.86303 13.8516 11.3804C13.1285 12.8595 12.1547 14.4616 11.1666 15.952C10.1807 17.4388 9.19309 18.7958 8.45092 19.7822C8.28769 19.9992 8.13649 20.198 8 20.376C7.86351 20.198 7.71231 19.9992 7.54908 19.7822C6.80691 18.7958 5.81926 17.4388 4.83344 15.952C3.84529 14.4616 2.87149 12.8595 2.1484 11.3804C1.40665 9.86303 1 8.61432 1 7.78462C1 4.06313 4.1081 1 8 1C11.8919 1 15 4.06313 15 7.78462Z" stroke="#F55E21" stroke-width="2"/>
</svg>
