<svg width="154" height="154" fill="none" xmlns="http://www.w3.org/2000/svg"><g filter="url(#filter0_d)"><circle cx="72" cy="72" r="72" fill="#E9EFE8"/></g><path d="M56.102 96h6.16l9.632-39.2h-5.88l-4.76 21.616c-.728 3.472-1.4 7.28-1.96 10.416h-.224c-.56-3.136-1.176-6.944-1.96-10.416L52.406 56.8H46.47L56.102 96zm28.725.728c7.336 0 11.424-4.984 11.424-10.808 0-12.152-16.464-12.152-16.464-19.824 0-2.8 1.848-4.592 5.04-4.592 3.024 0 4.984 1.792 5.096 5.544h5.768c-.168-6.664-4.2-10.976-10.92-10.976-6.608 0-10.752 4.256-10.752 9.912 0 11.648 16.408 12.096 16.408 19.88 0 3.136-1.848 5.376-5.6 5.376-3.472 0-5.656-1.96-5.712-5.992h-5.768c.056 7.168 4.536 11.48 11.48 11.48z" fill="#FF6230"/><defs><filter id="filter0_d" x="0" y="0" width="154" height="154" filterUnits="userSpaceOnUse" color-interpolation-filters="sRGB"><feFlood flood-opacity="0" result="BackgroundImageFix"/><feColorMatrix in="SourceAlpha" values="0 0 0 0 0 0 0 0 0 0 0 0 0 0 0 0 0 0 127 0"/><feOffset dx="10" dy="10"/><feColorMatrix values="0 0 0 0 0.2625 0 0 0 0 0.2625 0 0 0 0 0.2625 0 0 0 0.2 0"/><feBlend in2="BackgroundImageFix" result="effect1_dropShadow"/><feBlend in="SourceGraphic" in2="effect1_dropShadow" result="shape"/></filter></defs></svg>