<svg width="113" height="66" fill="none" xmlns="http://www.w3.org/2000/svg"><path fill-rule="evenodd" clip-rule="evenodd" d="M95.456 17.324a2.112 2.112 0 01-2.113 2.112H71.377a2.112 2.112 0 110-4.224h21.966c1.167 0 2.113.946 2.113 2.112zm-5.07 10.983a2.112 2.112 0 01-2.112 2.112H66.308a2.112 2.112 0 110-4.224h21.966c1.167 0 2.112.946 2.112 2.112zM85.317 39.29a2.112 2.112 0 01-2.112 2.112H61.239a2.112 2.112 0 110-4.224h21.966c1.166 0 2.112.946 2.112 2.112z" fill="#A4BA04"/><path fill-rule="evenodd" clip-rule="evenodd" d="M65.208 5.901a2.112 2.112 0 011.928-1.25h41.821a2.112 2.112 0 011.928 2.976L89.341 55.783a2.112 2.112 0 01-1.928 1.25h-41.82a2.112 2.112 0 01-1.928-2.975L65.208 5.901zm3.297 2.975L48.851 52.81h37.193l19.654-43.933H68.505z" fill="#434343"/><path fill-rule="evenodd" clip-rule="evenodd" d="M111.659 22.536a2.112 2.112 0 011.139 2.761L96.455 64.568a2.112 2.112 0 01-1.95 1.3h-38.54a2.112 2.112 0 010-4.224h37.131l15.802-37.97a2.112 2.112 0 012.761-1.138z" fill="#434343"/><path fill-rule="evenodd" clip-rule="evenodd" d="M47.271 39.3c-.66.66-1.73.66-2.39 0l-1.194-1.194-9.352-2.157a1.69 1.69 0 01-.816-.452L9.166 11.144a1.69 1.69 0 112.39-2.39l23.158 23.159 5.17-5.17L17.92 4.78l-1.39 1.39 18.107 18.107a1.69 1.69 0 11-2.39 2.39L12.945 7.364a1.69 1.69 0 010-2.39l3.78-3.78a1.69 1.69 0 012.39 0l24.353 24.354c.224.224.38.507.452.816l2.157 9.352 1.194 1.195c.66.66.66 1.73 0 2.39zm-4.986-4.986l-.973-4.22-3.247 3.247 4.22.973z" fill="#F55E21"/><path fill-rule="evenodd" clip-rule="evenodd" d="M2.155 11.829a1.69 1.69 0 010-2.39l7.466-7.466a1.69 1.69 0 012.39 2.39l-6.271 6.27 21.31 21.313a1.69 1.69 0 11-2.39 2.39L2.155 11.829z" fill="#F55E21"/></svg>