<svg width="104" height="104" fill="none" xmlns="http://www.w3.org/2000/svg"><path fill-rule="evenodd" clip-rule="evenodd" d="M52 98.583c25.727 0 46.583-20.856 46.583-46.583C98.583 26.273 77.727 5.417 52 5.417 26.273 5.417 5.417 26.273 5.417 52c0 25.727 20.856 46.583 46.583 46.583zM52 104c28.719 0 52-23.281 52-52S80.719 0 52 0 0 23.281 0 52s23.281 52 52 52z" fill="#434343"/><path fill-rule="evenodd" clip-rule="evenodd" d="M21.74 82.258A42.792 42.792 0 0152 9.208a2.708 2.708 0 110 5.416 37.375 37.375 0 000 74.75 2.708 2.708 0 010 5.417 42.792 42.792 0 01-30.26-12.533z" fill="#F55E21"/><path fill-rule="evenodd" clip-rule="evenodd" d="M46.665 33.311a6.173 6.173 0 00-6.132 6.214l.025 3.654a2.708 2.708 0 01-5.416.037l-.025-3.654c-.043-6.4 5.11-11.624 11.511-11.667 6.4-.043 11.624 5.11 11.667 11.511l.039 5.747a10.853 10.853 0 01-5.996 9.779 5.436 5.436 0 00-3.003 4.898l.017 2.54a2.708 2.708 0 11-5.417.037l-.017-2.54a10.853 10.853 0 015.996-9.78 5.436 5.436 0 003.003-4.898l-.038-5.746a6.173 6.173 0 00-6.214-6.132zm.007 33.38a2.708 2.708 0 012.727 2.69l.025 3.74a2.708 2.708 0 01-5.417.037l-.025-3.74a2.708 2.708 0 012.69-2.726zm28.565-20.245a3.836 3.836 0 00-5.133 1.754l-1.122 2.287a2.708 2.708 0 01-4.863-2.386l1.122-2.287a9.252 9.252 0 0116.613 8.151l-1.77 3.607a8.65 8.65 0 01-7.81 4.84 3.234 3.234 0 00-2.92 1.81l-.79 1.611a2.708 2.708 0 11-4.863-2.386l.79-1.611a8.65 8.65 0 017.81-4.84 3.233 3.233 0 002.92-1.81l1.77-3.607a3.836 3.836 0 00-1.754-5.133zM64.674 67.614a2.708 2.708 0 011.238 3.624l-.783 1.596a2.708 2.708 0 01-4.863-2.386l.783-1.596a2.708 2.708 0 013.625-1.239z" fill="#A4BA04"/></svg>