<svg width="22" height="23" viewBox="0 0 22 23" fill="none" xmlns="http://www.w3.org/2000/svg">
<path fill-rule="evenodd" clip-rule="evenodd" d="M1.2866 1.17951C2.29203 0.233216 3.87422 0.281161 4.82051 1.2866L11 7.85231L17.1795 1.2866C18.1258 0.281161 19.708 0.233216 20.7134 1.17951C21.7189 2.1258 21.7668 3.70798 20.8205 4.71342L14.4331 11.5L20.8205 18.2866C21.7668 19.292 21.7189 20.8742 20.7134 21.8205C19.708 22.7668 18.1258 22.7189 17.1795 21.7134L11 15.1477L4.82051 21.7134C3.87422 22.7189 2.29203 22.7668 1.2866 21.8205C0.281161 20.8742 0.233216 19.292 1.17951 18.2866L7.56688 11.5L1.17951 4.71342C0.233216 3.70798 0.281161 2.1258 1.2866 1.17951Z" fill="#F55E21"/>
</svg>
