<svg width="103" height="108" fill="none" xmlns="http://www.w3.org/2000/svg"><path fill-rule="evenodd" clip-rule="evenodd" d="M59.26 37.447c8.255 0 15.316-7.055 15.316-16.224C74.576 12.055 67.516 5 59.26 5c-8.255 0-15.316 7.055-15.316 16.223 0 9.169 7.061 16.224 15.316 16.224zm0 5c11.22 0 20.316-9.502 20.316-21.224C79.576 9.502 70.48 0 59.26 0 48.04 0 38.945 9.502 38.945 21.223c0 11.722 9.096 21.224 20.316 21.224zm23.041 43.021c.888-1.44 1.585-3.644 1.585-7.147 0-13.94-11.1-25.102-24.625-25.102-13.524 0-24.624 11.163-24.624 25.102 0 3.503.697 5.707 1.585 7.147.862 1.4 2.15 2.48 4.086 3.322 4.241 1.845 10.562 2.17 18.953 2.17 8.392 0 14.712-.325 18.954-2.17 1.935-.842 3.223-1.922 4.086-3.322zm-23.04 10.493c16.361 0 29.625-1.015 29.625-17.64S75.623 48.219 59.26 48.219c-16.36 0-29.624 13.477-29.624 30.102S42.9 95.961 59.26 95.961z" fill="#F55E21"/><path fill-rule="evenodd" clip-rule="evenodd" d="M28.12 16.32a2.5 2.5 0 012.5 2.5c-.002 11.757 6.656 19.963 9.763 22.45a2.5 2.5 0 01-.684 4.292C33.757 47.79 21.08 57.657 22.053 79.068a2.5 2.5 0 11-4.995.227c-.936-20.608 9.595-32.151 17.473-36.764-4.017-4.52-8.913-12.816-8.911-23.711a2.5 2.5 0 012.5-2.5z" fill="#434343"/><path fill-rule="evenodd" clip-rule="evenodd" d="M11.12 16.32a2.5 2.5 0 012.5 2.5c-.002 11.757 6.656 19.963 9.763 22.45a2.5 2.5 0 01-.684 4.292C16.757 47.79 4.08 57.657 5.053 79.068a2.5 2.5 0 11-4.995.227C-.878 58.687 9.653 47.144 17.531 42.53c-4.017-4.52-8.913-12.816-8.911-23.711a2.5 2.5 0 012.5-2.5zm79.28 0a2.5 2.5 0 00-2.5 2.5c.001 11.757-6.656 19.963-9.764 22.45a2.5 2.5 0 00.684 4.292c5.942 2.228 18.62 12.095 17.646 33.506a2.5 2.5 0 104.995.227c.937-20.608-9.594-32.151-17.472-36.764 4.016-4.52 8.912-12.816 8.91-23.711a2.5 2.5 0 00-2.5-2.5z" fill="#434343"/><path d="M102.747 84.803c0 12.798-10.374 23.173-23.172 23.173S56.402 97.601 56.402 84.803c0-12.797 10.375-23.172 23.173-23.172 12.797 0 23.172 10.374 23.172 23.172z" fill="#fff"/><path fill-rule="evenodd" clip-rule="evenodd" d="M79.575 102.976c10.036 0 18.172-8.136 18.172-18.173 0-10.036-8.136-18.172-18.172-18.172-10.037 0-18.173 8.136-18.173 18.172 0 10.037 8.136 18.173 18.173 18.173zm0 5c12.797 0 23.172-10.375 23.172-23.173 0-12.797-10.374-23.172-23.172-23.172S56.402 72.005 56.402 84.803s10.375 23.173 23.173 23.173z" fill="#A4BA04"/><path fill-rule="evenodd" clip-rule="evenodd" d="M91.125 79.4a2.5 2.5 0 010 3.536L79.94 94.12a2.5 2.5 0 01-3.536 0l-7.195-7.197a2.5 2.5 0 113.536-3.535l5.427 5.429L87.59 79.4a2.5 2.5 0 013.536 0z" fill="#A4BA04"/></svg>