<svg width="133" height="78" fill="none" xmlns="http://www.w3.org/2000/svg"><path fill-rule="evenodd" clip-rule="evenodd" d="M111.848 20.506a2.5 2.5 0 01-2.5 2.5h-26a2.5 2.5 0 110-5h26a2.5 2.5 0 012.5 2.5zm-6 13a2.5 2.5 0 01-2.5 2.5h-26a2.5 2.5 0 110-5h26a2.5 2.5 0 012.5 2.5zm-6 13a2.5 2.5 0 01-2.5 2.5h-26a2.5 2.5 0 110-5h26a2.5 2.5 0 012.5 2.5z" fill="#A4BA04"/><path fill-rule="evenodd" clip-rule="evenodd" d="M76.046 6.985a2.5 2.5 0 012.282-1.48h49.5a2.5 2.5 0 012.282 3.522l-25.5 57a2.5 2.5 0 01-2.282 1.479h-49.5a2.5 2.5 0 01-2.282-3.521l25.5-57zm3.902 3.52l-23.263 52h44.023l23.263-52H79.948z" fill="#434343"/><path fill-rule="evenodd" clip-rule="evenodd" d="M131.027 26.673a2.5 2.5 0 011.348 3.269l-19.344 46.482a2.5 2.5 0 01-2.308 1.54H65.106a2.5 2.5 0 010-5h43.949l18.703-44.943a2.5 2.5 0 013.269-1.348z" fill="#434343"/><path fill-rule="evenodd" clip-rule="evenodd" d="M54.815 46.517a2 2 0 01-2.828 0l-1.414-1.414-11.07-2.553a2 2 0 01-.965-.534L9.712 13.19a2 2 0 112.828-2.829l27.412 27.412 6.12-6.119L20.073 5.657l-1.646 1.645L39.86 28.734a2 2 0 01-2.829 2.828L14.186 8.716a2 2 0 010-2.828l4.473-4.474a2 2 0 012.829 0L50.314 30.24a2 2 0 01.535.965l2.552 11.07 1.414 1.414a2 2 0 010 2.828zm-5.901-5.902l-1.152-4.995-3.843 3.844 4.995 1.151z" fill="#F55E21"/><path fill-rule="evenodd" clip-rule="evenodd" d="M1.414 14a2 2 0 010-2.828l8.838-8.838a2 2 0 012.828 2.829l-7.423 7.423L30.882 37.81a2 2 0 01-2.829 2.828L1.414 14z" fill="#F55E21"/></svg>