<svg width="180" height="81" viewBox="0 0 180 81" fill="none" xmlns="http://www.w3.org/2000/svg">
<rect y="0.587891" width="180" height="80" fill="#679100"/>
<path d="M59.4254 46.4137L30.5995 17.5878L26.1257 22.0615L48.9722 44.908M59.4254 46.4137L62.1071 58.0428M59.4254 46.4137L56.4856 49.3536L53.4818 52.3574L50.478 55.3612M62.1071 58.0428L50.478 55.3612M62.1071 58.0428L63.9266 59.8625M50.478 55.3612L21.652 26.5353" stroke="#E9EFE8" stroke-width="3" stroke-linecap="square"/>
<path d="M39.9946 53.9853L13.3555 27.3462L22.1927 18.5089" stroke="#E9EFE8" stroke-width="3"/>
<path d="M85.5021 33.4949C85.5469 34.9118 86.8445 35.737 88.6094 35.737C90.419 35.737 91.7266 34.877 91.7266 33.47C91.7266 32.4409 91.0256 31.7349 90.1207 31.6802V31.6007C90.9957 31.367 91.5526 30.8201 91.5526 29.9949C91.5526 28.7072 90.4389 27.8521 88.6491 27.8521C86.9787 27.8521 85.7209 28.7172 85.696 30.0495H87.4709C87.4908 29.5375 88.0178 29.1795 88.7337 29.1795C89.4496 29.1795 89.8821 29.5623 89.8821 30.1291C89.8821 30.6511 89.4844 31.0389 88.7386 31.0389H87.5703V32.3166H88.7386C89.4893 32.3166 89.9815 32.7392 89.9815 33.3556C89.9815 34.0517 89.37 34.3897 88.5994 34.3897C87.8388 34.3897 87.3217 34.0616 87.2869 33.4949H85.5021ZM96.0409 35.742C97.2391 35.742 97.955 35.1802 98.2831 34.5389H98.3428V35.5879H100.073V30.4771C100.073 28.4586 98.4273 27.8521 96.9706 27.8521C95.3648 27.8521 94.1318 28.568 93.7341 29.96L95.4145 30.1987C95.5935 29.6767 96.1006 29.2292 96.9805 29.2292C97.8158 29.2292 98.2732 29.6568 98.2732 30.4075V30.4373C98.2732 30.9544 97.7312 30.9792 96.3839 31.1234C94.9024 31.2825 93.4855 31.725 93.4855 33.4451C93.4855 34.9466 94.5842 35.742 96.0409 35.742ZM96.5082 34.4196C95.7575 34.4196 95.2206 34.0765 95.2206 33.4153C95.2206 32.7243 95.8222 32.4359 96.6276 32.3216C97.0999 32.2569 98.0445 32.1376 98.2781 31.9487V32.8485C98.2781 33.6987 97.592 34.4196 96.5082 34.4196ZM102.583 35.5879H104.303V29.4281H107.296V35.5879H109.031V27.9515H102.583V35.5879ZM113.316 33.1518V27.9515H111.581V35.5879H113.436L116.483 30.3826V35.5879H118.223V27.9515H116.374L113.316 33.1518ZM124.103 35.737C126.022 35.737 127.245 34.5985 127.374 32.9778H125.654C125.5 33.7981 124.908 34.2704 124.117 34.2704C122.994 34.2704 122.268 33.3308 122.268 31.7697C122.268 30.2285 123.009 29.3038 124.117 29.3038C124.983 29.3038 125.514 29.8606 125.654 30.5964H127.374C127.25 28.9409 125.957 27.8521 124.093 27.8521C121.855 27.8521 120.443 29.4679 120.443 31.7995C120.443 34.1113 121.821 35.737 124.103 35.737ZM131.287 30.4373V27.9515H129.552V35.5879H133.022C134.966 35.5879 136.084 34.514 136.089 33.0126C136.084 31.4714 134.966 30.4373 133.022 30.4373H131.287ZM131.287 31.9139H133.022C133.802 31.9139 134.364 32.3762 134.364 33.0375C134.364 33.6689 133.802 34.1113 133.022 34.1113H131.287V31.9139ZM87.6598 44.9515H85.9247V52.5879H87.6598V49.5005H90.6179V52.5879H92.348V44.9515H90.6179V48.024H87.6598V44.9515ZM97.0663 52.742C98.2645 52.742 98.9804 52.1802 99.3085 51.5389H99.3681V52.5879H101.098V47.4771C101.098 45.4586 99.4527 44.8521 97.996 44.8521C96.3902 44.8521 95.1572 45.568 94.7595 46.96L96.4399 47.1987C96.6189 46.6767 97.126 46.2292 98.0059 46.2292C98.8412 46.2292 99.2985 46.6568 99.2985 47.4075V47.4373C99.2985 47.9544 98.7566 47.9792 97.4093 48.1234C95.9278 48.2825 94.5109 48.725 94.5109 50.4451C94.5109 51.9466 95.6096 52.742 97.0663 52.742ZM97.5336 51.4196C96.7829 51.4196 96.246 51.0765 96.246 50.4153C96.246 49.7243 96.8475 49.4359 97.6529 49.3216C98.1252 49.2569 99.0699 49.1376 99.3035 48.9487V49.8485C99.3035 50.6987 98.6174 51.4196 97.5336 51.4196ZM107.781 52.5879H109.501V46.4281H112.494V52.5879H114.229V44.9515H107.781V52.5879ZM116.779 55.4515H118.579V51.3848H118.654C118.937 51.9416 119.529 52.7221 120.841 52.7221C122.641 52.7221 123.988 51.2953 123.988 48.7797C123.988 46.2342 122.601 44.8521 120.836 44.8521C119.489 44.8521 118.927 45.6625 118.654 46.2143H118.549V44.9515H116.779V55.4515ZM118.544 48.7697C118.544 47.2882 119.181 46.3287 120.339 46.3287C121.537 46.3287 122.154 47.3478 122.154 48.7697C122.154 50.2015 121.527 51.2456 120.339 51.2456C119.191 51.2456 118.544 50.2512 118.544 48.7697ZM127.964 50.1518V44.9515H126.229V52.5879H128.084L131.131 47.3826V52.5879H132.871V44.9515H131.022L127.964 50.1518ZM138.8 52.737C140.58 52.737 141.803 51.867 142.121 50.5396L140.441 50.3507C140.197 50.997 139.601 51.335 138.825 51.335C137.662 51.335 136.891 50.5694 136.876 49.2619H142.196V48.71C142.196 46.0304 140.585 44.8521 138.706 44.8521C136.518 44.8521 135.092 46.4579 135.092 48.8145C135.092 51.2108 136.498 52.737 138.8 52.737ZM136.881 48.0488C136.936 47.0744 137.657 46.2541 138.731 46.2541C139.765 46.2541 140.461 47.0098 140.471 48.0488H136.881ZM148.813 50.4949L146.606 44.9515H144.418V52.5879H146.154V47.4423L148.187 52.5879H149.445L151.548 47.3876V52.5879H153.268V44.9515H151.08L148.813 50.4949Z" fill="#E9EFE8"/>
</svg>
