<svg width="180" height="81" viewBox="0 0 180 81" fill="none" xmlns="http://www.w3.org/2000/svg">
<rect y="0.0996094" width="180" height="80" fill="#434343"/>
<path d="M87.5589 28.2388C89.7365 28.2388 91.3224 26.9909 91.3175 25.2708C91.3224 23.998 90.527 23.0833 89.1001 22.8794V22.7999C90.2038 22.5613 90.9446 21.7409 90.9396 20.5975C90.9446 19.0463 89.6222 17.7786 87.5888 17.7786C85.6101 17.7786 84.0788 18.9569 84.0391 20.6621H85.8139C85.8438 19.807 86.6392 19.275 87.5788 19.275C88.5284 19.275 89.1598 19.8517 89.1548 20.7069C89.1598 21.5968 88.424 22.1884 87.37 22.1884H86.4702V23.6103H87.37C88.6577 23.6103 89.4233 24.2566 89.4183 25.1763C89.4233 26.0762 88.6428 26.6926 87.554 26.6926C86.5298 26.6926 85.7393 26.1607 85.6946 25.3304H83.8253C83.875 27.0506 85.4112 28.2388 87.5589 28.2388ZM95.9413 28.2537C97.1395 28.2537 97.8554 27.6919 98.1835 27.0506H98.2431V28.0996H99.9733V22.9888C99.9733 20.9703 98.3277 20.3638 96.871 20.3638C95.2652 20.3638 94.0322 21.0797 93.6345 22.4718L95.3149 22.7104C95.4939 22.1884 96.001 21.7409 96.8809 21.7409C97.7162 21.7409 98.1735 22.1685 98.1735 22.9192V22.949C98.1735 23.4661 97.6316 23.4909 96.2843 23.6351C94.8028 23.7942 93.3859 24.2367 93.3859 25.9569C93.3859 27.4583 94.4846 28.2537 95.9413 28.2537ZM96.4086 26.9313C95.6579 26.9313 95.121 26.5882 95.121 25.927C95.121 25.236 95.7225 24.9476 96.5279 24.8333C97.0002 24.7686 97.9449 24.6493 98.1785 24.4604V25.3603C98.1785 26.2104 97.4924 26.9313 96.4086 26.9313ZM102.483 28.0996H104.283V25.2211H105.163L107.256 28.0996H109.433L106.575 24.2118L109.403 20.4632H107.236L104.939 23.5456H104.283V20.4632H102.483V28.0996ZM113.351 28.2537C114.549 28.2537 115.265 27.6919 115.593 27.0506H115.653V28.0996H117.383V22.9888C117.383 20.9703 115.737 20.3638 114.281 20.3638C112.675 20.3638 111.442 21.0797 111.044 22.4718L112.725 22.7104C112.904 22.1884 113.411 21.7409 114.291 21.7409C115.126 21.7409 115.583 22.1685 115.583 22.9192V22.949C115.583 23.4661 115.041 23.4909 113.694 23.6351C112.213 23.7942 110.796 24.2367 110.796 25.9569C110.796 27.4583 111.894 28.2537 113.351 28.2537ZM113.818 26.9313C113.068 26.9313 112.531 26.5882 112.531 25.927C112.531 25.236 113.132 24.9476 113.938 24.8333C114.41 24.7686 115.355 24.6493 115.588 24.4604V25.3603C115.588 26.2104 114.902 26.9313 113.818 26.9313ZM119.47 26.0066C119.515 27.4235 120.812 28.2488 122.577 28.2488C124.387 28.2488 125.695 27.3887 125.695 25.9817C125.695 24.9526 124.994 24.2466 124.089 24.1919V24.1124C124.964 23.8787 125.521 23.3319 125.521 22.5066C125.521 21.2189 124.407 20.3638 122.617 20.3638C120.947 20.3638 119.689 21.2289 119.664 22.5613H121.439C121.459 22.0492 121.986 21.6912 122.702 21.6912C123.418 21.6912 123.85 22.074 123.85 22.6408C123.85 23.1628 123.452 23.5506 122.707 23.5506H121.538V24.8283H122.707C123.457 24.8283 123.95 25.2509 123.95 25.8674C123.95 26.5634 123.338 26.9015 122.567 26.9015C121.807 26.9015 121.29 26.5733 121.255 26.0066H119.47ZM130.009 28.2537C131.207 28.2537 131.923 27.6919 132.251 27.0506H132.311V28.0996H134.041V22.9888C134.041 20.9703 132.395 20.3638 130.939 20.3638C129.333 20.3638 128.1 21.0797 127.702 22.4718L129.382 22.7104C129.561 22.1884 130.069 21.7409 130.949 21.7409C131.784 21.7409 132.241 22.1685 132.241 22.9192V22.949C132.241 23.4661 131.699 23.4909 130.352 23.6351C128.87 23.7942 127.453 24.2367 127.453 25.9569C127.453 27.4583 128.552 28.2537 130.009 28.2537ZM130.476 26.9313C129.725 26.9313 129.189 26.5882 129.189 25.927C129.189 25.236 129.79 24.9476 130.596 24.8333C131.068 24.7686 132.012 24.6493 132.246 24.4604V25.3603C132.246 26.2104 131.56 26.9313 130.476 26.9313ZM135.695 21.9398H138.166V28.0996H139.906V21.9398H142.377V20.4632H135.695V21.9398ZM146.245 22.949V20.4632H144.51V28.0996H147.98C149.924 28.0996 151.043 27.0257 151.048 25.5243C151.043 23.9831 149.924 22.949 147.98 22.949H146.245ZM146.245 24.4256H147.98C148.761 24.4256 149.323 24.888 149.323 25.5492C149.323 26.1806 148.761 26.623 147.98 26.623H146.245V24.4256ZM87.2557 45.2488C89.4929 45.2488 90.9148 43.6728 90.9148 41.3113C90.9148 38.9448 89.4929 37.3638 87.2557 37.3638C85.0185 37.3638 83.5966 38.9448 83.5966 41.3113C83.5966 43.6728 85.0185 45.2488 87.2557 45.2488ZM87.2656 43.807C86.0277 43.807 85.4212 42.7033 85.4212 41.3063C85.4212 39.9093 86.0277 38.7907 87.2656 38.7907C88.4837 38.7907 89.0902 39.9093 89.0902 41.3063C89.0902 42.7033 88.4837 43.807 87.2656 43.807ZM99.2623 34.6394C98.8944 34.9178 98.3127 34.9128 97.5223 34.9128C97.2985 34.9128 97.0649 34.9128 96.8113 34.9178C94.1814 34.9526 92.8291 36.7026 92.8291 40.2921V40.9782C92.8291 43.7722 94.241 45.2488 96.4633 45.2488C98.6856 45.2488 100.088 43.7672 100.088 41.4107C100.088 39.1238 98.7552 37.8063 96.861 37.8063C95.6977 37.8063 94.8177 38.3084 94.3404 39.2431H94.2559C94.4349 37.339 95.1508 36.4789 96.861 36.4391C98.3774 36.4043 99.2275 36.3794 99.8887 35.8027L99.2623 34.6394ZM96.4733 43.807C95.3447 43.807 94.6537 42.9022 94.6537 41.4604C94.6686 40.0385 95.3497 39.2232 96.4633 39.2232C97.577 39.2232 98.263 40.0385 98.263 41.4604C98.263 42.9071 97.5819 43.807 96.4733 43.807ZM102.319 47.9632H104.119V43.8965H104.193C104.477 44.4533 105.068 45.2338 106.381 45.2338C108.18 45.2338 109.528 43.807 109.528 41.2914C109.528 38.7459 108.141 37.3638 106.376 37.3638C105.028 37.3638 104.467 38.1742 104.193 38.726H104.089V37.4632H102.319V47.9632ZM104.084 41.2814C104.084 39.7999 104.72 38.8404 105.879 38.8404C107.077 38.8404 107.693 39.8596 107.693 41.2814C107.693 42.7132 107.067 43.7573 105.879 43.7573C104.73 43.7573 104.084 42.763 104.084 41.2814ZM113.966 45.2537C115.164 45.2537 115.88 44.6919 116.208 44.0506H116.268V45.0996H117.998V39.9888C117.998 37.9703 116.353 37.3638 114.896 37.3638C113.29 37.3638 112.057 38.0797 111.659 39.4718L113.34 39.7104C113.519 39.1884 114.026 38.7409 114.906 38.7409C115.741 38.7409 116.199 39.1685 116.199 39.9192V39.949C116.199 40.4661 115.657 40.4909 114.309 40.6351C112.828 40.7942 111.411 41.2367 111.411 42.9569C111.411 44.4583 112.51 45.2537 113.966 45.2537ZM114.434 43.9313C113.683 43.9313 113.146 43.5882 113.146 42.927C113.146 42.236 113.748 41.9476 114.553 41.8333C115.025 41.7686 115.97 41.6493 116.204 41.4604V42.3603C116.204 43.2104 115.517 43.9313 114.434 43.9313ZM119.653 38.9398H122.124V45.0996H123.864V38.9398H126.335V37.4632H119.653V38.9398ZM130.203 37.4632H128.468V45.0996H130.203V42.0123H133.161V45.0996H134.891V37.4632H133.161V40.5357H130.203V37.4632ZM139.147 39.949V37.4632H137.412V45.0996H140.882C142.826 45.0996 143.944 44.0257 143.949 42.5243C143.944 40.9831 142.826 39.949 140.882 39.949H139.147ZM144.899 45.0996H146.699V37.4632H144.899V45.0996ZM139.147 41.4256H140.882C141.663 41.4256 142.224 41.888 142.224 42.5492C142.224 43.1806 141.663 43.623 140.882 43.623H139.147V41.4256ZM150.989 42.6635V37.4632H149.254V45.0996H151.109L154.156 39.8944V45.0996H155.896V37.4632H154.047L150.989 42.6635ZM153.555 34.8382C153.55 35.3255 153.271 35.758 152.57 35.758C151.86 35.758 151.591 35.3155 151.591 34.8382H150.254C150.249 36.0016 151.149 36.7871 152.57 36.7871C154.002 36.7871 154.902 36.0016 154.902 34.8382H153.555ZM83.5021 60.0066C83.5469 61.4235 84.8445 62.2488 86.6094 62.2488C88.419 62.2488 89.7266 61.3887 89.7266 59.9817C89.7266 58.9526 89.0256 58.2466 88.1207 58.1919V58.1124C88.9957 57.8787 89.5526 57.3319 89.5526 56.5066C89.5526 55.2189 88.4389 54.3638 86.6491 54.3638C84.9787 54.3638 83.7209 55.2289 83.696 56.5613H85.4709C85.4908 56.0492 86.0178 55.6912 86.7337 55.6912C87.4496 55.6912 87.8821 56.074 87.8821 56.6408C87.8821 57.1628 87.4844 57.5506 86.7386 57.5506H85.5703V58.8283H86.7386C87.4893 58.8283 87.9815 59.2509 87.9815 59.8674C87.9815 60.5634 87.37 60.9015 86.5994 60.9015C85.8388 60.9015 85.3217 60.5733 85.2869 60.0066H83.5021ZM91.8435 62.0996H95.5423C97.3321 62.0996 98.3562 61.2892 98.3562 60.0265C98.3562 58.9576 97.526 58.2118 96.3278 58.1074C97.347 57.9185 97.9834 57.3766 97.9834 56.5165C97.9834 55.2289 96.8548 54.4632 95.0501 54.4632H91.8435V62.0996ZM93.5288 60.6827V58.7885H95.5423C96.2036 58.7885 96.6062 59.1713 96.6062 59.8027C96.6062 60.3496 96.2036 60.6827 95.5423 60.6827H93.5288ZM93.5288 57.6252V55.905H95.0501C95.8009 55.905 96.2582 56.2232 96.2582 56.7452C96.2582 57.2921 95.8158 57.6252 95.0849 57.6252H93.5288ZM103.872 62.2488C106.11 62.2488 107.532 60.6728 107.532 58.3113C107.532 55.9448 106.11 54.3638 103.872 54.3638C101.635 54.3638 100.213 55.9448 100.213 58.3113C100.213 60.6728 101.635 62.2488 103.872 62.2488ZM103.882 60.807C102.644 60.807 102.038 59.7033 102.038 58.3063C102.038 56.9093 102.644 55.7907 103.882 55.7907C105.1 55.7907 105.707 56.9093 105.707 58.3063C105.707 59.7033 105.1 60.807 103.882 60.807ZM111.494 54.4632H109.759V62.0996H111.494V59.0123H114.452V62.0996H116.182V54.4632H114.452V57.5357H111.494V54.4632ZM122.034 62.2488C124.271 62.2488 125.693 60.6728 125.693 58.3113C125.693 55.9448 124.271 54.3638 122.034 54.3638C119.797 54.3638 118.375 55.9448 118.375 58.3113C118.375 60.6728 119.797 62.2488 122.034 62.2488ZM122.044 60.807C120.806 60.807 120.2 59.7033 120.2 58.3063C120.2 56.9093 120.806 55.7907 122.044 55.7907C123.262 55.7907 123.869 56.9093 123.869 58.3063C123.869 59.7033 123.262 60.807 122.044 60.807ZM127.921 62.0996H129.721V59.2211H130.6L132.694 62.0996H134.871L132.012 58.2118L134.841 54.4632H132.674L130.377 57.5456H129.721V54.4632H127.921V62.0996Z" fill="#E9EFE8"/>
<path fill-rule="evenodd" clip-rule="evenodd" d="M22.6186 22.1479C20.9516 23.8188 19.4427 25.4658 19.2656 25.8078C18.7657 26.7733 19.0023 30.2197 19.7169 32.3793C21.3622 37.3527 24.6149 42.2535 29.626 47.3098C35.8594 53.5992 42.262 57.3711 47.7792 58.0037C50.1449 58.2748 50.2836 58.1978 53.8155 54.6481C55.9841 52.4684 57 51.3001 57 50.9856C57 50.6089 56.1798 50.0326 52.5453 47.855C50.0952 46.3873 47.927 45.1862 47.7272 45.1862C47.5274 45.1862 46.5837 45.9432 45.6304 46.8685C44.6772 47.7938 43.6548 48.6127 43.3587 48.688C42.2073 48.9809 39.5227 47.655 36.7465 45.4224C31.9614 41.5741 27.5367 35.3408 28.068 33.1963C28.1413 32.9002 28.855 31.9577 29.6539 31.1023C30.6026 30.0864 31.1042 29.3778 31.0998 29.0595C31.0917 28.4506 26.2997 19.3206 25.9244 19.1989C25.7733 19.1498 24.2856 20.4768 22.6186 22.1479ZM36.1181 20.4827V21.8658L37.2144 22.0069C46.0044 23.1392 52.5678 29.836 53.7608 38.8898L53.8934 39.8951H55.2666H56.64L56.5003 38.3328C56.0123 32.8737 52.6585 27.0866 47.827 23.3657C45.0368 21.2171 40.9832 19.5853 37.5943 19.2469L36.1181 19.0996V20.4827ZM36.1931 25.8224C36.1388 25.9657 36.1231 26.5865 36.1584 27.2019L36.2225 28.3209L37.6843 28.6694C40.4695 29.334 43.2008 31.0286 44.7643 33.0616C45.8578 34.4839 46.9295 36.7935 47.2475 38.4137L47.5175 39.7893H48.8655H50.2134L50.1501 39.0486C49.7598 34.4765 46.411 29.553 42.1791 27.3297C39.8664 26.1145 36.4117 25.2449 36.1931 25.8224ZM36.2029 32.3577C36.1417 32.519 36.1213 33.0574 36.1572 33.5546C36.2175 34.3891 36.2829 34.4792 37.011 34.7336C38.7822 35.3525 40.4004 36.9861 41.1569 38.9195C41.4965 39.7874 41.4998 39.7893 42.6187 39.7893C43.6847 39.7893 43.7383 39.7631 43.7062 39.2602C43.6293 38.0556 42.7458 36.2617 41.6251 35.0348C40.3269 33.6136 39.2247 32.8947 37.5941 32.4049C36.2296 31.9952 36.3386 31.999 36.2029 32.3577Z" fill="#E9EFE8"/>
</svg>
